<?xml version="1.0" encoding="utf-8"?>
<!-- Generator: Adobe Illustrator 24.3.0, SVG Export Plug-In . SVG Version: 6.00 Build 0)  -->
<svg version="1.1" id="Layer_1" xmlns="http://www.w3.org/2000/svg" xmlns:xlink="http://www.w3.org/1999/xlink" x="0px" y="0px"
	 viewBox="0 0 560 508" style="enable-background:new 0 0 560 508;" xml:space="preserve">
<style type="text/css">
	.st0{fill-rule:evenodd;clip-rule:evenodd;}
</style>
<path class="st0" d="M52,0.3C23.2,0.3-0.5,24-0.5,52.8v280c0,28.8,23.7,52.4,52.4,52.4h164.8l-10,87.5h-23.5
	c-4.6,0-9.1,1.8-12.4,5.1c-3.3,3.3-5.1,7.7-5.1,12.4c0,4.6,1.8,9.1,5.1,12.4c3.3,3.3,7.7,5.1,12.4,5.1h192.6c4.6,0,9.1-1.8,12.4-5.1
	c3.3-3.3,5.1-7.7,5.1-12.4s-1.8-9.1-5.1-12.4c-3.3-3.3-7.7-5.1-12.4-5.1h-23.5l-10.1-87.5h164.9c28.8,0,52.4-23.7,52.4-52.4v-280
	c0-28.8-23.7-52.5-52.4-52.5L52,0.3z M52,35.3h455.1c10,0,17.5,7.5,17.5,17.5v222H34.5v-222C34.5,42.8,42,35.3,52,35.3L52,35.3z
	 M34.5,309.8h490.1v23c0,10-7.5,17.4-17.5,17.4l-455.1,0c-10,0-17.5-7.4-17.5-17.4L34.5,309.8z M252.1,385.2H307l10,87.5l-75,0
	L252.1,385.2z"/>
</svg>
