<?xml version="1.0" encoding="utf-8"?>
<!-- Generator: Adobe Illustrator 24.3.0, SVG Export Plug-In . SVG Version: 6.00 Build 0)  -->
<svg version="1.1" id="Layer_1" xmlns="http://www.w3.org/2000/svg" xmlns:xlink="http://www.w3.org/1999/xlink" x="0px" y="0px"
	 viewBox="0 0 476 328" style="enable-background:new 0 0 476 328;" xml:space="preserve">
<g>
	<path d="M148.9,225.5h-34.4c-1.8,0-3.2,1.5-3.2,3.2c0,1.8,1.5,3.2,3.2,3.2h85c1.8,0,3.2-1.5,3.2-3.2c0-1.8-1.5-3.2-3.2-3.2h-34.4
		v-20.4H313c0.6,0,1.1-0.5,1.1-1.1V23.3c0-0.6-0.5-1.1-1.1-1.1H1c-0.6,0-1.1,0.5-1.1,1.1V204c0,0.6,0.5,1.1,1.1,1.1h147.9V225.5
		L148.9,225.5z M6,198.7V28.5h301.9v170.3L6,198.7L6,198.7z"/>
	<path d="M373.2,30.9h81.5v8.6h-81.5V30.9z"/>
	<path d="M373.2,54.2h81.5v8.6h-81.5V54.2z"/>
	<path d="M458.7,0.5h-89.4c-9.5,0-17.1,7.7-17.1,17.1v255.1c0,8.6,6.4,15.8,14.8,17h0.1c0,0.2-0.1,0.3-0.1,0.4
		c0,1.8,1.5,3.2,3.2,3.2h87.6c1.8,0,3.2-1.5,3.2-3.2c0-0.2-0.1-0.3-0.1-0.4h0.1c8.3-1.1,14.8-8.3,14.8-17V17.5
		C475.8,8.2,468.1,0.5,458.7,0.5L458.7,0.5z M368.3,28.5c0-1.3,1.1-2.5,2.5-2.5h86.5c1.3,0,2.5,1.1,2.5,2.5V42
		c0,1.3-1.1,2.5-2.5,2.5h-86.5c-1.3,0-2.5-1.1-2.5-2.5V28.5z M413.9,160c5.3,0,9.7-4.4,9.7-9.7c0-3.6-2-6.9-5.2-8.6
		c-0.3-0.2-0.4-0.4-0.4-0.7v-2.9c0-0.3,0.1-0.5,0.3-0.7s0.5-0.2,0.8-0.1c5.3,2.1,8.7,7.2,8.7,12.9c0,7.7-6.3,13.9-13.9,13.9
		c-7.7,0-13.9-6.3-13.9-13.9c0-5.7,3.4-10.8,8.7-12.9c0.2-0.1,0.6-0.1,0.8,0.1c0.2,0.2,0.3,0.4,0.3,0.7v2.9c0,0.3-0.2,0.6-0.4,0.7
		c-3.2,1.7-5.2,5-5.2,8.6C404.3,155.7,408.6,160,413.9,160L413.9,160z M411.8,150.2v-15.7c0-1.2,1-2.1,2.1-2.1s2.1,1,2.1,2.1v15.7
		c0,1.2-1,2.1-2.1,2.1S411.8,151.4,411.8,150.2z M368.3,51.8c0-1.3,1.1-2.5,2.5-2.5h86.5c1.3,0,2.5,1.1,2.5,2.5v13.6
		c0,1.3-1.1,2.5-2.5,2.5h-86.5c-1.3,0-2.5-1.1-2.5-2.5V51.8z"/>
	<path d="M258.3,318.2v-49.6c0-5.2-4.3-9.4-9.4-9.4H65.1c-5.2,0-9.5,4.3-9.5,9.4v49.6c0,5.2,4.3,9.4,9.5,9.4h183.8
		C254.1,327.6,258.3,323.4,258.3,318.2z M215,272.5c0-1,0.8-1.8,1.8-1.8h8.1c1,0,1.8,0.8,1.8,1.8v8c0,1-0.8,1.8-1.8,1.8h-8.1
		c-1,0-1.8-0.8-1.8-1.8V272.5z M217.6,289.1v8c0,1-0.8,1.8-1.8,1.8h-8.1c-1,0-1.7-0.8-1.7-1.8v-8c0-1,0.8-1.8,1.7-1.8h8.1
		C216.8,287.3,217.6,288,217.6,289.1z M196.8,272.5c0-1,0.8-1.8,1.8-1.8h8.1c1,0,1.8,0.8,1.8,1.8v8c0,1-0.8,1.8-1.8,1.8h-8.1
		c-1,0-1.8-0.8-1.8-1.8V272.5z M199.3,289.1v8c0,1-0.8,1.8-1.7,1.8h-8.1c-1,0-1.8-0.8-1.8-1.8v-8c0-1,0.8-1.8,1.8-1.8h8.1
		C198.5,287.3,199.3,288,199.3,289.1z M178.5,272.5c0-1,0.8-1.8,1.7-1.8h8.1c1,0,1.8,0.8,1.8,1.8v8c0,1-0.8,1.8-1.8,1.8h-8.1
		c-1,0-1.7-0.8-1.7-1.8V272.5z M181,289.1v8c0,1-0.8,1.8-1.8,1.8h-8.1c-1,0-1.8-0.8-1.8-1.8v-8c0-1,0.8-1.8,1.8-1.8h8.1
		C180.3,287.3,181,288,181,289.1z M160.3,272.5c0-1,0.8-1.8,1.8-1.8h8.1c1,0,1.8,0.8,1.8,1.8v8c0,1-0.8,1.8-1.8,1.8h-8.1
		c-1,0-1.8-0.8-1.8-1.8V272.5z M162.8,289.1v8c0,1-0.8,1.8-1.8,1.8h-8.1c-1,0-1.8-0.8-1.8-1.8v-8c0-1,0.8-1.8,1.8-1.8h8.1
		C162.1,287.3,162.8,288,162.8,289.1z M142.1,272.5c0-1,0.8-1.8,1.8-1.8h8.1c1,0,1.8,0.8,1.8,1.8v8c0,1-0.8,1.8-1.8,1.8h-8.1
		c-1,0-1.8-0.8-1.8-1.8V272.5z M144.6,289.1v8c0,1-0.8,1.8-1.8,1.8h-8.1c-1,0-1.8-0.8-1.8-1.8v-8c0-1,0.8-1.8,1.8-1.8h8.1
		C143.8,287.3,144.6,288,144.6,289.1z M123.8,272.5c0-1,0.8-1.8,1.8-1.8h8.1c1,0,1.8,0.8,1.8,1.8v8c0,1-0.8,1.8-1.8,1.8h-8.1
		c-1,0-1.8-0.8-1.8-1.8C123.8,280.5,123.8,272.5,123.8,272.5z M126.3,289.1v8c0,1-0.8,1.8-1.8,1.8h-8.1c-1,0-1.8-0.8-1.8-1.8v-8
		c0-1,0.8-1.8,1.8-1.8h8.1C125.5,287.3,126.3,288,126.3,289.1z M105.6,272.5c0-1,0.8-1.8,1.7-1.8h8.1c1,0,1.8,0.8,1.8,1.8v8
		c0,1-0.8,1.8-1.8,1.8h-8.1c-1,0-1.7-0.8-1.7-1.8V272.5L105.6,272.5z M108.1,289.1v8c0,1-0.8,1.8-1.8,1.8h-8.1c-1,0-1.8-0.8-1.8-1.8
		v-8c0-1,0.8-1.8,1.8-1.8h8.1C107.3,287.3,108.1,288,108.1,289.1z M87.3,272.5c0-1,0.8-1.8,1.8-1.8h8.1c1,0,1.8,0.8,1.8,1.8v8
		c0,1-0.8,1.8-1.8,1.8h-8.1c-1,0-1.8-0.8-1.8-1.8V272.5z M89.9,289.1v8c0,1-0.8,1.8-1.8,1.8H80c-1,0-1.7-0.8-1.7-1.8v-8
		c0-1,0.8-1.8,1.7-1.8h8.1C89,287.3,89.9,288,89.9,289.1z M69,272.5c0-1,0.8-1.8,1.8-1.8H79c1,0,1.8,0.8,1.8,1.8v8
		c0,1-0.8,1.8-1.8,1.8h-8.1c-1,0-1.8-0.8-1.8-1.8L69,272.5L69,272.5z M80.8,313.5c0,1-0.8,1.8-1.8,1.8h-8.1c-1,0-1.8-0.8-1.8-1.8v-8
		c0-1,0.8-1.8,1.8-1.8H79c1,0,1.8,0.8,1.8,1.8V313.5z M98.9,313.5c0,1-0.8,1.8-1.8,1.8H89c-1,0-1.8-0.8-1.8-1.8v-8
		c0-1,0.8-1.8,1.8-1.8h8.1c1,0,1.8,0.8,1.8,1.8V313.5z M117.2,313.5c0,1-0.8,1.8-1.8,1.8h-8.1c-1,0-1.7-0.8-1.7-1.8v-8
		c0-1,0.8-1.8,1.7-1.8h8.1c1,0,1.8,0.8,1.8,1.8V313.5L117.2,313.5z M190.2,313.5c0,1-0.8,1.8-1.8,1.8h-62.8c-1,0-1.8-0.8-1.8-1.8v-8
		c0-1,0.8-1.8,1.8-1.8h62.8c1,0,1.8,0.8,1.8,1.8V313.5z M208.4,313.5c0,1-0.8,1.8-1.8,1.8h-8.1c-1,0-1.8-0.8-1.8-1.8v-8
		c0-1,0.8-1.8,1.8-1.8h8.1c1,0,1.8,0.8,1.8,1.8V313.5z M231.2,313.5c0,1-0.8,1.8-1.8,1.8h-12.7c-1,0-1.8-0.8-1.8-1.8v-8
		c0-1,0.8-1.8,1.8-1.8h12.7c1,0,1.8,0.8,1.8,1.8V313.5z M244.9,302c0,1-0.8,1.8-1.8,1.8H235c-1,0-1.8-0.8-1.8-1.8v-3.3h-4.8
		c-1,0-1.8-0.8-1.8-1.8v-8c0-1,0.8-1.8,1.8-1.8h14.7c1,0,1.8,0.8,1.8,1.8V302z M244.9,280.4c0,1-0.8,1.8-1.8,1.8H235
		c-1,0-1.8-0.8-1.8-1.8v-8c0-1,0.8-1.8,1.8-1.8h8.1c1,0,1.8,0.8,1.8,1.8L244.9,280.4L244.9,280.4z"/>
	<path d="M290.4,264.4v16.1c0,8.7,7.1,15.8,15.8,15.8c8.7,0,15.8-7.1,15.8-15.8v-16.1c0-8.7-7.1-15.8-15.8-15.8
		S290.4,255.7,290.4,264.4z M308.6,254.8v11.1c0,1.3-1.1,2.5-2.5,2.5s-2.5-1.1-2.5-2.5v-11.1c0-1.3,1.1-2.5,2.5-2.5
		C307.5,252.3,308.6,253.4,308.6,254.8z"/>
</g>
</svg>
