<?xml version="1.0" encoding="utf-8"?>
<!-- Generator: Adobe Illustrator 24.3.0, SVG Export Plug-In . SVG Version: 6.00 Build 0)  -->
<svg version="1.1" id="Layer_1" xmlns="http://www.w3.org/2000/svg" xmlns:xlink="http://www.w3.org/1999/xlink" x="0px" y="0px"
	 viewBox="0 0 323 306" style="enable-background:new 0 0 323 306;" xml:space="preserve">
<g>
	<path d="M149.1,203.5h-34.4c-1.8,0-3.2,1.5-3.2,3.2c0,1.8,1.5,3.2,3.2,3.2h85c1.8,0,3.2-1.5,3.2-3.2c0-1.8-1.5-3.2-3.2-3.2h-34.4
		v-20.4h147.9c0.6,0,1.1-0.5,1.1-1.1V1.3c0-0.6-0.5-1.1-1.1-1.1H1.2c-0.6,0-1.1,0.5-1.1,1.1V182c0,0.6,0.5,1.1,1.1,1.1h147.9V203.5
		L149.1,203.5z M6.2,176.7V6.5h301.9v170.3L6.2,176.7L6.2,176.7z"/>
	<path d="M258.5,296.2v-49.6c0-5.2-4.3-9.4-9.4-9.4H65.3c-5.2,0-9.5,4.3-9.5,9.4v49.6c0,5.2,4.3,9.4,9.5,9.4h183.8
		C254.3,305.6,258.5,301.4,258.5,296.2z M215.2,250.5c0-1,0.8-1.8,1.8-1.8h8.1c1,0,1.8,0.8,1.8,1.8v8c0,1-0.8,1.8-1.8,1.8H217
		c-1,0-1.8-0.8-1.8-1.8V250.5z M217.8,267.1v8c0,1-0.8,1.8-1.8,1.8h-8.1c-1,0-1.7-0.8-1.7-1.8v-8c0-1,0.8-1.8,1.7-1.8h8.1
		C217,265.3,217.8,266,217.8,267.1z M197,250.5c0-1,0.8-1.8,1.8-1.8h8.1c1,0,1.8,0.8,1.8,1.8v8c0,1-0.8,1.8-1.8,1.8h-8.1
		c-1,0-1.8-0.8-1.8-1.8V250.5z M199.5,267.1v8c0,1-0.8,1.8-1.7,1.8h-8.1c-1,0-1.8-0.8-1.8-1.8v-8c0-1,0.8-1.8,1.8-1.8h8.1
		C198.7,265.3,199.5,266,199.5,267.1z M178.7,250.5c0-1,0.8-1.8,1.7-1.8h8.1c1,0,1.8,0.8,1.8,1.8v8c0,1-0.8,1.8-1.8,1.8h-8.1
		c-1,0-1.7-0.8-1.7-1.8V250.5z M181.2,267.1v8c0,1-0.8,1.8-1.8,1.8h-8.1c-1,0-1.8-0.8-1.8-1.8v-8c0-1,0.8-1.8,1.8-1.8h8.1
		C180.5,265.3,181.2,266,181.2,267.1z M160.5,250.5c0-1,0.8-1.8,1.8-1.8h8.1c1,0,1.8,0.8,1.8,1.8v8c0,1-0.8,1.8-1.8,1.8h-8.1
		c-1,0-1.8-0.8-1.8-1.8V250.5z M163,267.1v8c0,1-0.8,1.8-1.8,1.8h-8.1c-1,0-1.8-0.8-1.8-1.8v-8c0-1,0.8-1.8,1.8-1.8h8.1
		C162.3,265.3,163,266,163,267.1z M142.3,250.5c0-1,0.8-1.8,1.8-1.8h8.1c1,0,1.8,0.8,1.8,1.8v8c0,1-0.8,1.8-1.8,1.8h-8.1
		c-1,0-1.8-0.8-1.8-1.8V250.5z M144.8,267.1v8c0,1-0.8,1.8-1.8,1.8h-8.1c-1,0-1.8-0.8-1.8-1.8v-8c0-1,0.8-1.8,1.8-1.8h8.1
		C144,265.3,144.8,266,144.8,267.1z M124,250.5c0-1,0.8-1.8,1.8-1.8h8.1c1,0,1.8,0.8,1.8,1.8v8c0,1-0.8,1.8-1.8,1.8h-8.1
		c-1,0-1.8-0.8-1.8-1.8C124,258.5,124,250.5,124,250.5z M126.5,267.1v8c0,1-0.8,1.8-1.8,1.8h-8.1c-1,0-1.8-0.8-1.8-1.8v-8
		c0-1,0.8-1.8,1.8-1.8h8.1C125.7,265.3,126.5,266,126.5,267.1z M105.8,250.5c0-1,0.8-1.8,1.7-1.8h8.1c1,0,1.8,0.8,1.8,1.8v8
		c0,1-0.8,1.8-1.8,1.8h-8.1c-1,0-1.7-0.8-1.7-1.8V250.5L105.8,250.5z M108.3,267.1v8c0,1-0.8,1.8-1.8,1.8h-8.1c-1,0-1.8-0.8-1.8-1.8
		v-8c0-1,0.8-1.8,1.8-1.8h8.1C107.5,265.3,108.3,266,108.3,267.1z M87.5,250.5c0-1,0.8-1.8,1.8-1.8h8.1c1,0,1.8,0.8,1.8,1.8v8
		c0,1-0.8,1.8-1.8,1.8h-8.1c-1,0-1.8-0.8-1.8-1.8V250.5z M90.1,267.1v8c0,1-0.8,1.8-1.8,1.8h-8.1c-1,0-1.7-0.8-1.7-1.8v-8
		c0-1,0.8-1.8,1.7-1.8h8.1C89.2,265.3,90.1,266,90.1,267.1z M69.2,250.5c0-1,0.8-1.8,1.8-1.8h8.2c1,0,1.8,0.8,1.8,1.8v8
		c0,1-0.8,1.8-1.8,1.8h-8.1c-1,0-1.8-0.8-1.8-1.8L69.2,250.5L69.2,250.5z M81,291.5c0,1-0.8,1.8-1.8,1.8h-8.1c-1,0-1.8-0.8-1.8-1.8
		v-8c0-1,0.8-1.8,1.8-1.8h8.1c1,0,1.8,0.8,1.8,1.8V291.5z M99.1,291.5c0,1-0.8,1.8-1.8,1.8h-8.1c-1,0-1.8-0.8-1.8-1.8v-8
		c0-1,0.8-1.8,1.8-1.8h8.1c1,0,1.8,0.8,1.8,1.8V291.5z M117.4,291.5c0,1-0.8,1.8-1.8,1.8h-8.1c-1,0-1.7-0.8-1.7-1.8v-8
		c0-1,0.8-1.8,1.7-1.8h8.1c1,0,1.8,0.8,1.8,1.8V291.5L117.4,291.5z M190.4,291.5c0,1-0.8,1.8-1.8,1.8h-62.8c-1,0-1.8-0.8-1.8-1.8v-8
		c0-1,0.8-1.8,1.8-1.8h62.8c1,0,1.8,0.8,1.8,1.8V291.5z M208.6,291.5c0,1-0.8,1.8-1.8,1.8h-8.1c-1,0-1.8-0.8-1.8-1.8v-8
		c0-1,0.8-1.8,1.8-1.8h8.1c1,0,1.8,0.8,1.8,1.8V291.5z M231.4,291.5c0,1-0.8,1.8-1.8,1.8h-12.7c-1,0-1.8-0.8-1.8-1.8v-8
		c0-1,0.8-1.8,1.8-1.8h12.7c1,0,1.8,0.8,1.8,1.8V291.5z M245.1,280c0,1-0.8,1.8-1.8,1.8h-8.1c-1,0-1.8-0.8-1.8-1.8v-3.3h-4.8
		c-1,0-1.8-0.8-1.8-1.8v-8c0-1,0.8-1.8,1.8-1.8h14.7c1,0,1.8,0.8,1.8,1.8V280z M245.1,258.4c0,1-0.8,1.8-1.8,1.8h-8.1
		c-1,0-1.8-0.8-1.8-1.8v-8c0-1,0.8-1.8,1.8-1.8h8.1c1,0,1.8,0.8,1.8,1.8L245.1,258.4L245.1,258.4z"/>
	<path d="M290.6,242.4v16.1c0,8.7,7.1,15.8,15.8,15.8c8.7,0,15.8-7.1,15.8-15.8v-16.1c0-8.7-7.1-15.8-15.8-15.8
		S290.6,233.7,290.6,242.4z M308.8,232.8v11.1c0,1.3-1.1,2.5-2.5,2.5s-2.5-1.1-2.5-2.5v-11.1c0-1.3,1.1-2.5,2.5-2.5
		C307.7,230.3,308.8,231.4,308.8,232.8z"/>
</g>
</svg>
