<?xml version="1.0" encoding="utf-8"?>
<svg version="1.1" id="Layer_1" xmlns="http://www.w3.org/2000/svg" xmlns:xlink="http://www.w3.org/1999/xlink" x="0px" y="0px"
	viewBox="0 0 91 105" style="enable-background:new 0 0 91 105;" xml:space="preserve">
<g>
	<path d="M90.1,5c-0.2-0.3-0.5-0.6-0.9-0.7c-0.8-0.1-1.5,0.2-2.1,0.7L87,5.1c-1.2,0.7-2.4,1.4-3.6,2
		c-1.4,0.7-2.7,1.4-4.1,2.1l-1,0.5c-2-0.4-4-0.8-5.9-1.1h-0.2c-0.3-2.4-0.5-4.8-0.8-7.2v0c0-0.6-0.3-1.1-0.8-1.3
		c-0.4-0.1-0.7,0-1.1,0.2c-8.3,4.2-15.8,9.8-22.2,16.5c-0.4,0.4-0.7,0.9-0.7,1.5v2.7v1.6c0,0.5,0,1.2-0.1,1.9c0,0.8-0.1,1.6-0.1,2.4
		c-0.1,3.6-0.3,7.5-0.5,12.6c-0.2,4.2-0.4,8.5-0.7,12.8c-0.3,4.3-0.5,8.6-0.8,12.8c-0.2,2.1-0.3,4.3-0.5,6.4
		c-0.3-0.1-0.7-0.2-1.1-0.3c-1.1-0.2-2.3-0.2-3.4,0c-0.1,0-0.2,0.1-0.2,0.3v0.2c-0.8-0.1-1,0-1.2,0.1c-0.9-0.2-2.1-0.4-3.4-0.5h-0.3
		c-3.7-0.4-7.6-0.4-7.7-0.4c-0.1,0-4,0-7.7,0.4h-0.3c-1.3,0.1-2.5,0.3-3.4,0.5c-0.1,0-0.3-0.2-1.1-0.1v-0.2c0-0.1-0.1-0.2-0.2-0.3
		c-1.1-0.2-2.3-0.2-3.4,0c-1,0.2-2,0.6-2.9,1.2c-0.1,0.1-0.1,0.1-0.1,0.2v0.2H7.2c-0.3,0.1-0.6,0.2-0.7,0.2v0
		c-0.3,0.1-0.6,0.3-0.8,0.7c-0.9,1.9-1.7,3.8-2.4,5.8c-0.9,2.8-1.7,5.7-2.1,8.7C0.3,92,0.3,96,1,100c0.2,1.8,1.2,3.4,2.7,4.4
		c0.3,0.2,0.7,0.3,1,0.3l2.3,0.4h0.3c0.7,0,1.3-0.4,1.6-0.9c1-1.7,1.8-3.5,2.5-5.4c0.4-0.9,0.8-1.9,1.2-2.9v0c0.3-0.8,0.7-1.4,1.3-2
		c0.8-0.5,1.7-0.8,2.6-0.7c0.6,0.2,1.2,0.3,1.8,0.3h16.4c0.6,0,1.2-0.1,1.8-0.3c0.9,0,1.8,0.2,2.5,0.7c0.6,0.5,1.1,1.2,1.3,2
		c0.4,0.9,0.8,1.9,1.2,2.8h0c0.7,1.9,1.5,3.7,2.5,5.4c0.3,0.6,0.9,0.9,1.6,0.9c0.1,0,0.2,0,0.3,0l2.3-0.3v0c0.4,0,0.7-0.2,1-0.3
		c0.8-0.4,1.4-1.1,1.8-1.8h0.8c3,0.1,6.7,0.1,10.3,0.1c7.2,0,14-0.1,14-0.1c0.5,0,5.1,0.1,6.9-1.9h0.2h0c0.3,0,0.7-0.1,0.9-0.3
		c0.4-0.4,0.6-0.9,0.6-1.4v-2c0.2-6.3,0.4-12.6,0.7-18.9c1-26.8,2.4-48.8,4.6-69.4c0-0.2,0-0.4,0.1-0.6l0,0C90.6,7,90.5,5.9,90.1,5
		L90.1,5z M80,51.4c0-0.3,0.3-0.6,0.6-0.6c0.2,0,0.3,0.1,0.4,0.2c0.1,0.1,0.2,0.3,0.2,0.4v3.5c0,0.2-0.1,0.3-0.2,0.4
		c-0.1,0.1-0.3,0.2-0.4,0.2c-0.3,0-0.6-0.3-0.6-0.6V51.4z M80,58.3c0-0.3,0.3-0.6,0.6-0.6c0.3,0,0.6,0.3,0.6,0.6v2.5
		c0,0.3-0.3,0.6-0.6,0.6c-0.3,0-0.6-0.3-0.6-0.6V58.3z M80,87.1L80,87.1c0-0.3,0.3-0.6,0.6-0.6c0.2,0,0.3,0.1,0.4,0.2
		c0.1,0.1,0.2,0.3,0.2,0.4v4.3c0,0.2-0.1,0.3-0.2,0.4c-0.1,0.1-0.3,0.2-0.4,0.2c-0.3,0-0.6-0.3-0.6-0.6V87.1z M46,65
		c0.3-4.2,0.6-8.4,0.8-12.8c0.3-4.3,0.5-8.5,0.7-12.8c0.3-5.1,0.4-9,0.5-12.7c0-0.8,0-1.6,0.1-2.4c0.1-0.8,0-1.3,0.1-1.9
		c0.1-0.6,0-1.1,0-1.6v-2.6l0,0c0-0.3,0.2-0.5,0.4-0.7C55.1,11,62.6,5.5,70.8,1.3h0.1c0,0.1,0,0.1,0,0.2c1,8.4,1.8,16.8,2.5,25.1
		l3.7,58c0.1,4.5,0.3,9.2,0.3,13.8v0.2l0,0c0,0.4,0,0.8-0.2,1.1c-0.2,0.3-0.7,0.4-1.6,0.3h-0.1c-7.5-0.8-14.9-1.7-22.4-2.9
		c0.2-3,0-6.1-0.5-9c-0.5-2.9-1.2-5.8-2.2-8.7c-0.7-2-1.5-3.9-2.4-5.8c-0.2-0.3-0.5-0.6-0.8-0.7l-0.7-0.2h-0.1v-0.2
		c0-0.1-0.1-0.2-0.1-0.2c-0.1-0.1-0.4-0.2-0.7-0.4C45.7,69.6,45.9,67.3,46,65L46,65z M17.9,72.7c0.1-0.1,0.3-0.3,0.9-0.3h0.2
		c3.7-0.4,7.6-0.4,7.7-0.4s4,0,7.7,0.4h0.2c0.6,0.1,0.9,0.2,0.9,0.3c0.1,0.2,0.1,0.5,0,0.7l-0.2,0.9l-0.3,1.4l-0.3,1.4
		c-0.1,0.7-0.3,1.3-0.4,2c-0.2,1-0.4,1.9-1.2,2.3v0c-0.5,0.2-1,0.3-1.5,0.2h-9.8c-0.5,0.1-1,0-1.5-0.2c-0.8-0.4-1-1.2-1.2-2.3
		c-0.1-0.7-0.3-1.3-0.4-2l-0.3-1.4c-0.2-0.8-0.3-1.6-0.5-2.4v0C17.9,73.2,17.9,72.9,17.9,72.7L17.9,72.7z M13.8,85.2l-0.3,0.4v0
		c-2.2,3.2-4,6.7-5.4,10.3c-0.9,2.1-1.6,4.4-2.3,6.6l-0.1,0.2c-0.1,0.4-0.3,0.8-0.6,0.9v0c-0.1,0-0.2,0-0.2,0
		c-0.2,0-0.4-0.1-0.6-0.2c-1.2-0.8-2-2.1-2.2-3.5C1.5,96,1.5,92.1,2.3,88.3c0.5-2.9,1.2-5.7,2.1-8.4c0.7-2,1.5-3.9,2.4-5.7
		c0.2-0.1,0.4-0.2,0.7-0.2c2.1-0.5,4.1-0.9,6.2-1.1h0.4c0.2,0,0.3,0,0.5,0h0.1c0.4,0.3,0.6,0.7,0.7,1.2c0.2,0.6,0.3,1.1,0.4,1.7
		l0.1,0.4l0.6,2.8v0c0.3,1,0.2,2.1-0.2,3c-0.3,0.4-0.7,0.8-1,1.2l-0.4,0.5C14.6,84.2,14.2,84.7,13.8,85.2L13.8,85.2z M18.6,92.3
		c-0.5,0-1.1-0.1-1.6-0.3c-0.8-0.3-1.5-0.9-2-1.6c-0.9-1.2-1-2.9-0.4-4.2l0.2-0.3c0.4-0.5,0.7-0.9,1.1-1.4c0.8-0.6,1.7-0.9,2.7-0.9
		c1.2-0.1,2.4,0.4,3.3,1.2c0.9,0.8,1.4,2,1.4,3.2c0,1.2-0.5,2.3-1.4,3.2C20.9,91.9,19.8,92.4,18.6,92.3L18.6,92.3z M27.8,90.9
		l-1.9,0c-0.3,0-0.6-0.3-0.6-0.6c0-0.3,0.3-0.6,0.6-0.6h1.9c0.3,0,0.6,0.3,0.6,0.6C28.4,90.7,28.1,90.9,27.8,90.9L27.8,90.9z
		 M36.7,92L36.7,92c-0.5,0.2-1,0.3-1.6,0.3c-1.2,0-2.3-0.5-3.1-1.3c-0.8-0.8-1.3-1.9-1.3-3.1c0-1.2,0.5-2.3,1.3-3.1
		c0.8-0.8,1.9-1.3,3.1-1.3c1,0,1.9,0.3,2.7,0.9c0.4,0.4,0.8,0.9,1.1,1.4l0.2,0.3v0c0.3,0.6,0.4,1.2,0.4,1.8c0,0.9-0.3,1.7-0.8,2.5
		C38.2,91.1,37.5,91.7,36.7,92L36.7,92z M49.4,103.3L49.4,103.3c-0.2,0.1-0.4,0.2-0.6,0.2h-0.2c-0.3-0.1-0.5-0.5-0.6-0.9v-0.1
		l-0.1-0.4c-0.1-0.4-0.3-0.9-0.4-1.3c-0.3-0.9-0.6-1.9-1-2.8c-0.2-0.7-0.5-1.3-0.7-1.9l-0.1-0.1c-0.6-1.4-1.2-2.8-1.8-4.1l-0.2-0.4
		l-0.4-0.8c-0.2-0.3-0.3-0.6-0.5-0.9l-0.2-0.4c-0.2-0.4-0.4-0.9-0.7-1.2c-0.2-0.3-0.5-0.8-0.8-1.2c-0.3-0.4-0.5-0.9-0.8-1.2v-0.1
		l-0.3-0.4c-0.4-0.5-0.8-1-1.2-1.5l-0.5-0.5c-0.3-0.4-0.7-0.8-1-1.2c-0.4-1-0.5-2.1-0.2-3.1c0.2-0.9,0.4-1.9,0.6-2.8l0.1-0.5
		c0.1-0.5,0.2-1.1,0.4-1.6c0.1-0.5,0.4-0.9,0.7-1.2h1.1c1.8,0.2,3.2,0.4,4.2,0.6l1.2,0.3c0.3,0.1,0.6,0.1,0.8,0.2l0.6,0.2l0,0
		c0,0,0.1,0,0.1,0.1c0.9,1.8,1.8,3.7,2.4,5.7c0.9,2.8,1.6,5.6,2.1,8.4c0.4,2.2,0.6,4.4,0.6,6.6c0,0.7,0,1.4-0.1,2.1
		c0,0.4,0,0.8-0.1,1.2s-0.2,1.1-0.3,1.6l0,0c-0.1,0.5-0.2,1-0.4,1.5c-0.2,0.4-0.4,0.8-0.7,1.2C50.1,102.8,49.8,103.1,49.4,103.3
		L49.4,103.3z M77.3,101.4c-0.2,0-15.6,0.3-24.6,0h-0.3l0,0c0.2-0.4,0.3-0.9,0.4-1.3c0.1-0.6,0.2-1.1,0.3-1.7
		c7.5,1.2,15,2.1,22.5,2.8c0.2,0,0.4,0,0.6,0c0.8,0.1,1.5-0.2,2-0.8c0.3-0.4,0.4-0.9,0.4-1.3l0.2,0.1l1.4,0.4
		c0.8,0.3,1.7,0.5,2.5,0.7C81,101.1,79.2,101.5,77.3,101.4L77.3,101.4z M90.2,7.8c0,0.2,0,0.4-0.1,0.6c-2.2,20.6-3.7,42.7-4.7,69.5
		c-0.2,6.3-0.5,12.6-0.7,18.9v2.1l0,0c0,0.2,0,0.4-0.1,0.5h-0.2c-0.7-0.1-1.3-0.3-2-0.5c0.5-0.1,1.2-0.5,1.2-1.8
		c0-2.4,0-4.7,0.1-7.1c0-4.1,0.1-8.4,0.2-12.6c0.1-4.2,0.3-8.5,0.5-12.8c0.1-2.9,0.2-5.9,0.4-8.8l0.3-5.4c0.2-3.8,0.3-7.6,0.5-11.4
		l0.1-3.1c0.1-3.2,0.3-6.4,0.3-9.6c0-2,0.1-4.1,0-6.2c0-1.3-0.2-2.7-0.5-4c-0.3-1.5-0.9-2.9-1.8-4.1C83,11.2,82,10.5,81,10.2
		c1.3-0.7,2.7-1.3,4-2c1.3-0.7,2.4-1.3,3.7-2L88.8,6c0.3-0.2,1-0.6,1.2-0.5c0,0,0.1,0,0.1,0.1h0C90.4,6.3,90.4,7.1,90.2,7.8
		L90.2,7.8z"/>
	<path class="st0" d="M20.7,87.6c0,1.2-1,2.1-2.2,2.1s-2.2-1-2.2-2.1c0-1.2,1-2.1,2.2-2.1S20.7,86.4,20.7,87.6"/>
	<path class="st0" d="M11.3,76.7h-0.1c-0.3,0-0.5,0-0.8,0h-0.1c-0.3,0-0.6,0.3-0.6,0.6v0.8c0,0.1,0.1,0.3,0.2,0.4l0.6,0.7l0,0
		c0.1,0.1,0.3,0.1,0.4,0l0.6-0.7v0c0.1-0.1,0.2-0.2,0.3-0.3l0.1-0.8C11.9,77.1,11.7,76.8,11.3,76.7L11.3,76.7z"/>
	<path class="st0" d="M11.6,82.7L11,82h0c-0.1-0.1-0.1-0.1-0.2-0.1c-0.1,0-0.2,0-0.2,0.1L10,82.7c-0.1,0.1-0.2,0.2-0.2,0.4v0.8
		c0,0.2,0,0.3,0.2,0.5c0.1,0.1,0.2,0.2,0.4,0.2h0.1c0.3,0,0.5,0,0.8,0h0.1c0.2,0,0.3-0.1,0.4-0.2c0.1-0.1,0.1-0.3,0.1-0.5V83
		C11.8,82.9,11.8,82.8,11.6,82.7z"/>
	<path class="st0" d="M14.6,79.7c-0.1-0.1-0.3-0.2-0.4-0.2h-0.8h0c-0.2,0-0.3,0.1-0.4,0.2l-0.6,0.6h0c-0.1,0.1-0.1,0.1-0.1,0.2
		c0,0.1,0,0.1,0.1,0.2l0.6,0.6h0c0.1,0.1,0.3,0.2,0.4,0.2l0.8,0.1h0c0.2,0,0.3,0,0.5-0.2c0.1-0.1,0.2-0.2,0.2-0.4V81
		c0-0.3,0-0.5,0-0.8v-0.1C14.8,79.9,14.7,79.8,14.6,79.7z"/>
	<path class="st0" d="M8.8,79.8c-0.1-0.1-0.3-0.2-0.4-0.2H7.5h0c-0.3,0-0.6,0.2-0.7,0.6v0.1c0,0.3,0,0.5,0,0.8v0.1
		c0,0.3,0.3,0.6,0.6,0.6l0.8-0.1c0.1,0,0.3-0.1,0.4-0.2l0.7-0.6v0c0.1-0.1,0.1-0.3,0-0.4L8.8,79.8z"/>
	<path class="st0" d="M35.1,85.5c-0.9,0-1.7,0.5-2,1.3c-0.3,0.8-0.1,1.7,0.5,2.3c0.6,0.6,1.5,0.8,2.4,0.5c0.8-0.3,1.3-1.1,1.3-2
		c0-0.6-0.2-1.1-0.6-1.5C36.2,85.7,35.7,85.5,35.1,85.5L35.1,85.5z"/>
	<path class="st0" d="M42.9,76c-0.7,0.1-1.3,0.7-1.3,1.4c0,0.7,0.6,1.3,1.3,1.4c0.3,0,0.6-0.1,0.8-0.3c0.4-0.3,0.6-0.7,0.6-1.1
		c0-0.4-0.1-0.7-0.4-1C43.6,76.2,43.3,76,42.9,76z"/>
	<path class="st0" d="M43.4,82.5c-0.2-0.1-0.3-0.1-0.5-0.1c-0.8,0-1.4,0.6-1.4,1.4c0,0.8,0.6,1.4,1.4,1.4h0.2
		c0.6-0.1,1.1-0.6,1.2-1.3C44.4,83.3,44,82.8,43.4,82.5L43.4,82.5z"/>
	<path class="st0" d="M46.1,79.2c-0.4,0-0.7,0.1-1,0.4c-0.3,0.3-0.4,0.6-0.4,1c0,0.1,0,0.2,0,0.4c0.2,0.7,0.9,1.1,1.6,1
		c0.7-0.1,1.2-0.7,1.2-1.4C47.5,79.9,46.9,79.2,46.1,79.2z"/>
	<path class="st0" d="M39.6,79.2c-0.7,0.1-1.3,0.7-1.3,1.4s0.6,1.3,1.3,1.4c0.4,0,0.8-0.1,1.1-0.4c0.3-0.3,0.5-0.7,0.5-1.1
		c0-0.4-0.2-0.8-0.5-1.1C40.4,79.3,40,79.2,39.6,79.2z"/>
</g>
</svg>
