<?xml version="1.0" encoding="iso-8859-1"?>
<!-- Generator: Adobe Illustrator 16.0.0, SVG Export Plug-In . SVG Version: 6.00 Build 0)  -->
<!DOCTYPE svg PUBLIC "-//W3C//DTD SVG 1.1//EN" "http://www.w3.org/Graphics/SVG/1.1/DTD/svg11.dtd">
<svg version="1.1" id="Capa_1" xmlns="http://www.w3.org/2000/svg" xmlns:xlink="http://www.w3.org/1999/xlink" x="0px" y="0px"
	 width="105.536px" height="105.536px" viewBox="0 0 105.536 105.536" style="enable-background:new 0 0 105.536 105.536;"
	 xml:space="preserve">
<g>
	<path d="M34.003,105.536V33.609l6.702,0.544l41.729,8.581v56.448l5.922,6.33L34.003,105.536z M35.003,34.693v69.843l51.049-0.022
		l-4.619-4.938V43.548l-40.87-8.408L35.003,34.693z M32.914,105.536l-15.734-0.024l7.889-7.011v-64.85h7.845V105.536z
		 M19.805,104.516l12.108,0.019V34.651h-5.845V98.95L19.805,104.516z M82.435,41.774l-41.643-9.022l-6.788-0.587V0l7.745,0.025
		l40.686,13.563V41.774z M35.003,31.248l5.938,0.517l40.493,8.769V14.309L41.51,1h-6.506V31.248z M32.914,32.206l-7.846-0.01V0
		h7.845L32.914,32.206L32.914,32.206z M26.067,31.198l5.845,0.007V1h-5.845V31.198z M37.742,88.745
		c0.07,0.019,0.141,0.039,0.211,0.063c0.197,0.074,0.381,0.236,0.378,0.459c-0.007,0.643-0.003,1.289-0.002,1.934
		c0,0.068,0,0.141,0.009,0.21c0.028,0.222,0.133,0.426,0.365,0.597c0.162,0.12,0.337,0.184,0.518,0.223
		c0.381,0.082,0.667-0.098,0.667-0.418c0-0.978,0-1.955,0-2.93c0-0.021,0-0.039,0-0.066c-0.082-0.022-0.154-0.039-0.226-0.063
		c-0.059-0.021-0.072-0.005-0.072,0.042c0.002,0.523,0.001,1.047,0.001,1.569c0,0.366,0,0.731,0,1.098
		c0,0.183-0.104,0.271-0.31,0.248c-0.088-0.009-0.184-0.032-0.273-0.067c-0.252-0.099-0.366-0.246-0.366-0.459
		c0-0.697-0.005-1.397,0.002-2.092c0.004-0.349-0.308-0.679-0.682-0.802c-0.31-0.103-0.622-0.181-0.933-0.271
		c-0.04-0.01-0.056-0.004-0.055,0.031c0.002,0.145,0.002,0.288,0,0.432c0,0.041,0.018,0.056,0.062,0.066
		C37.271,88.613,37.506,88.68,37.742,88.745z M37.741,93.326c0.447,0.128,0.893,0.249,1.339,0.374
		c0.056,0.017,0.113,0.036,0.169,0.058c0.168,0.066,0.292,0.188,0.327,0.325c0.012,0.045,0.015,0.089,0.015,0.132
		c0.001,0.447,0.001,0.895,0.001,1.342c0,0.012-0.005,0.023,0.001,0.035c0.01,0.016,0.025,0.041,0.04,0.045
		c0.082,0.025,0.164,0.047,0.255,0.072c0-0.02,0-0.029,0-0.041c0-0.562,0.005-1.123-0.003-1.688
		c-0.002-0.188-0.101-0.375-0.286-0.541c-0.139-0.125-0.299-0.203-0.469-0.25c-0.46-0.129-0.92-0.254-1.38-0.387
		c-0.27-0.076-0.467-0.24-0.461-0.513c0.01-0.464,0.003-0.933,0.003-1.399c0-0.013-0.001-0.022,0-0.035
		c0.002-0.029-0.012-0.047-0.051-0.059c-0.068-0.018-0.137-0.035-0.206-0.056c-0.047-0.017-0.059-0.003-0.059,0.034
		c0.001,0.554,0,1.104,0.001,1.658c0.001,0.146,0.035,0.295,0.132,0.445C37.259,93.111,37.479,93.251,37.741,93.326z M39.792,97.607
		c-0.179-0.295-0.358-0.588-0.537-0.881c-0.532-0.875-1.065-1.75-1.598-2.623c-0.028-0.045-0.061-0.092-0.099-0.131
		c-0.107-0.111-0.222-0.111-0.253,0c-0.012,0.043-0.014,0.09-0.014,0.137c-0.001,0.892-0.001,1.781,0,2.673
		c0,0.04-0.014,0.051-0.063,0.034c-0.08-0.024-0.16-0.045-0.246-0.068c0,0.178,0,0.35,0,0.527c0.082,0.021,0.16,0.047,0.238,0.064
		c0.054,0.014,0.071,0.032,0.07,0.079c-0.003,0.138-0.002,0.278,0,0.42c0,0.017,0.016,0.048,0.025,0.052
		c0.093,0.028,0.187,0.053,0.284,0.08c0.001-0.023,0.003-0.041,0.003-0.06c0-0.134,0.003-0.267-0.001-0.399
		c0-0.051,0.013-0.063,0.075-0.045c0.63,0.178,1.261,0.354,1.891,0.526c0.062,0.017,0.126,0.026,0.185,0.028
		c0.095,0.002,0.13-0.045,0.137-0.125C39.896,97.799,39.851,97.704,39.792,97.607z M39.275,97.389
		c-0.542-0.152-1.084-0.303-1.627-0.453c-0.011-0.004-0.023-0.008-0.04-0.015c0-0.78,0-1.562,0-2.341
		c0.006-0.001,0.012-0.001,0.019-0.001c0.012,0.019,0.027,0.032,0.038,0.051c0.55,0.9,1.1,1.802,1.649,2.703
		C39.352,97.395,39.344,97.407,39.275,97.389z"/>
</g>
<g>
</g>
<g>
</g>
<g>
</g>
<g>
</g>
<g>
</g>
<g>
</g>
<g>
</g>
<g>
</g>
<g>
</g>
<g>
</g>
<g>
</g>
<g>
</g>
<g>
</g>
<g>
</g>
<g>
</g>
</svg>
