<svg xmlns="http://www.w3.org/2000/svg" data-name="Layer 1" viewBox="0 0 64 64"><path d="M11.72056 19.98365a.49973.49973 0 0 0 .88477-.46485l-.92969-1.76953a.49973.49973 0 1 0-.88477.46485zM37.99205 13.33033h.0205a.50143.50143 0 0 0 .4795-.52051L38.412 10.81275a.50042.50042 0 0 0-1 .041l.08008 1.99708A.50017.50017 0 0 0 37.99205 13.33033zM8.44517 24.386l-1.22461-.707a.50458.50458 0 0 0-.37891-.05078l-1.60937.43066a.50183.50183 0 0 0-.35449.61231l.51758 1.93261a.50195.50195 0 0 0 .48339.3711.53848.53848 0 0 0 .12989-.0166L7.618 26.52662a.49859.49859 0 0 0 .30274-.2334l.707-1.22461A.49869.49869 0 0 0 8.44517 24.386zM7.159 25.61353l-.92676.249-.25879-.96679.92676-.248.6123.35352zM7.43052 22.60962a.50328.50328 0 0 0 .2334.30372l1.22559.709a.49266.49266 0 0 0 .25.06738.5245.5245 0 0 0 .1289-.0166.506.506 0 0 0 .30469-.2334l.707-1.22656a.5061.5061 0 0 0 .04981-.37988l-.43262-1.61231a.50571.50571 0 0 0-.61328-.35351L7.3524 20.385a.50058.50058 0 0 0-.35352.61231zM9.0604 20.96314l.25.92969-.35351.61328-.61328-.35449-.249-.92969zM37.73228 16.14283a1.7515 1.7515 0 0 0 1.51367 2.626 1.77775 1.77775 0 0 0 .45606-.05957 1.7507 1.7507 0 1 0-1.96973-2.5664zm.86621.5a.746.746 0 0 1 .45606-.34864.73781.73781 0 0 1 .19335-.02636.75.75 0 1 1-.72363.94336A.7424.7424 0 0 1 38.59849 16.64283zM45.1356 16.72193a1.74116 1.74116 0 0 0 .87207.23437 1.78321 1.78321 0 0 0 .45605-.05957 1.7518 1.7518 0 1 0-1.32812-.1748zm.68066-2.23926a.73754.73754 0 0 1 .19336-.02637.7524.7524 0 1 1-.19336.02637zM40.84849 14.24732a1.74116 1.74116 0 0 0 .87207.23437 1.78334 1.78334 0 0 0 .45606-.05957 1.75181 1.75181 0 1 0-1.32813-.1748zm.68164-2.24023a.732.732 0 0 1 .19336-.02637.75369.75369 0 1 1-.19336.02637zM43.08189 17.802a1.75053 1.75053 0 0 0 .45019 3.4414 1.77775 1.77775 0 0 0 .45606-.05957 1.75058 1.75058 0 0 0-.90625-3.38183zm.8291 1.041a.74107.74107 0 0 1 .34766.45606.74915.74915 0 1 1-.917-.53028.7414.7414 0 0 1 .19532-.02636A.75154.75154 0 0 1 43.911 18.843zM34.26255 42.24146h-2a.5.5 0 1 0 0 1h2a.5.5 0 0 0 0-1zM19.90513 27.48169a.49843.49843 0 0 0 .48731.38965.47862.47862 0 0 0 .11035-.01269.49927.49927 0 0 0 .377-.59766l-.43945-1.94922a.49964.49964 0 0 0-.97461.22071zM47.02232 27.85865a.47862.47862 0 0 0 .11035.01269.49841.49841 0 0 0 .4873-.38965l.43946-1.94921a.49964.49964 0 0 0-.97461-.22071L46.64537 27.261A.49925.49925 0 0 0 47.02232 27.85865zM12.58189 32.73853h1.667a.49965.49965 0 0 0 .35352-.14648l1-1a.49983.49983 0 0 0 0-.707l-1-1a.49965.49965 0 0 0-.35352-.14648h-1.667a.49971.49971 0 0 0-.5.5v2A.49971.49971 0 0 0 12.58189 32.73853zm.5-2h.96l.5.5-.5.5h-.96zM17.56236 31.59205l1 1a.49962.49962 0 0 0 .35351.14648h1.666a.49971.49971 0 0 0 .5-.5v-2a.49971.49971 0 0 0-.5-.5h-1.666a.49962.49962 0 0 0-.35351.14648l-1 1A.49983.49983 0 0 0 17.56236 31.59205zm1.56054-.85352h.959v1h-.959l-.5-.5zM16.9354 32.21412a.51466.51466 0 0 0-.707 0l-1 1.002a.49963.49963 0 0 0-.14648.35352v1.66894a.49971.49971 0 0 0 .5.5h2a.49971.49971 0 0 0 .5-.5V33.56959a.49964.49964 0 0 0-.14649-.35352zm.14649 2.52441h-1v-.96191l.5-.501.5.501zM16.22837 30.26392a.4998.4998 0 0 0 .707 0l1-1.00195a.49966.49966 0 0 0 .14649-.35352V27.23853a.49971.49971 0 0 0-.5-.5h-2a.49971.49971 0 0 0-.5.5v1.66992a.49965.49965 0 0 0 .14648.35352zm-.14648-2.52539h1v.96289l-.5.501-.5-.501zM24.26255 36.39185a3.5 3.5 0 1 0 3.5 3.5A3.50425 3.50425 0 0 0 24.26255 36.39185zm0 6a2.5 2.5 0 1 1 2.5-2.5A2.50232 2.50232 0 0 1 24.26255 42.39185z"/><circle cx="33.263" cy="36.242" r=".5"/><circle cx="31.263" cy="36.242" r=".5"/><circle cx="35.263" cy="36.242" r=".5"/><circle cx="34.263" cy="34.742" r=".5"/><circle cx="32.263" cy="34.742" r=".5"/><circle cx="30.263" cy="34.742" r=".5"/><circle cx="36.263" cy="34.742" r=".5"/><path d="M43.26255 36.39185a3.5 3.5 0 1 0 3.5 3.5A3.50425 3.50425 0 0 0 43.26255 36.39185zm0 6a2.5 2.5 0 1 1 2.5-2.5A2.50232 2.50232 0 0 1 43.26255 42.39185zM47.26255 29.99146a1.75 1.75 0 1 0 1.75 1.75A1.75213 1.75213 0 0 0 47.26255 29.99146zm0 2.5a.75.75 0 1 1 .75-.75A.75145.75145 0 0 1 47.26255 32.49146zM54.26255 29.99146a1.75 1.75 0 1 0 1.75 1.75A1.75213 1.75213 0 0 0 54.26255 29.99146zm0 2.5a.75.75 0 1 1 .75-.75A.75145.75145 0 0 1 54.26255 32.49146zM50.76255 29.99146a1.75 1.75 0 1 0-1.75-1.75A1.75212 1.75212 0 0 0 50.76255 29.99146zm0-2.5a.75.75 0 1 1-.75.75A.75144.75144 0 0 1 50.76255 27.49146zM50.76255 33.49146a1.75 1.75 0 1 0 1.75 1.75A1.75213 1.75213 0 0 0 50.76255 33.49146zm0 2.5a.75.75 0 1 1 .75-.75A.75145.75145 0 0 1 50.76255 35.99146z"/><path d="M58.077,29.33619l-1.64649-4.25293c-.00409-.01056-.01172-.019-.016-.02942-.00476-.01148-.00757-.02271-.01325-.03406A61.75377,61.75377,0,0,0,49.076,11.89283L46.38267,8.20826a1.51973,1.51973,0,0,0-1.332-.6084l-.54834.0459-.33838-1.2627a.50308.50308,0,0,0-.38379-.36035l-.30566-.0625a9.80117,9.80117,0,0,0-6.05567.68457.49987.49987,0,0,0-.27539.585l.31146,1.1601c-1.288.17035-2.5166.35412-3.71344.56463l-.00329-.00012c-.0246.00421-.04968.00983-.07428.014-.60846.10626-1.21625.21319-1.81732.32776-.6377.11035-1.27637.23242-1.88672.37109-.6377.12012-1.27637.2627-1.89356.41211-.51593.11218-1.03643.23688-1.55621.36-.108.02575-.21667.04651-.32465.07257v.002c-.03808.00684-.07519.01367-.09277.01856-.02978.00732-.05884.01654-.08856.02392-.7915.19245-1.58331.39441-2.36945.60791-1.58691.41895-3.23047.90332-4.87988,1.43653-.81543.252-1.62109.52343-2.41016.7998l-.008.00275-.00665.00213-.01563.00556c-.35089.1098-.69995.22955-1.02148.35284-.16211.05469-.31348.10938-.51856.18945l-.09472.03223c-.26758.09277-.52442.18457-.76758.28223-1.05207.38171-2.18524.82361-3.50513,1.36291l-.30933-1.15393a.51438.51438,0,0,0-.53125-.36914,9.79123,9.79123,0,0,0-5.58691,2.43555l-.2334.207a.50009.50009,0,0,0-.15137.50293l.3393,1.26886-.49945.236a1.525,1.525,0,0,0-.84863,1.18653l-.49024,4.54A61.86685,61.86685,0,0,0,3.85923,47.20728a6.51114,6.51114,0,0,0,1.44635,2.6554c-.01874.62573-.043,1.25085-.043,1.87878A6.453,6.453,0,0,0,9.261,57.73108l.00805.004a6.42914,6.42914,0,0,0,2.48273.50641,6.61673,6.61673,0,0,0,.67774-.03418,2.43816,2.43816,0,0,0,2.168-1.9541,26.48556,26.48556,0,0,1,3.95215-9.541l.23828-.35742A2.49582,2.49582,0,0,1,20.868,45.24146h1.03766a5.80486,5.80486,0,0,0,4.71375,0H40.90568a5.80486,5.80486,0,0,0,4.71375,0h1.03765a2.4958,2.4958,0,0,1,2.08008,1.11328l.44824.67188a24.60765,24.60765,0,0,1,3.668,8.85644,2.95633,2.95633,0,0,0,2.8916,2.3584h.01758a6.5,6.5,0,0,0,6.5-6.5A61.81829,61.81829,0,0,0,58.077,29.33619Zm-3.31446-5.54663c.04187.09484.08472.18939.1261.28442l-.1261-.02295ZM43.27427,6.94068l.21521.78979-.23669.01978c-1.53894.12286-3.15479.29785-4.79779.50928l-.23346-.87061A8.78129,8.78129,0,0,1,43.27427,6.94068ZM38.04985,9.31751c.01483.00134.02575.01379.04083.01379a.38667.38667,0,0,0,.0664-.00488c1.94727-.26172,3.84864-.46973,5.65235-.61719l.35937-.02929.0149-.00458.93725-.07843a.5865.5865,0,0,1,.458.206l2.69043,3.67969a60.95629,60.95629,0,0,1,5.726,9.5763,9.79245,9.79245,0,0,0-5.81488-.81067.50011.50011,0,0,0-.418.49316v1.2002q-1.78482-.22806-3.57513-.39643c-.533-.05078-1.06622-.08917-1.59943-.13214l-.03332-.00275c-.517-.4245-1.02643-.80932-1.55481-1.1679l-.35352-.23535c-.57519-.39747-1.15918-.76563-1.7334-1.0918a4.48749,4.48749,0,0,1-2.24023-3.72656l-.26379-6.64521C36.946,9.46564,37.487,9.38917,38.04985,9.31751ZM53.76133,23.86945l-.2312-.042c-.17157-.03119-.34393-.05152-.51562-.08191q-1.29044-.22157-2.62482-.41687c-.5426-.08277-1.08405-.18384-1.62714-.25849v-.89508a8.7779,8.7779,0,0,1,4.99707.874Zm-15.5664-.71863c.34692.0141.6936.0343,1.04034.05164q1.74078.087,3.47614.22967c.22467.0185.44934.036.67395.05585L41.8983,31.09791a1.50022,1.50022,0,0,1-1.47168,1.21191H27.09849a1.5002,1.5002,0,0,1-1.47168-1.21191L24.13975,23.488c.22461-.01984.44928-.03735.674-.05585q1.73511-.14237,3.47614-.22967c.34674-.01734.69342-.03754,1.04034-.05164Q33.75914,22.97175,38.19493,23.15082Zm-3.60859-1.09338a4.79388,4.79388,0,0,1,5.49848-.22321l.3454.2309c.08026.06213.15081.13617.22735.203-.22217-.01391-.4447-.01922-.66693-.0318l-.06775-.0039c-.73474-.04132-1.46924-.07782-2.20422-.10431q-.488-.01749-.97589-.02979c-.52027-.01391-1.04065-.02081-1.56116-.02746C34.98313,22.0683,34.78477,22.0589,34.58634,22.05744Zm-.23339-12.19c.35015-.05963.70446-.11676,1.06042-.17261l.25934,6.53393A5.48524,5.48524,0,0,0,37.47453,20.085a5.83869,5.83869,0,0,0-1.4903.18963,5.77491,5.77491,0,0,0-2.85895,1.77857c-.26062.00152-.52117.01428-.78179.01764-.52051.00665-1.0409.01355-1.56116.02746q-.48807.01309-.97589.02979c-.735.02649-1.46949.063-2.20423.10431l-.06775.0039c-.38586.02179-.77178.04126-1.15747.06714-.36737.02454-.73407.0539-1.101.082l7.77759-2.08545a2.52228,2.52228,0,0,0,1.84765-2.58691Zm-17.69684,4.4834c2.91687-1.0033,5.94958-1.89277,8.99426-2.67457.35413-.08862.70691-.17327,1.06128-.25732q1.48059-.3533,2.9657-.66736c.095-.01959.18634-.04254.282-.06146,1.02936-.21429,2.05542-.40949,3.07611-.59277.109-.01947.218-.0398.327-.059l.54071,7.74121a1.51728,1.51728,0,0,1-1.11035,1.55468l-12.8711,3.45118a1.52843,1.52843,0,0,1-.15918.027V21.74146a.5001.5001,0,0,0-.418-.49316,9.95006,9.95006,0,0,0-1.59692-.13379L14.77427,15.0149C15.3983,14.78736,16.02427,14.56959,16.65611,14.35084Zm2.10644,7.82421v.89508c-.54309.07465-1.08453.17572-1.62713.25849q-1.33412.19573-2.62482.41687c-.17169.03039-.34406.05072-.51563.08191l-.23242.04236v-.81971l.00293-.001a8.79134,8.79134,0,0,1,3.65833-.9289.482.482,0,0,0,.0849-.00348A8.83778,8.83778,0,0,1,18.76255,22.17505Zm-4.93023-6.81121,2.83374,5.81237c-.30725.03308-.61249.07978-.91529.142l-2.93268-5.571Q13.33894,15.54628,13.83232,15.36384ZM4.64341,17.29126A8.7886,8.7886,0,0,1,9.243,15.15357l.23236.86645c-1.501.63227-2.98382,1.29023-4.40423,1.9646l-.06.02839c-.05194.02429-.107.04791-.15875.0722l-.21192-.792ZM4.826,46.94849A60.842,60.842,0,0,1,3.0897,24.59205L3.579,20.05689a.51958.51958,0,0,1,.291-.39844l1.38935-.65631c1.59881-.7514,3.27905-1.49206,5.00812-2.20209a.49358.49358,0,0,0,.13537-.08722c.5232-.21563,1.01087-.41253,1.479-.59875l2.87274,5.45734a9.95188,9.95188,0,0,0-1.33051.53534.48649.48649,0,0,0-.08142-.07135.49714.49714,0,0,0-.38183-.04981l-1.61036.44043a.498.498,0,0,0-.2998.23047l-.71,1.21973a.501.501,0,0,0,.17871.68359l.65228.38214a1.45244,1.45244,0,0,0-.07709.1413l-.2633.68017-.75916-.438a.50041.50041,0,0,0-.68359.1836l-.69922,1.21972a.50322.50322,0,0,0-.0498.377l.42968,1.62012a.49145.49145,0,0,0,.47229.36914l-.09338.24121A61.77752,61.77752,0,0,0,5.36961,48.26856,5.47018,5.47018,0,0,1,4.826,46.94849Zm7.93652-23.76782V24.051l-.53808.09766a1.46175,1.46175,0,0,0-.27625.08862l-.49328-.28882.35644-.61133.92578-.2539ZM10.46592,26.707l-.48553,1.25427-.07428.02038L9.659,27.0481l.34765-.60644Zm-.9671,30.04968a5.508,5.508,0,0,1-3.23627-5.01526,60.84182,60.84182,0,0,1,4.11719-22.04395l1.64648-4.25292a.50736.50736,0,0,1,.1449-.19935l.01514-.01043a.49637.49637,0,0,1,.21789-.10077l1.31543-.23944c.393-.07135.80439-.13422,1.20551-.20209.76477-.13373,1.53088-.24774,2.29675-.36511.69727-.10266,1.39459-.20587,2.10419-.29688a.48824.48824,0,0,0,.11316-.03625c.19336-.02558.38751-.04309.581-.06763.35028-.04449.70111-.07794,1.05158-.11908L22.535,30.27173a4.47777,4.47777,0,0,1-1.19629,4.17676c-.49639.4964-.97039,1.0188-1.433,1.55322-.08911.09967-.17511.20154-.25726.30713a29.94065,29.94065,0,0,0-5.5705,9.89453L11.22837,54.7649A3.48892,3.48892,0,0,1,9.49882,56.75672Zm8.45709-10.95667-.23828.35743a27.473,27.473,0,0,0-4.10058,9.90039,1.44585,1.44585,0,0,1-1.28711,1.15527,5.70562,5.70562,0,0,1-1.60157-.0744,4.47055,4.47055,0,0,0,1.44922-2.05841l2.84961-8.56055a29.14294,29.14294,0,0,1,2.85156-6.085c.17542-.28394.36463-.55713.549-.83423-.00482.09717-.01477.19293-.01477.29126a5.83256,5.83256,0,0,0,2.01233,4.40448A3.47636,3.47636,0,0,0,17.95591,45.80005Zm8.32282-1.51123a4.73543,4.73543,0,0,1-4.03223.00006,4.84963,4.84963,0,1,1,4.03223-.00006Zm1.88147-.04736A5.83583,5.83583,0,0,0,22.77207,34.241a5.47266,5.47266,0,0,0,.73755-4.19l-1.4389-6.35657c.35565-.03839.71088-.08587,1.06671-.12079l1.507,7.71564a2.50377,2.50377,0,0,0,2.4541,2.02051H40.42662a2.50379,2.50379,0,0,0,2.4541-2.02051l1.50689-7.71521c.35578.03485.711.08234,1.06665.12073L44.01548,30.051a5.47274,5.47274,0,0,0,.73755,4.19,5.83929,5.83929,0,0,0-5.38812,10.00043Zm17.11853.04736a4.73543,4.73543,0,0,1-4.03223.00006,4.84963,4.84963,0,1,1,4.03223-.00006ZM55.76255,57.24146h-.01562a1.95325,1.95325,0,0,1-1.91309-1.55371,25.57807,25.57807,0,0,0-3.8164-9.21582l-.44825-.67188a3.47634,3.47634,0,0,0-2.46936-1.50372,5.83253,5.83253,0,0,0,2.01233-4.40448c0-.09869-.01-.19488-.01483-.29236.18469.27741.37421.551.55.83533a29.18807,29.18807,0,0,1,2.85058,6.085l2.84961,8.55957a4.46979,4.46979,0,0,0,1.45118,2.0611A5.55058,5.55058,0,0,1,55.76255,57.24146ZM59.64634,55.636a5.48346,5.48346,0,0,1-1.63428,1.11249,3.48736,3.48736,0,0,1-1.71533-1.98456l-2.84961-8.56055a29.896,29.896,0,0,0-5.57092-9.89514c-.08191-.10522-.16772-.20678-.25647-.30615-.46271-.53455-.93683-1.05707-1.43335-1.55359a4.47779,4.47779,0,0,1-1.19629-4.17676l1.4632-6.4638c.38855.04559.77746.08227,1.16577.132.15546.01983.31152.03375.46692.05432a.48762.48762,0,0,0,.1131.03625c.70556.09046,1.39892.19318,2.09234.29523.77185.1181,1.54389.233,2.31446.36774.40124.06793.81286.13079,1.206.20221l1.311.23834a.49659.49659,0,0,1,.227.10577.50816.50816,0,0,1,.14289.19641l.00512.01129h-.002l.78027,2.02051c.00354.00916.01117.0149.0152.02368l.85395,2.20581a60.84181,60.84181,0,0,1,4.11718,22.04395A5.46614,5.46614,0,0,1,59.64634,55.636Z"/></svg>