<?xml version="1.0" encoding="UTF-8"?>
<svg width="700pt" height="700pt" version="1.1" viewBox="0 0 700 700" xmlns="http://www.w3.org/2000/svg" xmlns:xlink="http://www.w3.org/1999/xlink">
 <defs>
  <symbol id="v" overflow="visible">
   <path d="m18.766-1.125c-0.96875 0.5-1.9805 0.875-3.0312 1.125-1.043 0.25781-2.1367 0.39062-3.2812 0.39062-3.3984 0-6.0898-0.94531-8.0781-2.8438-1.9922-1.9062-2.9844-4.4844-2.9844-7.7344 0-3.2578 0.99219-5.8359 2.9844-7.7344 1.9883-1.9062 4.6797-2.8594 8.0781-2.8594 1.1445 0 2.2383 0.13281 3.2812 0.39062 1.0508 0.25 2.0625 0.625 3.0312 1.125v4.2188c-0.98047-0.65625-1.9453-1.1406-2.8906-1.4531-0.94922-0.3125-1.9492-0.46875-3-0.46875-1.875 0-3.3516 0.60547-4.4219 1.8125-1.0742 1.1992-1.6094 2.8555-1.6094 4.9688 0 2.1055 0.53516 3.7617 1.6094 4.9688 1.0703 1.1992 2.5469 1.7969 4.4219 1.7969 1.0508 0 2.0508-0.14844 3-0.45312 0.94531-0.3125 1.9102-0.80078 2.8906-1.4688z"/>
  </symbol>
  <symbol id="d" overflow="visible">
   <path d="m13.734-11.141c-0.4375-0.19531-0.87109-0.34375-1.2969-0.4375-0.41797-0.10156-0.83984-0.15625-1.2656-0.15625-1.2617 0-2.2305 0.40625-2.9062 1.2188-0.67969 0.80469-1.0156 1.9531-1.0156 3.4531v7.0625h-4.8906v-15.312h4.8906v2.5156c0.625-1 1.3438-1.7266 2.1562-2.1875 0.82031-0.46875 1.8008-0.70312 2.9375-0.70312 0.16406 0 0.34375 0.011719 0.53125 0.03125 0.19531 0.011719 0.47656 0.039062 0.84375 0.078125z"/>
  </symbol>
  <symbol id="a" overflow="visible">
   <path d="m17.641-7.7031v1.4062h-11.453c0.125 1.1484 0.53906 2.0078 1.25 2.5781 0.70703 0.57422 1.7031 0.85938 2.9844 0.85938 1.0312 0 2.082-0.14844 3.1562-0.45312 1.082-0.3125 2.1914-0.77344 3.3281-1.3906v3.7656c-1.1562 0.4375-2.3125 0.76562-3.4688 0.98438-1.1562 0.22656-2.3125 0.34375-3.4688 0.34375-2.7734 0-4.9297-0.70312-6.4688-2.1094-1.5312-1.4062-2.2969-3.3789-2.2969-5.9219 0-2.5 0.75391-4.4609 2.2656-5.8906 1.5078-1.4375 3.582-2.1562 6.2188-2.1562 2.4062 0 4.332 0.73047 5.7812 2.1875 1.4453 1.4492 2.1719 3.3828 2.1719 5.7969zm-5.0312-1.625c0-0.92578-0.27344-1.6719-0.8125-2.2344-0.54297-0.57031-1.25-0.85938-2.125-0.85938-0.94922 0-1.7188 0.26562-2.3125 0.79688s-0.96484 1.2969-1.1094 2.2969z"/>
  </symbol>
  <symbol id="h" overflow="visible">
   <path d="m9.2188-6.8906c-1.0234 0-1.793 0.17188-2.3125 0.51562-0.51172 0.34375-0.76562 0.85547-0.76562 1.5312 0 0.625 0.20703 1.1172 0.625 1.4688 0.41406 0.34375 0.98828 0.51562 1.7188 0.51562 0.92578 0 1.7031-0.32812 2.3281-0.98438 0.63281-0.66406 0.95312-1.4922 0.95312-2.4844v-0.5625zm7.4688-1.8438v8.7344h-4.9219v-2.2656c-0.65625 0.92969-1.3984 1.6055-2.2188 2.0312-0.82422 0.41406-1.8242 0.625-3 0.625-1.5859 0-2.8711-0.45703-3.8594-1.375-0.99219-0.92578-1.4844-2.1289-1.4844-3.6094 0-1.7891 0.61328-3.1016 1.8438-3.9375 1.2383-0.84375 3.1797-1.2656 5.8281-1.2656h2.8906v-0.39062c0-0.76953-0.30859-1.332-0.92188-1.6875-0.61719-0.36328-1.5703-0.54688-2.8594-0.54688-1.0547 0-2.0312 0.10547-2.9375 0.3125-0.89844 0.21094-1.7305 0.52344-2.5 0.9375v-3.7344c1.0391-0.25 2.0859-0.44141 3.1406-0.57812 1.0625-0.13281 2.125-0.20312 3.1875-0.20312 2.7578 0 4.75 0.54688 5.9688 1.6406 1.2266 1.0859 1.8438 2.8555 1.8438 5.3125z"/>
  </symbol>
  <symbol id="c" overflow="visible">
   <path d="m7.7031-19.656v4.3438h5.0469v3.5h-5.0469v6.5c0 0.71094 0.14062 1.1875 0.42188 1.4375s0.83594 0.375 1.6719 0.375h2.5156v3.5h-4.1875c-1.9375 0-3.3125-0.39844-4.125-1.2031-0.80469-0.8125-1.2031-2.1797-1.2031-4.1094v-6.5h-2.4219v-3.5h2.4219v-4.3438z"/>
  </symbol>
  <symbol id="n" overflow="visible">
   <path d="m12.766-13.078v-8.2031h4.9219v21.281h-4.9219v-2.2188c-0.66797 0.90625-1.4062 1.5703-2.2188 1.9844s-1.7578 0.625-2.8281 0.625c-1.8867 0-3.4336-0.75-4.6406-2.25-1.2109-1.5-1.8125-3.4258-1.8125-5.7812 0-2.3633 0.60156-4.2969 1.8125-5.7969 1.207-1.5 2.7539-2.25 4.6406-2.25 1.0625 0 2 0.21484 2.8125 0.64062 0.82031 0.42969 1.5664 1.0859 2.2344 1.9688zm-3.2188 9.9219c1.0391 0 1.8359-0.37891 2.3906-1.1406 0.55078-0.76953 0.82812-1.8828 0.82812-3.3438 0-1.457-0.27734-2.5664-0.82812-3.3281-0.55469-0.76953-1.3516-1.1562-2.3906-1.1562-1.043 0-1.8398 0.38672-2.3906 1.1562-0.55469 0.76172-0.82812 1.8711-0.82812 3.3281 0 1.4609 0.27344 2.5742 0.82812 3.3438 0.55078 0.76172 1.3477 1.1406 2.3906 1.1406z"/>
  </symbol>
  <symbol id="m" overflow="visible">
   <path d="m10.5-3.1562c1.0508 0 1.8516-0.37891 2.4062-1.1406 0.55078-0.76953 0.82812-1.8828 0.82812-3.3438 0-1.457-0.27734-2.5664-0.82812-3.3281-0.55469-0.76953-1.3555-1.1562-2.4062-1.1562-1.0547 0-1.8594 0.38672-2.4219 1.1562-0.55469 0.77344-0.82812 1.8828-0.82812 3.3281 0 1.4492 0.27344 2.5586 0.82812 3.3281 0.5625 0.77344 1.3672 1.1562 2.4219 1.1562zm-3.25-9.9219c0.67578-0.88281 1.4219-1.5391 2.2344-1.9688 0.82031-0.42578 1.7656-0.64062 2.8281-0.64062 1.8945 0 3.4453 0.75 4.6562 2.25 1.207 1.5 1.8125 3.4336 1.8125 5.7969 0 2.3555-0.60547 4.2812-1.8125 5.7812-1.2109 1.5-2.7617 2.25-4.6562 2.25-1.0625 0-2.0078-0.21094-2.8281-0.625-0.8125-0.42578-1.5586-1.0859-2.2344-1.9844v2.2188h-4.8906v-21.281h4.8906z"/>
  </symbol>
  <symbol id="l" overflow="visible">
   <path d="m0.34375-15.312h4.8906l4.125 10.391 3.5-10.391h4.8906l-6.4375 16.766c-0.64844 1.6953-1.4023 2.8828-2.2656 3.5625-0.86719 0.6875-2 1.0312-3.4062 1.0312h-2.8438v-3.2188h1.5312c0.83203 0 1.4375-0.13672 1.8125-0.40625 0.38281-0.26172 0.67969-0.73047 0.89062-1.4062l0.14062-0.42188z"/>
  </symbol>
  <symbol id="g" overflow="visible">
   <path d="m16.781-19.766v4.3125c-1.125-0.5-2.2266-0.875-3.2969-1.125-1.0625-0.25781-2.0703-0.39062-3.0156-0.39062-1.25 0-2.1797 0.17969-2.7812 0.53125-0.60547 0.34375-0.90625 0.88281-0.90625 1.6094 0 0.54297 0.20312 0.96875 0.60938 1.2812 0.40625 0.30469 1.1406 0.5625 2.2031 0.78125l2.25 0.45312c2.2695 0.44922 3.8789 1.1406 4.8281 2.0781 0.95703 0.92969 1.4375 2.2461 1.4375 3.9531 0 2.25-0.66797 3.9297-2 5.0312-1.3359 1.0938-3.3711 1.6406-6.1094 1.6406-1.3047 0-2.6055-0.125-3.9062-0.375-1.3047-0.23828-2.6055-0.59766-3.9062-1.0781v-4.4531c1.3008 0.69922 2.5625 1.2266 3.7812 1.5781 1.2188 0.34375 2.3906 0.51562 3.5156 0.51562 1.1562 0 2.0352-0.1875 2.6406-0.5625 0.61328-0.38281 0.92188-0.9375 0.92188-1.6562 0-0.63281-0.21094-1.125-0.625-1.4688-0.41797-0.34375-1.2461-0.65625-2.4844-0.9375l-2.0312-0.4375c-2.043-0.4375-3.5391-1.1328-4.4844-2.0938-0.9375-0.95703-1.4062-2.25-1.4062-3.875 0-2.0312 0.65625-3.5938 1.9688-4.6875s3.1953-1.6406 5.6562-1.6406c1.125 0 2.2734 0.085938 3.4531 0.25 1.1875 0.16797 2.4141 0.42188 3.6875 0.76562z"/>
  </symbol>
  <symbol id="f" overflow="visible">
   <path d="m2.3594-15.312h4.8906v15.312h-4.8906zm0-5.9688h4.8906v4h-4.8906z"/>
  </symbol>
  <symbol id="k" overflow="visible">
   <path d="m16.547-12.766c0.61328-0.94531 1.3477-1.6719 2.2031-2.1719 0.85156-0.5 1.7891-0.75 2.8125-0.75 1.7578 0 3.0977 0.54688 4.0156 1.6406 0.92578 1.0859 1.3906 2.6562 1.3906 4.7188v9.3281h-4.9219v-7.9844-0.35938c0.007813-0.13281 0.015625-0.32031 0.015625-0.5625 0-1.082-0.16406-1.8633-0.48438-2.3438-0.3125-0.48828-0.82422-0.73438-1.5312-0.73438-0.92969 0-1.6484 0.38672-2.1562 1.1562-0.51172 0.76172-0.77344 1.8672-0.78125 3.3125v7.5156h-4.9219v-7.9844c0-1.6953-0.14844-2.7852-0.4375-3.2656-0.29297-0.48828-0.8125-0.73438-1.5625-0.73438-0.9375 0-1.6641 0.38672-2.1719 1.1562-0.51172 0.76172-0.76562 1.8594-0.76562 3.2969v7.5312h-4.9219v-15.312h4.9219v2.2344c0.60156-0.86328 1.2891-1.5156 2.0625-1.9531 0.78125-0.4375 1.6406-0.65625 2.5781-0.65625 1.0625 0 2 0.25781 2.8125 0.76562 0.8125 0.51172 1.4258 1.2305 1.8438 2.1562z"/>
  </symbol>
  <symbol id="b" overflow="visible">
   <path d="m9.6406-12.188c-1.0859 0-1.9141 0.39062-2.4844 1.1719-0.57422 0.78125-0.85938 1.9062-0.85938 3.375s0.28516 2.5938 0.85938 3.375c0.57031 0.77344 1.3984 1.1562 2.4844 1.1562 1.0625 0 1.875-0.38281 2.4375-1.1562 0.57031-0.78125 0.85938-1.9062 0.85938-3.375s-0.28906-2.5938-0.85938-3.375c-0.5625-0.78125-1.375-1.1719-2.4375-1.1719zm0-3.5c2.6328 0 4.6914 0.71484 6.1719 2.1406 1.4766 1.418 2.2188 3.3867 2.2188 5.9062 0 2.5117-0.74219 4.4805-2.2188 5.9062-1.4805 1.418-3.5391 2.125-6.1719 2.125-2.6484 0-4.7148-0.70703-6.2031-2.125-1.4922-1.4258-2.2344-3.3945-2.2344-5.9062 0-2.5195 0.74219-4.4883 2.2344-5.9062 1.4883-1.4258 3.5547-2.1406 6.2031-2.1406z"/>
  </symbol>
  <symbol id="j" overflow="visible">
   <path d="m17.75-9.3281v9.3281h-4.9219v-7.1406c0-1.3203-0.03125-2.2344-0.09375-2.7344s-0.16797-0.86719-0.3125-1.1094c-0.1875-0.3125-0.44922-0.55469-0.78125-0.73438-0.32422-0.17578-0.69531-0.26562-1.1094-0.26562-1.0234 0-1.8242 0.39844-2.4062 1.1875-0.58594 0.78125-0.875 1.8711-0.875 3.2656v7.5312h-4.8906v-15.312h4.8906v2.2344c0.73828-0.88281 1.5195-1.5391 2.3438-1.9688 0.83203-0.42578 1.75-0.64062 2.75-0.64062 1.7695 0 3.1133 0.54688 4.0312 1.6406 0.91406 1.0859 1.375 2.6562 1.375 4.7188z"/>
  </symbol>
  <symbol id="e" overflow="visible">
   <path d="m14.719-14.828v3.9844c-0.65625-0.45703-1.3242-0.79688-2-1.0156-0.66797-0.21875-1.3594-0.32812-2.0781-0.32812-1.3672 0-2.4336 0.40234-3.2031 1.2031-0.76172 0.79297-1.1406 1.9062-1.1406 3.3438 0 1.4297 0.37891 2.543 1.1406 3.3438 0.76953 0.79297 1.8359 1.1875 3.2031 1.1875 0.75781 0 1.4844-0.10938 2.1719-0.32812 0.6875-0.22656 1.3203-0.56641 1.9062-1.0156v4c-0.76172 0.28125-1.5391 0.48828-2.3281 0.625-0.78125 0.14453-1.5742 0.21875-2.375 0.21875-2.7617 0-4.9219-0.70703-6.4844-2.125-1.5547-1.4141-2.3281-3.3828-2.3281-5.9062 0-2.5312 0.77344-4.5039 2.3281-5.9219 1.5625-1.4141 3.7227-2.125 6.4844-2.125 0.80078 0 1.5938 0.074219 2.375 0.21875 0.78125 0.13672 1.5547 0.35156 2.3281 0.64062z"/>
  </symbol>
  <symbol id="u" overflow="visible">
   <path d="m0.42188-15.312h4.8906l3.8281 10.578 3.7969-10.578h4.9062l-6.0312 15.312h-5.375z"/>
  </symbol>
  <symbol id="i" overflow="visible">
   <path d="m2.3594-21.281h4.8906v21.281h-4.8906z"/>
  </symbol>
  <symbol id="t" overflow="visible">
   <path d="m12.422-21.281v3.2188h-2.7031c-0.6875 0-1.1719 0.125-1.4531 0.375-0.27344 0.25-0.40625 0.6875-0.40625 1.3125v1.0625h4.1875v3.5h-4.1875v11.812h-4.8906v-11.812h-2.4375v-3.5h2.4375v-1.0625c0-1.6641 0.46094-2.8984 1.3906-3.7031 0.92578-0.80078 2.3672-1.2031 4.3281-1.2031z"/>
  </symbol>
  <symbol id="s" overflow="visible">
   <path d="m17.75-9.3281v9.3281h-4.9219v-7.1094c0-1.3438-0.03125-2.2656-0.09375-2.7656s-0.16797-0.86719-0.3125-1.1094c-0.1875-0.3125-0.44922-0.55469-0.78125-0.73438-0.32422-0.17578-0.69531-0.26562-1.1094-0.26562-1.0234 0-1.8242 0.39844-2.4062 1.1875-0.58594 0.78125-0.875 1.8711-0.875 3.2656v7.5312h-4.8906v-21.281h4.8906v8.2031c0.73828-0.88281 1.5195-1.5391 2.3438-1.9688 0.83203-0.42578 1.75-0.64062 2.75-0.64062 1.7695 0 3.1133 0.54688 4.0312 1.6406 0.91406 1.0859 1.375 2.6562 1.375 4.7188z"/>
  </symbol>
  <symbol id="r" overflow="visible">
   <path d="m2.5781-20.406h5.875l7.4219 14v-14h4.9844v20.406h-5.875l-7.4219-14v14h-4.9844z"/>
  </symbol>
  <symbol id="q" overflow="visible">
   <path d="m2.1875-5.9688v-9.3438h4.9219v1.5312c0 0.83594-0.007813 1.875-0.015625 3.125-0.011719 1.25-0.015625 2.0859-0.015625 2.5 0 1.2422 0.03125 2.1328 0.09375 2.6719 0.070313 0.54297 0.17969 0.93359 0.32812 1.1719 0.20703 0.32422 0.47266 0.57422 0.79688 0.75 0.32031 0.16797 0.69141 0.25 1.1094 0.25 1.0195 0 1.8203-0.39062 2.4062-1.1719 0.58203-0.78125 0.875-1.8672 0.875-3.2656v-7.5625h4.8906v15.312h-4.8906v-2.2188c-0.74219 0.89844-1.5234 1.5586-2.3438 1.9844-0.82422 0.41406-1.7344 0.625-2.7344 0.625-1.7617 0-3.1055-0.53906-4.0312-1.625-0.92969-1.082-1.3906-2.6602-1.3906-4.7344z"/>
  </symbol>
  <symbol id="p" overflow="visible">
   <path d="m2.5781-20.406h8.7344c2.5938 0 4.582 0.57812 5.9688 1.7344 1.3945 1.1484 2.0938 2.7891 2.0938 4.9219 0 2.1367-0.69922 3.7812-2.0938 4.9375-1.3867 1.1562-3.375 1.7344-5.9688 1.7344h-3.4844v7.0781h-5.25zm5.25 3.8125v5.7031h2.9219c1.0195 0 1.8047-0.25 2.3594-0.75 0.5625-0.5 0.84375-1.2031 0.84375-2.1094 0-0.91406-0.28125-1.6172-0.84375-2.1094-0.55469-0.48828-1.3398-0.73438-2.3594-0.73438z"/>
  </symbol>
  <symbol id="o" overflow="visible">
   <path d="m2.3594-15.312h4.8906v15.031c0 2.0508-0.49609 3.6172-1.4844 4.7031-0.98047 1.082-2.4062 1.625-4.2812 1.625h-2.4219v-3.2188h0.85938c0.92578 0 1.5625-0.21094 1.9062-0.625 0.35156-0.41797 0.53125-1.2461 0.53125-2.4844zm0-5.9688h4.8906v4h-4.8906z"/>
  </symbol>
 </defs>
 <g>
  <path d="m588.5 268.8c-1.9609-7.6172-3.8086-15.23-5.6016-22.848-4.8828-22.43-11.438-44.461-19.598-65.914-2.9102-7.1133-6.3281-14.504-10.527-22.398-0.67188-1.3438-1.2891-2.7422-1.9609-4.1445-2.0898-5.4883-5.4062-10.43-9.6875-14.449-2.1094-1.3828-4.4688-2.3359-6.9453-2.8008h-0.67188v-3.9766 0.003907c0.035156-0.52344-0.22656-1.0195-0.67188-1.2891-9.2969-6-20.188-9.0625-31.246-8.793-10.109-0.050781-20.129 1.8477-29.516 5.6016-0.5 0.22656-0.80859 0.73828-0.78125 1.2852v5.3203h-0.33594c-3.2656 0.054687-6.3945 1.3125-8.793 3.5312-0.58984 0.49219-1.3086 0.80078-2.0703 0.89453-2.6641 0.28516-5.3477 0.28516-8.0078 0h-11.203c-3.6211-0.007813-6.9375 2.0312-8.5664 5.2656-1.3203-1.543-3.2383-2.4375-5.2656-2.4648h-154.17c-2.0273 0.027344-3.9453 0.92188-5.2617 2.4648-1.6328-3.2344-4.9492-5.2734-8.5703-5.2656h-11.199c-2.707 0.24609-5.4336 0.15234-8.1211-0.28125-0.78906-0.074219-1.5234-0.43359-2.0703-1.0078-2.4023-2.1172-5.4805-3.3086-8.6797-3.3594v-5.7695c0.027344-0.54688-0.28516-1.0586-0.78516-1.2852-9.3828-3.7539-19.406-5.6523-29.512-5.6016-11.062-0.26953-21.949 2.793-31.246 8.793-0.44922 0.26953-0.70703 0.76562-0.67188 1.2891v3.9766h-0.72656l-0.003907-0.003906c-2.457 0.47266-4.7969 1.4258-6.8867 2.8008-4.2852 4.0195-7.5977 8.9609-9.6875 14.449-0.67188 1.3984-1.2891 2.8008-2.0156 4.1445-4.1445 8.1758-7.5586 15.566-10.473 22.398-8.1641 21.453-14.715 43.484-19.602 65.914-1.8477 7.6172-3.6953 15.23-5.6016 22.848h0.003906c-7.5312 26.746-11.727 54.32-12.488 82.094v15.68c0.33594 17.359 2.5742 39.199 16.801 56 2.3828 2.7852 5.0273 5.3359 7.8945 7.6172 7.5391 5.7969 16.812 8.875 26.32 8.7383 7.1602-0.039062 14.242-1.5039 20.832-4.3125 15.258-6.6289 27.414-18.824 33.992-34.105 1.5117-3.0234 2.9102-6.1602 4.3125-9.2969 8.2305-18.145 15.008-37.297 21.559-56l1.1758-3.4141c1.3984-1.5234 3.1484-2.6758 5.0977-3.3594 8.6445 7.5625 19.613 11.949 31.09 12.43 11.48 0.47656 22.777-2.9805 32.02-9.8008 0.96094-0.64844 1.875-1.3594 2.7461-2.125 1.1211-0.95313 2.1836-2.0156 3.2461-3.0781l87.082-0.003906c1.0273 1.0859 2.1094 2.1133 3.2461 3.082 0.84766 0.75 1.7461 1.4414 2.6875 2.0703 9.2188 6.793 20.477 10.242 31.914 9.7852 11.441-0.45703 22.387-4.7969 31.031-12.305 1.9023 0.71875 3.6211 1.8477 5.0391 3.3047l1.1758 3.4727c6.5508 18.535 13.328 37.688 21.559 56 1.3984 3.1367 2.8008 6.2734 4.3125 9.2969l0.003906-0.003907c6.5742 15.281 18.73 27.477 33.988 34.105 6.5898 2.8086 13.672 4.2734 20.832 4.3125 9.5078 0.13672 18.785-2.9414 26.32-8.7383 2.8828-2.2852 5.5273-4.8555 7.8984-7.6719 14.449-16.801 16.801-38.695 16.801-56v-15.68c-0.58203-27.52-4.5312-54.863-11.762-81.422zm-419.27 160.1c-6.6211 3.1562-13.973 4.4766-21.277 3.8242-7.3086-0.64844-14.309-3.2461-20.273-7.5195-2.6641-2.0312-5.1055-4.3398-7.2812-6.8867-9.0195-11.363-14.25-25.27-14.949-39.762 3.8398 5.4336 8.6406 10.121 14.168 13.832 10.848 6.9023 23.121 11.246 35.895 12.715 5.5586 0.89453 11.172 1.3789 16.801 1.4531 5.8555 0.082031 11.691-0.73047 17.305-2.4062 3.2266-0.98047 6.3125-2.375 9.1836-4.1445-6.0625 12.871-16.559 23.133-29.57 28.895zm130.37-104.83c-0.72656 0.63281-1.4922 1.2148-2.2969 1.7383-8.4102 6.2188-18.734 9.2969-29.176 8.7031s-20.348-4.8203-28-11.953c-0.61719-0.55859-1.1758-1.1758-1.7344-1.793l-1.9062-1.5664c-0.55859-0.61719-1.0625-1.3438-1.625-2.0156l-1.2305-1.625c-0.50391-0.72656-1.0078-1.5117-1.457-2.2969-0.44922-0.78516-0.72656-1.0625-1.0078-1.625v0.003906c-0.47266-0.81641-0.90234-1.6602-1.2891-2.5195-0.28125-0.55859-0.55859-1.0625-0.78516-1.625-0.22266-0.55859-0.72656-1.793-1.0625-2.7422l-0.55859-1.5664v-0.003906c-0.3125-0.97266-0.57422-1.9648-0.78516-2.9688-0.18359-0.51172-0.33203-1.0352-0.44922-1.5664 0-1.0625-0.33594-2.1289-0.50391-3.2461-0.16797-1.1211 0-0.89453 0-1.3438v-0.003906c-0.082031-1.5469-0.082031-3.0977 0-4.6484-0.29688-14.418 6.2891-28.117 17.738-36.891 11.449-8.7734 26.391-11.57 40.234-7.5352 13.848 4.0352 24.945 14.426 29.887 27.973 4.9414 13.551 3.1328 28.645-4.8672 40.648l-0.44922 0.83984h0.003906c-1.4883 2.1016-3.1367 4.0859-4.9297 5.9336-1.1484 1.2617-2.3828 2.4414-3.6953 3.5273zm-61.602-78.398c-0.12109 0.25781-0.26953 0.50391-0.44922 0.72656-2.7891 4.1602-6.1211 7.9297-9.9102 11.203l-2.6875 2.0156c-14.133 10.25-32.461 12.727-48.809 6.5977-16.348-6.1289-28.531-20.047-32.441-37.059-3.9102-17.016 0.97656-34.855 13.008-47.504 12.027-12.652 29.602-18.426 46.789-15.371 17.191 3.0508 31.703 14.52 38.641 30.539 6.9414 16.016 5.3867 34.449-4.1406 49.074zm164.7 80.078c-0.78516-0.55859-1.5117-1.1758-2.1836-1.7344-1.332-1.1055-2.5859-2.3008-3.75-3.582-1.7617-1.7461-3.3906-3.6172-4.875-5.6016l-0.67188-1.2305c-7.6719-12.027-9.2344-26.969-4.2109-40.32 5.0234-13.355 16.043-23.562 29.742-27.547 13.699-3.9883 28.477-1.2891 39.879 7.2812 11.406 8.5703 18.105 22.012 18.086 36.281 0.085937 1.5469 0.085937 3.0977 0 4.6484v1.3984c0 0.44922 0 2.1836-0.50391 3.1914-0.50391 1.0078-0.33594 1.1211-0.44922 1.6797h0.003907c-0.21094 0.96484-0.47266 1.9219-0.78516 2.8555l-0.55859 1.5664c-0.33594 0.95312-0.67188 1.8477-1.0625 2.7422-0.39062 0.89453-0.50391 1.0625-0.78516 1.625l-0.003906 0.003906c-0.38281 0.86328-0.8125 1.7031-1.2852 2.5195 0 0.55859-0.67188 1.0625-1.0078 1.625-0.43359 0.79688-0.92188 1.5664-1.457 2.2969l-1.2305 1.625c-0.55859 0.67188-1.0625 1.3984-1.625 2.0156l-1.5664 1.625c-0.50391 0.55859-1.0625 1.1758-1.6797 1.7344h-0.003906c-7.6836 7.1094-17.605 11.32-28.059 11.914s-20.789-2.4727-29.227-8.668zm69.609-68.148c-3.918-3.2578-7.3828-7.0273-10.305-11.203-0.16406-0.25-0.3125-0.51172-0.44922-0.78125-9.3984-14.746-10.785-33.219-3.6992-49.207 7.0859-15.984 21.707-27.359 38.945-30.297s34.801 2.9531 46.785 15.691c11.98 12.734 16.785 30.625 12.801 47.652-3.9805 17.027-16.227 30.926-32.617 37.023-16.387 6.0977-34.742 3.5859-48.887-6.6953l-2.5195-2.1836zm0.33594 71.289v-0.003906c-0.15234-0.21094-0.28125-0.43359-0.39453-0.67188-1.4844-1.9023-3.4023-3.418-5.5977-4.4219l0.39062-0.44922 1.2305-1.5117h0.003907c0.67969-0.76562 1.3164-1.5664 1.9023-2.4062 0.44922-0.55859 0.78516-1.1211 1.1758-1.6797 0.39063-0.55859 1.1211-1.6797 1.5664-2.5195 0.44922-0.83984 0.72656-1.2305 1.0625-1.8477 0.33594-0.61719 0.89453-1.6797 1.2891-2.5742l0.83984-1.9023c0.39062-0.95312 0.72656-1.8477 1.0625-2.7422l0.67188-1.9609 0.95703-2.918c0-0.61719 0-1.2305 0.44922-1.9023l-0.003906-0.003906c0.23047-1.0898 0.39844-2.1953 0.50781-3.3047v-1.625-5.0391c-0.003906-1.8711-0.11719-3.7383-0.33984-5.5977 0.03125-0.59766 0.03125-1.1953 0-1.793 0-1.2891-0.39062-2.5195-0.67187-3.7539l0.058593-2.125c-0.33594-1.1758-0.67188-2.2969-1.0625-3.3594h-0.003906c-0.20703-0.66797-0.44922-1.3203-0.72656-1.9609-0.39062-1.1211-0.89453-2.1836-1.3984-3.3047-0.50391-1.1211-0.33594-0.78516-0.55859-1.1758h-0.003906c2.0391 1.2695 4.1523 2.4102 6.3281 3.418l1.1211 0.50391c2.1562 0.9375 4.3633 1.7578 6.6094 2.4609l1.1211 0.28125h-0.003906c2.2969 0.66797 4.6367 1.1758 7 1.5117h0.89844c15.598 1.9844 31.332-2.4844 43.559-12.375 12.223-9.8906 19.883-24.344 21.199-40.016s-3.8242-31.199-14.227-42.988c-10.406-11.793-25.172-18.824-40.887-19.473-15.711-0.64453-31.004 5.1562-42.34 16.055-11.34 10.898-17.734 25.953-17.707 41.676 0.019531 2.6055 0.20703 5.207 0.5625 7.7852 0 0.83984 0.33594 1.625 0.44922 2.4648s0.67188 3.4141 1.1211 5.0977c0.44922 1.6797 0.61719 1.8477 0.89453 2.8008 0.28125 0.95313 1.0625 2.9688 1.6797 4.4258 0.61719 1.457 0.83984 1.8477 1.3438 2.8008 0.50391 0.95312 0.72656 1.6797 1.1758 2.4648l-0.61719-0.28125c-1.6797-0.95312-3.3594-1.8477-5.0977-2.6328v-0.003906c-1.8242-0.77734-3.6953-1.4531-5.5977-2.0156l-1.6797-0.39062v-0.003906c-1.4766-0.40234-2.9727-0.71875-4.4805-0.94922l-1.793-0.28125c-2.0625-0.24609-4.1367-0.375-6.2148-0.39062-12.242 0-24.074 4.4102-33.328 12.426-9.2539 8.0156-15.309 19.098-17.059 31.211-1.7461 12.117 0.93359 24.461 7.5469 34.762l0.50391 0.83984c0.41016 0.66016 0.85938 1.2969 1.3438 1.9062h-76.945l1.3984-1.9609 0.55859-0.95312h0.003906c6.6211-10.312 9.2969-22.668 7.5391-34.797-1.7578-12.129-7.832-23.215-17.109-31.227-9.2734-8.0078-21.125-12.402-33.383-12.375-2.0781 0.015625-4.1523 0.14453-6.2148 0.39062l-1.793 0.28125c-1.5078 0.23047-3.0039 0.54688-4.4805 0.94922l-1.6797 0.39062v0.003906c-1.9023 0.5625-3.7734 1.2383-5.5977 2.0156-1.7344 0.72656-3.4141 1.625-5.0977 2.5195l-0.61719 0.33594c0.44922-0.78516 0.78516-1.5664 1.1758-2.3516l1.3438-2.8555c0.61719-1.457 1.1211-2.9688 1.625-4.4805 0.50391-1.5117 0.67188-1.8477 0.95312-2.8555 0.28125-1.0078 0.78516-3.3594 1.1211-5.0391 0.33594-1.6797 0.33594-1.6797 0.44922-2.5195l-0.003906-0.003907c0.35547-2.5586 0.54297-5.1406 0.5625-7.7266 0.011719-15.316-6.0586-30.012-16.879-40.848-10.82-10.84-25.504-16.934-40.82-16.945-15.316-0.007812-30.008 6.0664-40.844 16.891-10.836 10.824-16.926 25.512-16.93 40.828s6.0742 30.004 16.902 40.836c10.828 10.832 25.516 16.918 40.832 16.918 2.5312-0.015625 5.0547-0.20312 7.5625-0.55859h0.95312-0.003906c2.3398-0.21094 4.6602-0.58203 6.9453-1.1211l1.1758-0.28125c2.2461-0.70312 4.4492-1.5234 6.6094-2.4609l1.1211-0.50391h-0.003906c2.1797-1.0273 4.293-2.1875 6.3281-3.4727-0.20703 0.39844-0.39453 0.80859-0.55859 1.2305-0.52344 1.0586-0.99219 2.1406-1.3984 3.25-0.27734 0.64062-0.51953 1.293-0.73047 1.957-0.39062 1.0625-0.72656 2.1836-1.0625 3.3594l-0.50391 2.0156c-0.29687 1.2305-0.52344 2.4648-0.67187 3.6953 0 0.61719 0 1.2305-0.28125 1.8477v0.003906c-0.22266 1.8594-0.33594 3.7266-0.33594 5.5977 0 1.6797 0 3.3594 0.28125 5.0391v1.625c0 0.55859 0.28125 2.2383 0.50391 3.3047 0.22266 1.0625 0.33594 1.2891 0.44922 1.9023l0.78516 2.9688 0.67188 1.9609c0.33594 0.89453 0.67188 1.793 1.0625 2.7422 0.39062 0.95312 0.55859 1.2891 0.83984 1.9023 0.28125 0.61719 0.83984 1.7344 1.2891 2.5742l1.0078 1.8477c0.50391 0.83984 1.0625 1.6797 1.625 2.5195 0.55859 0.83984 0.72656 1.1211 1.1758 1.6797l-0.003906 0.007813c0.58594 0.83984 1.2227 1.6445 1.9062 2.4062l1.2305 1.5117 0.33594 0.44922c-1.9297 0.92188-3.6172 2.2852-4.9258 3.9766-0.37109 0.38672-0.65625 0.84375-0.84375 1.3438l-1.3438 3.7539c-6.4414 18.258-13.16 37.184-21.223 55.047-4.3555 5.125-10.09 8.8945-16.52 10.863-10.379 2.6094-21.211 2.8594-31.695 0.72656-11.949-1.3477-23.438-5.3867-33.602-11.816-8.2266-5.3711-14.539-13.215-18.031-22.398v-15.008c0.76953-27.168 4.8711-54.137 12.207-80.305 2.0156-7.6172 3.8633-15.289 5.6016-22.902 4.8477-22.164 11.344-43.934 19.43-65.129 2.8555-6.9453 6.2148-14.223 10.359-22.398l2.0703-4.3672 0.003907-0.003906c1.7031-4.6719 4.4414-8.9023 8.0078-12.375 1.543-0.83984 3.207-1.4414 4.9297-1.793 9.9883-2.1172 20.199-3.0352 30.406-2.7422 6.7773 0 12.434 0 18.199 0.44922 4.1445 0 7.6719 0.55859 11.199 1.0625h1.625c1.8711 0.003907 3.6914 0.58984 5.207 1.6797 1.3555 1.4688 3.1758 2.418 5.1523 2.6875 3.0742 0.50391 6.1953 0.61328 9.2969 0.33594h10.922c1.082 0 2.1211 0.42969 2.8906 1.1992 0.76562 0.76562 1.1953 1.8047 1.1953 2.8906v70.84c0.03125 7.6445 6.1875 13.852 13.832 13.941h145.6c7.6875-0.027344 13.914-6.2539 13.941-13.941v-70.504c0-2.2578 1.832-4.0898 4.0898-4.0898h11.199c3.082 0.28125 6.1875 0.16797 9.2422-0.33594 1.9453-0.23828 3.75-1.1484 5.0938-2.5742 1.6094-1.2148 3.5859-1.8477 5.6016-1.793l1.2305-0.16797c3.7109-0.55078 7.4531-0.90625 11.199-1.0625 5.6016-0.39062 11.199-0.44922 18.199-0.44922h0.003906c10.207-0.29297 20.414 0.625 30.406 2.7422 1.6953 0.35938 3.332 0.94531 4.8711 1.7383 3.5898 3.4844 6.3477 7.7344 8.0664 12.43 0.67188 1.457 1.3984 2.9688 2.0703 4.3125 4.1445 8.0625 7.5039 15.344 10.359 22.398v0.003906c7.9297 21.172 14.277 42.902 18.984 65.016 1.9023 7.6172 3.7539 15.289 5.6016 22.902 7.2617 26.141 11.285 53.074 11.984 80.191v15.062 0.003906c-3.4922 9.1836-9.8047 17.027-18.035 22.398-10.16 6.4258-21.648 10.469-33.598 11.816-10.508 2.1328-21.355 1.8828-31.754-0.72656-6.5312-1.9219-12.367-5.6953-16.797-10.867-8.0625-17.863-14.785-36.793-21.223-55.047zm106.96 89.43c-2.125 2.5391-4.5078 4.8477-7.1133 6.8867-5.9648 4.2734-12.965 6.8711-20.273 7.5195-7.3047 0.65234-14.656-0.66797-21.277-3.8242-13.074-5.7305-23.633-15.992-29.738-28.895 2.8359 1.7617 5.8828 3.1562 9.0742 4.1445 11.203 2.8984 22.922 3.2266 34.27 0.95312 12.754-1.4766 25.008-5.8242 35.84-12.715 5.5273-3.7109 10.328-8.3984 14.168-13.832-0.69922 14.492-5.9297 28.398-14.949 39.762z"/>
  <path d="m338.18 259.45c-1.6562 0.054687-2.9922 1.3672-3.0781 3.0234 0 1.6992 1.3789 3.0781 3.0781 3.0781 1.7031 0 3.082-1.3789 3.082-3.0781-0.085937-1.6562-1.4258-2.9688-3.082-3.0234z"/>
  <path d="m335.33 253.46c0 4.1055-6.1602 4.1055-6.1602 0 0-4.1094 6.1602-4.1094 6.1602 0"/>
  <path d="m344.06 256.54c1.6562-0.10938 2.9727-1.4258 3.082-3.0781-0.085937-1.6641-1.4141-2.9961-3.082-3.082-1.6523 0.085938-2.9648 1.4258-3.0234 3.082 0.082032 1.6445 1.3828 2.9688 3.0234 3.0781z"/>
  <path d="m326.37 241.3c-1.6641 0.082031-2.9961 1.4141-3.0781 3.0781 0 1.7031 1.3789 3.082 3.0781 3.082 1.7031 0 3.082-1.3789 3.082-3.082-0.085938-1.6641-1.418-2.9961-3.082-3.0781z"/>
  <path d="m338.18 247.46c1.6523-0.10938 2.9727-1.4258 3.082-3.082 0-1.6992-1.3789-3.0781-3.082-3.0781-1.6992 0-3.0781 1.3789-3.0781 3.0781 0.10547 1.6562 1.4258 2.9727 3.0781 3.082z"/>
  <path d="m358.73 262.47c0 1.6992 1.3789 3.0781 3.082 3.0781 1.6992 0 3.0781-1.3789 3.0781-3.0781 0-1.7031-1.3789-3.082-3.0781-3.082-1.7031 0-3.082 1.3789-3.082 3.082z"/>
  <path d="m350 259.45c-1.6562 0.054687-2.9922 1.3672-3.0781 3.0234 0 1.6992 1.3789 3.0781 3.0781 3.0781s3.0781-1.3789 3.0781-3.0781c-0.085937-1.6562-1.4219-2.9688-3.0781-3.0234z"/>
  <path d="m370.83 253.46c0 4.1055-6.1602 4.1055-6.1602 0 0-4.1094 6.1602-4.1094 6.1602 0"/>
  <path d="m355.94 256.54c1.6406-0.10938 2.9414-1.4336 3.0234-3.0781-0.058594-1.6562-1.3711-2.9961-3.0234-3.082-1.668 0.085938-2.9961 1.418-3.082 3.082 0.10938 1.6523 1.4258 2.9688 3.082 3.0781z"/>
  <path d="m373.63 241.3c-1.6641 0.082031-2.9961 1.4141-3.082 3.0781 0 1.7031 1.3789 3.082 3.082 3.082 1.6992 0 3.0781-1.3789 3.0781-3.082-0.082032-1.6641-1.4141-2.9961-3.0781-3.0781z"/>
  <path d="m361.82 247.46c1.6523-0.10938 2.9727-1.4258 3.0781-3.082 0-1.6992-1.3789-3.0781-3.0781-3.0781-1.7031 0-3.082 1.3789-3.082 3.0781 0.10938 1.6562 1.4297 2.9727 3.082 3.082z"/>
  <path d="m350 247.46c1.6523-0.10938 2.9727-1.4258 3.0781-3.082 0-1.6992-1.3789-3.0781-3.0781-3.0781s-3.0781 1.3789-3.0781 3.0781c0.10547 1.6562 1.4258 2.9727 3.0781 3.082z"/>
  <path d="m505.73 200.82c5.2109 0 9.9062-3.1367 11.902-7.9531 1.9922-4.8125 0.89062-10.352-2.793-14.035s-9.2227-4.7852-14.035-2.793c-4.8164 1.9961-7.9531 6.6914-7.9531 11.902 0 7.1133 5.7656 12.879 12.879 12.879z"/>
  <path d="m505.73 260.23c5.2109 0 9.9062-3.1367 11.902-7.9492 1.9922-4.8125 0.89062-10.352-2.793-14.035s-9.2227-4.7891-14.035-2.793c-4.8164 1.9922-7.9531 6.6875-7.9531 11.898 0 7.1133 5.7656 12.879 12.879 12.879z"/>
  <path d="m535.41 230.55c5.2109 0 9.9062-3.1367 11.902-7.9492 1.9922-4.8125 0.89062-10.352-2.793-14.035-3.6836-3.6875-9.2227-4.7891-14.035-2.793-4.8125 1.9922-7.9531 6.6875-7.9531 11.898 0.03125 7.1016 5.7812 12.848 12.879 12.879z"/>
  <path d="m488.94 217.67c0-5.2109-3.1406-9.9062-7.9531-11.898-4.8125-1.9961-10.352-0.89453-14.035 2.793-3.6836 3.6836-4.7852 9.2227-2.793 14.035s6.6914 7.9492 11.898 7.9492c7.1016-0.03125 12.852-5.7773 12.883-12.879z"/>
  <path d="m184.35 200.2 5.9375 6.1602c1.0508 1.0625 2.4805 1.6562 3.9766 1.6562 1.4922 0 2.9219-0.59375 3.9727-1.6562l6.1602-6.1602c1.4414-1.5273 2.3125-3.5039 2.4648-5.5977l0.55859-7.9531h0.003906c0.27734-4.6875-3.082-8.8008-7.7305-9.4648h-1.0625c-2.75-0.39062-5.5391-0.39062-8.2891 0h-1.0625c-4.6484 0.66406-8.0078 4.7773-7.7305 9.4648l0.55859 7.9531h0.003906c0.066407 2.0703 0.85938 4.0508 2.2383 5.5977z"/>
  <path d="m204.4 235.2-5.9375-6.1602h0.003906c-1.0508-1.0586-2.4844-1.6562-3.9766-1.6562-1.4922 0-2.9258 0.59766-3.9766 1.6562l-6.1602 6.1602c-1.4336 1.5234-2.2656 3.5117-2.3516 5.6016l-0.55859 7.9531c-0.28125 4.6836 3.0781 8.8008 7.7266 9.4609h1.0625c2.75 0.375 5.5391 0.375 8.2891 0h1.0664c4.6445-0.71484 7.9609-4.8867 7.6133-9.5742l-0.55859-7.8398c-0.089844-2.0664-0.88281-4.043-2.2422-5.6016z"/>
  <path d="m217.28 205.3c-2.1055 0.11328-4.0938 0.98828-5.6016 2.4648l-6.1602 5.9336c-2.1719 2.1836-2.1719 5.7109 0 7.8984l6.2148 5.9922c1.5352 1.4258 3.5117 2.2969 5.6016 2.4609l7.9531 0.50391h0.61719-0.003906c2.0586-0.039062 4.0352-0.79297 5.6016-2.125 1.6602-1.4336 2.7344-3.4297 3.0234-5.6016v-1.0625c0.33594-2.7734 0.33594-5.5742 0-8.3477v-1.0625c-0.63672-4.6523-4.7773-8.0117-9.4648-7.6719z"/>
  <path d="m184.69 217.67c-0.003906-1.4961-0.60938-2.9297-1.6797-3.9766l-6.2148-5.9336c-1.5078-1.4766-3.4961-2.3516-5.6016-2.4648l-7.9531-0.55859v-0.003906c-2.3398-0.15234-4.6523 0.60938-6.4375 2.1289-1.6758 1.4219-2.7578 3.4219-3.0234 5.6016v1.0078c-0.39453 2.7656-0.39453 5.5742 0 8.3438v1.0625c0.28906 2.1758 1.3633 4.168 3.0234 5.6016 1.5625 1.3359 3.543 2.0859 5.5977 2.1289h0.61719l7.9531-0.50391c2.0898-0.16797 4.0625-1.0352 5.5977-2.4648l6.2148-5.9922h0.003906c1.1523-1.0078 1.8398-2.4453 1.9023-3.9766z"/>
  <path d="m302.29 289.41c0 17.539-14.219 31.754-31.754 31.754s-31.75-14.215-31.75-31.754c0-17.535 14.215-31.75 31.75-31.75s31.754 14.215 31.754 31.75"/>
  <path d="m461.21 289.41c0 17.539-14.215 31.754-31.75 31.754s-31.754-14.215-31.754-31.754c0-17.535 14.219-31.75 31.754-31.75s31.75 14.215 31.75 31.75"/>
  <path d="m350 279.05c-4.2344 0-8.293 1.6836-11.285 4.6758-2.9922 2.9922-4.6758 7.0508-4.6758 11.285 0 4.2344 1.6836 8.293 4.6758 11.285 2.9922 2.9922 7.0508 4.6758 11.285 4.6758s8.293-1.6836 11.285-4.6758c2.9922-2.9922 4.6758-7.0508 4.6758-11.285-0.015626-4.2266-1.7031-8.2773-4.6914-11.27-2.9922-2.9883-7.043-4.6758-11.27-4.6914z"/>
  <path d="m249.2 148.73c-5.3516 0-9.6875 4.3398-9.6875 9.6914v11.812c0.38672 5.0508 4.5938 8.9531 9.6602 8.9531s9.2734-3.9023 9.6602-8.9531v-11.812c0.015625-2.5664-0.99219-5.0312-2.8008-6.8477-1.8086-1.8203-4.2656-2.8438-6.832-2.8438z"/>
  <path d="m450.8 148.73c-2.5664 0-5.0234 1.0234-6.832 2.8438-1.8086 1.8164-2.8164 4.2812-2.8008 6.8477v11.812c0.38672 5.0508 4.5938 8.9531 9.6602 8.9531s9.2734-3.9023 9.6602-8.9531v-11.812c0-2.5703-1.0195-5.0352-2.8359-6.8516-1.8203-1.8164-4.2812-2.8398-6.8516-2.8398z"/>
  <use x="70" y="644" xlink:href="#v"/>
  <use x="90.550781" y="644" xlink:href="#d"/>
  <use x="104.359375" y="644" xlink:href="#a"/>
  <use x="123.347656" y="644" xlink:href="#h"/>
  <use x="142.242188" y="644" xlink:href="#c"/>
  <use x="155.628906" y="644" xlink:href="#a"/>
  <use x="174.617188" y="644" xlink:href="#n"/>
  <use x="204.410156" y="644" xlink:href="#m"/>
  <use x="224.453125" y="644" xlink:href="#l"/>
  <use x="252.453125" y="644" xlink:href="#g"/>
  <use x="272.617188" y="644" xlink:href="#f"/>
  <use x="282.214844" y="644" xlink:href="#k"/>
  <use x="311.390625" y="644" xlink:href="#b"/>
  <use x="330.625" y="644" xlink:href="#j"/>
  <use x="350.5625" y="644" xlink:href="#a"/>
  <use x="379.296875" y="644" xlink:href="#g"/>
  <use x="399.464844" y="644" xlink:href="#e"/>
  <use x="416.0625" y="644" xlink:href="#f"/>
  <use x="425.660156" y="644" xlink:href="#h"/>
  <use x="444.554688" y="644" xlink:href="#e"/>
  <use x="461.152344" y="644" xlink:href="#b"/>
  <use x="480.390625" y="644" xlink:href="#u"/>
  <use x="498.640625" y="644" xlink:href="#a"/>
  <use x="517.632812" y="644" xlink:href="#i"/>
  <use x="527.226562" y="644" xlink:href="#i"/>
  <use x="536.828125" y="644" xlink:href="#f"/>
  <use x="70" y="672" xlink:href="#t"/>
  <use x="82.183594" y="672" xlink:href="#d"/>
  <use x="95.992188" y="672" xlink:href="#b"/>
  <use x="115.226562" y="672" xlink:href="#k"/>
  <use x="154.152344" y="672" xlink:href="#c"/>
  <use x="167.535156" y="672" xlink:href="#s"/>
  <use x="187.46875" y="672" xlink:href="#a"/>
  <use x="216.207031" y="672" xlink:href="#r"/>
  <use x="239.640625" y="672" xlink:href="#b"/>
  <use x="258.878906" y="672" xlink:href="#q"/>
  <use x="278.8125" y="672" xlink:href="#j"/>
  <use x="308.492188" y="672" xlink:href="#p"/>
  <use x="329.015625" y="672" xlink:href="#d"/>
  <use x="342.820312" y="672" xlink:href="#b"/>
  <use x="362.058594" y="672" xlink:href="#o"/>
  <use x="371.65625" y="672" xlink:href="#a"/>
  <use x="390.648438" y="672" xlink:href="#e"/>
  <use x="407.242188" y="672" xlink:href="#c"/>
 </g>
</svg>
