<?xml version="1.0" encoding="UTF-8"?>
<svg width="700pt" height="700pt" version="1.1" viewBox="0 0 700 700" xmlns="http://www.w3.org/2000/svg" xmlns:xlink="http://www.w3.org/1999/xlink">
 <defs>
  <symbol id="k" overflow="visible">
   <path d="m18.766-1.125c-0.96875 0.5-1.9805 0.875-3.0312 1.125-1.043 0.25781-2.1367 0.39062-3.2812 0.39062-3.3984 0-6.0898-0.94531-8.0781-2.8438-1.9922-1.9062-2.9844-4.4844-2.9844-7.7344 0-3.2578 0.99219-5.8359 2.9844-7.7344 1.9883-1.9062 4.6797-2.8594 8.0781-2.8594 1.1445 0 2.2383 0.13281 3.2812 0.39062 1.0508 0.25 2.0625 0.625 3.0312 1.125v4.2188c-0.98047-0.65625-1.9453-1.1406-2.8906-1.4531-0.94922-0.3125-1.9492-0.46875-3-0.46875-1.875 0-3.3516 0.60547-4.4219 1.8125-1.0742 1.1992-1.6094 2.8555-1.6094 4.9688 0 2.1055 0.53516 3.7617 1.6094 4.9688 1.0703 1.1992 2.5469 1.7969 4.4219 1.7969 1.0508 0 2.0508-0.14844 3-0.45312 0.94531-0.3125 1.9102-0.80078 2.8906-1.4688z"/>
  </symbol>
  <symbol id="b" overflow="visible">
   <path d="m13.734-11.141c-0.4375-0.19531-0.87109-0.34375-1.2969-0.4375-0.41797-0.10156-0.83984-0.15625-1.2656-0.15625-1.2617 0-2.2305 0.40625-2.9062 1.2188-0.67969 0.80469-1.0156 1.9531-1.0156 3.4531v7.0625h-4.8906v-15.312h4.8906v2.5156c0.625-1 1.3438-1.7266 2.1562-2.1875 0.82031-0.46875 1.8008-0.70312 2.9375-0.70312 0.16406 0 0.34375 0.011719 0.53125 0.03125 0.19531 0.011719 0.47656 0.039062 0.84375 0.078125z"/>
  </symbol>
  <symbol id="a" overflow="visible">
   <path d="m17.641-7.7031v1.4062h-11.453c0.125 1.1484 0.53906 2.0078 1.25 2.5781 0.70703 0.57422 1.7031 0.85938 2.9844 0.85938 1.0312 0 2.082-0.14844 3.1562-0.45312 1.082-0.3125 2.1914-0.77344 3.3281-1.3906v3.7656c-1.1562 0.4375-2.3125 0.76562-3.4688 0.98438-1.1562 0.22656-2.3125 0.34375-3.4688 0.34375-2.7734 0-4.9297-0.70312-6.4688-2.1094-1.5312-1.4062-2.2969-3.3789-2.2969-5.9219 0-2.5 0.75391-4.4609 2.2656-5.8906 1.5078-1.4375 3.582-2.1562 6.2188-2.1562 2.4062 0 4.332 0.73047 5.7812 2.1875 1.4453 1.4492 2.1719 3.3828 2.1719 5.7969zm-5.0312-1.625c0-0.92578-0.27344-1.6719-0.8125-2.2344-0.54297-0.57031-1.25-0.85938-2.125-0.85938-0.94922 0-1.7188 0.26562-2.3125 0.79688s-0.96484 1.2969-1.1094 2.2969z"/>
  </symbol>
  <symbol id="f" overflow="visible">
   <path d="m9.2188-6.8906c-1.0234 0-1.793 0.17188-2.3125 0.51562-0.51172 0.34375-0.76562 0.85547-0.76562 1.5312 0 0.625 0.20703 1.1172 0.625 1.4688 0.41406 0.34375 0.98828 0.51562 1.7188 0.51562 0.92578 0 1.7031-0.32812 2.3281-0.98438 0.63281-0.66406 0.95312-1.4922 0.95312-2.4844v-0.5625zm7.4688-1.8438v8.7344h-4.9219v-2.2656c-0.65625 0.92969-1.3984 1.6055-2.2188 2.0312-0.82422 0.41406-1.8242 0.625-3 0.625-1.5859 0-2.8711-0.45703-3.8594-1.375-0.99219-0.92578-1.4844-2.1289-1.4844-3.6094 0-1.7891 0.61328-3.1016 1.8438-3.9375 1.2383-0.84375 3.1797-1.2656 5.8281-1.2656h2.8906v-0.39062c0-0.76953-0.30859-1.332-0.92188-1.6875-0.61719-0.36328-1.5703-0.54688-2.8594-0.54688-1.0547 0-2.0312 0.10547-2.9375 0.3125-0.89844 0.21094-1.7305 0.52344-2.5 0.9375v-3.7344c1.0391-0.25 2.0859-0.44141 3.1406-0.57812 1.0625-0.13281 2.125-0.20312 3.1875-0.20312 2.7578 0 4.75 0.54688 5.9688 1.6406 1.2266 1.0859 1.8438 2.8555 1.8438 5.3125z"/>
  </symbol>
  <symbol id="d" overflow="visible">
   <path d="m7.7031-19.656v4.3438h5.0469v3.5h-5.0469v6.5c0 0.71094 0.14062 1.1875 0.42188 1.4375s0.83594 0.375 1.6719 0.375h2.5156v3.5h-4.1875c-1.9375 0-3.3125-0.39844-4.125-1.2031-0.80469-0.8125-1.2031-2.1797-1.2031-4.1094v-6.5h-2.4219v-3.5h2.4219v-4.3438z"/>
  </symbol>
  <symbol id="e" overflow="visible">
   <path d="m12.766-13.078v-8.2031h4.9219v21.281h-4.9219v-2.2188c-0.66797 0.90625-1.4062 1.5703-2.2188 1.9844s-1.7578 0.625-2.8281 0.625c-1.8867 0-3.4336-0.75-4.6406-2.25-1.2109-1.5-1.8125-3.4258-1.8125-5.7812 0-2.3633 0.60156-4.2969 1.8125-5.7969 1.207-1.5 2.7539-2.25 4.6406-2.25 1.0625 0 2 0.21484 2.8125 0.64062 0.82031 0.42969 1.5664 1.0859 2.2344 1.9688zm-3.2188 9.9219c1.0391 0 1.8359-0.37891 2.3906-1.1406 0.55078-0.76953 0.82812-1.8828 0.82812-3.3438 0-1.457-0.27734-2.5664-0.82812-3.3281-0.55469-0.76953-1.3516-1.1562-2.3906-1.1562-1.043 0-1.8398 0.38672-2.3906 1.1562-0.55469 0.76172-0.82812 1.8711-0.82812 3.3281 0 1.4609 0.27344 2.5742 0.82812 3.3438 0.55078 0.76172 1.3477 1.1406 2.3906 1.1406z"/>
  </symbol>
  <symbol id="n" overflow="visible">
   <path d="m10.5-3.1562c1.0508 0 1.8516-0.37891 2.4062-1.1406 0.55078-0.76953 0.82812-1.8828 0.82812-3.3438 0-1.457-0.27734-2.5664-0.82812-3.3281-0.55469-0.76953-1.3555-1.1562-2.4062-1.1562-1.0547 0-1.8594 0.38672-2.4219 1.1562-0.55469 0.77344-0.82812 1.8828-0.82812 3.3281 0 1.4492 0.27344 2.5586 0.82812 3.3281 0.5625 0.77344 1.3672 1.1562 2.4219 1.1562zm-3.25-9.9219c0.67578-0.88281 1.4219-1.5391 2.2344-1.9688 0.82031-0.42578 1.7656-0.64062 2.8281-0.64062 1.8945 0 3.4453 0.75 4.6562 2.25 1.207 1.5 1.8125 3.4336 1.8125 5.7969 0 2.3555-0.60547 4.2812-1.8125 5.7812-1.2109 1.5-2.7617 2.25-4.6562 2.25-1.0625 0-2.0078-0.21094-2.8281-0.625-0.8125-0.42578-1.5586-1.0859-2.2344-1.9844v2.2188h-4.8906v-21.281h4.8906z"/>
  </symbol>
  <symbol id="m" overflow="visible">
   <path d="m0.34375-15.312h4.8906l4.125 10.391 3.5-10.391h4.8906l-6.4375 16.766c-0.64844 1.6953-1.4023 2.8828-2.2656 3.5625-0.86719 0.6875-2 1.0312-3.4062 1.0312h-2.8438v-3.2188h1.5312c0.83203 0 1.4375-0.13672 1.8125-0.40625 0.38281-0.26172 0.67969-0.73047 0.89062-1.4062l0.14062-0.42188z"/>
  </symbol>
  <symbol id="l" overflow="visible">
   <path d="m14.953-3.7188h-8.2188l-1.3125 3.7188h-5.2812l7.5625-20.406h6.2656l7.5625 20.406h-5.2812zm-6.9062-3.7812h5.5781l-2.7812-8.125z"/>
  </symbol>
  <symbol id="v" overflow="visible">
   <path d="m2.3594-21.281h4.8906v21.281h-4.8906z"/>
  </symbol>
  <symbol id="j" overflow="visible">
   <path d="m14.312-14.828v3.7188c-1.043-0.4375-2.0547-0.76562-3.0312-0.98438-0.98047-0.21875-1.9023-0.32812-2.7656-0.32812-0.92969 0-1.6211 0.11719-2.0781 0.34375-0.44922 0.23047-0.67188 0.58984-0.67188 1.0781 0 0.38672 0.17188 0.68359 0.51562 0.89062 0.34375 0.21094 0.95703 0.36719 1.8438 0.46875l0.85938 0.125c2.5078 0.32422 4.1953 0.85156 5.0625 1.5781 0.86328 0.73047 1.2969 1.8711 1.2969 3.4219 0 1.6367-0.60547 2.8672-1.8125 3.6875-1.1992 0.8125-2.9922 1.2188-5.375 1.2188-1.0234 0-2.0742-0.078125-3.1562-0.23438-1.0742-0.15625-2.1797-0.39453-3.3125-0.71875v-3.7188c0.96875 0.48047 1.9609 0.83984 2.9844 1.0781 1.0312 0.23047 2.0781 0.34375 3.1406 0.34375 0.95703 0 1.6758-0.12891 2.1562-0.39062 0.47656-0.26953 0.71875-0.66406 0.71875-1.1875 0-0.4375-0.16797-0.75781-0.5-0.96875-0.33594-0.21875-0.99609-0.38281-1.9844-0.5l-0.85938-0.10938c-2.1797-0.26953-3.7031-0.77344-4.5781-1.5156-0.875-0.73828-1.3125-1.8594-1.3125-3.3594 0-1.625 0.55078-2.8281 1.6562-3.6094 1.1133-0.78906 2.8203-1.1875 5.125-1.1875 0.89453 0 1.8359 0.074219 2.8281 0.21875 1 0.13672 2.082 0.35156 3.25 0.64062z"/>
  </symbol>
  <symbol id="i" overflow="visible">
   <path d="m17.75-9.3281v9.3281h-4.9219v-7.1406c0-1.3203-0.03125-2.2344-0.09375-2.7344s-0.16797-0.86719-0.3125-1.1094c-0.1875-0.3125-0.44922-0.55469-0.78125-0.73438-0.32422-0.17578-0.69531-0.26562-1.1094-0.26562-1.0234 0-1.8242 0.39844-2.4062 1.1875-0.58594 0.78125-0.875 1.8711-0.875 3.2656v7.5312h-4.8906v-15.312h4.8906v2.2344c0.73828-0.88281 1.5195-1.5391 2.3438-1.9688 0.83203-0.42578 1.75-0.64062 2.75-0.64062 1.7695 0 3.1133 0.54688 4.0312 1.6406 0.91406 1.0859 1.375 2.6562 1.375 4.7188z"/>
  </symbol>
  <symbol id="c" overflow="visible">
   <path d="m9.6406-12.188c-1.0859 0-1.9141 0.39062-2.4844 1.1719-0.57422 0.78125-0.85938 1.9062-0.85938 3.375s0.28516 2.5938 0.85938 3.375c0.57031 0.77344 1.3984 1.1562 2.4844 1.1562 1.0625 0 1.875-0.38281 2.4375-1.1562 0.57031-0.78125 0.85938-1.9062 0.85938-3.375s-0.28906-2.5938-0.85938-3.375c-0.5625-0.78125-1.375-1.1719-2.4375-1.1719zm0-3.5c2.6328 0 4.6914 0.71484 6.1719 2.1406 1.4766 1.418 2.2188 3.3867 2.2188 5.9062 0 2.5117-0.74219 4.4805-2.2188 5.9062-1.4805 1.418-3.5391 2.125-6.1719 2.125-2.6484 0-4.7148-0.70703-6.2031-2.125-1.4922-1.4258-2.2344-3.3945-2.2344-5.9062 0-2.5195 0.74219-4.4883 2.2344-5.9062 1.4883-1.4258 3.5547-2.1406 6.2031-2.1406z"/>
  </symbol>
  <symbol id="h" overflow="visible">
   <path d="m2.1875-5.9688v-9.3438h4.9219v1.5312c0 0.83594-0.007813 1.875-0.015625 3.125-0.011719 1.25-0.015625 2.0859-0.015625 2.5 0 1.2422 0.03125 2.1328 0.09375 2.6719 0.070313 0.54297 0.17969 0.93359 0.32812 1.1719 0.20703 0.32422 0.47266 0.57422 0.79688 0.75 0.32031 0.16797 0.69141 0.25 1.1094 0.25 1.0195 0 1.8203-0.39062 2.4062-1.1719 0.58203-0.78125 0.875-1.8672 0.875-3.2656v-7.5625h4.8906v15.312h-4.8906v-2.2188c-0.74219 0.89844-1.5234 1.5586-2.3438 1.9844-0.82422 0.41406-1.7344 0.625-2.7344 0.625-1.7617 0-3.1055-0.53906-4.0312-1.625-0.92969-1.082-1.3906-2.6602-1.3906-4.7344z"/>
  </symbol>
  <symbol id="g" overflow="visible">
   <path d="m14.719-14.828v3.9844c-0.65625-0.45703-1.3242-0.79688-2-1.0156-0.66797-0.21875-1.3594-0.32812-2.0781-0.32812-1.3672 0-2.4336 0.40234-3.2031 1.2031-0.76172 0.79297-1.1406 1.9062-1.1406 3.3438 0 1.4297 0.37891 2.543 1.1406 3.3438 0.76953 0.79297 1.8359 1.1875 3.2031 1.1875 0.75781 0 1.4844-0.10938 2.1719-0.32812 0.6875-0.22656 1.3203-0.56641 1.9062-1.0156v4c-0.76172 0.28125-1.5391 0.48828-2.3281 0.625-0.78125 0.14453-1.5742 0.21875-2.375 0.21875-2.7617 0-4.9219-0.70703-6.4844-2.125-1.5547-1.4141-2.3281-3.3828-2.3281-5.9062 0-2.5312 0.77344-4.5039 2.3281-5.9219 1.5625-1.4141 3.7227-2.125 6.4844-2.125 0.80078 0 1.5938 0.074219 2.375 0.21875 0.78125 0.13672 1.5547 0.35156 2.3281 0.64062z"/>
  </symbol>
  <symbol id="u" overflow="visible">
   <path d="m2.3594-15.312h4.8906v15.312h-4.8906zm0-5.9688h4.8906v4h-4.8906z"/>
  </symbol>
  <symbol id="t" overflow="visible">
   <path d="m12.422-21.281v3.2188h-2.7031c-0.6875 0-1.1719 0.125-1.4531 0.375-0.27344 0.25-0.40625 0.6875-0.40625 1.3125v1.0625h4.1875v3.5h-4.1875v11.812h-4.8906v-11.812h-2.4375v-3.5h2.4375v-1.0625c0-1.6641 0.46094-2.8984 1.3906-3.7031 0.92578-0.80078 2.3672-1.2031 4.3281-1.2031z"/>
  </symbol>
  <symbol id="s" overflow="visible">
   <path d="m16.547-12.766c0.61328-0.94531 1.3477-1.6719 2.2031-2.1719 0.85156-0.5 1.7891-0.75 2.8125-0.75 1.7578 0 3.0977 0.54688 4.0156 1.6406 0.92578 1.0859 1.3906 2.6562 1.3906 4.7188v9.3281h-4.9219v-7.9844-0.35938c0.007813-0.13281 0.015625-0.32031 0.015625-0.5625 0-1.082-0.16406-1.8633-0.48438-2.3438-0.3125-0.48828-0.82422-0.73438-1.5312-0.73438-0.92969 0-1.6484 0.38672-2.1562 1.1562-0.51172 0.76172-0.77344 1.8672-0.78125 3.3125v7.5156h-4.9219v-7.9844c0-1.6953-0.14844-2.7852-0.4375-3.2656-0.29297-0.48828-0.8125-0.73438-1.5625-0.73438-0.9375 0-1.6641 0.38672-2.1719 1.1562-0.51172 0.76172-0.76562 1.8594-0.76562 3.2969v7.5312h-4.9219v-15.312h4.9219v2.2344c0.60156-0.86328 1.2891-1.5156 2.0625-1.9531 0.78125-0.4375 1.6406-0.65625 2.5781-0.65625 1.0625 0 2 0.25781 2.8125 0.76562 0.8125 0.51172 1.4258 1.2305 1.8438 2.1562z"/>
  </symbol>
  <symbol id="r" overflow="visible">
   <path d="m17.75-9.3281v9.3281h-4.9219v-7.1094c0-1.3438-0.03125-2.2656-0.09375-2.7656s-0.16797-0.86719-0.3125-1.1094c-0.1875-0.3125-0.44922-0.55469-0.78125-0.73438-0.32422-0.17578-0.69531-0.26562-1.1094-0.26562-1.0234 0-1.8242 0.39844-2.4062 1.1875-0.58594 0.78125-0.875 1.8711-0.875 3.2656v7.5312h-4.8906v-21.281h4.8906v8.2031c0.73828-0.88281 1.5195-1.5391 2.3438-1.9688 0.83203-0.42578 1.75-0.64062 2.75-0.64062 1.7695 0 3.1133 0.54688 4.0312 1.6406 0.91406 1.0859 1.375 2.6562 1.375 4.7188z"/>
  </symbol>
  <symbol id="q" overflow="visible">
   <path d="m2.5781-20.406h5.875l7.4219 14v-14h4.9844v20.406h-5.875l-7.4219-14v14h-4.9844z"/>
  </symbol>
  <symbol id="p" overflow="visible">
   <path d="m2.5781-20.406h8.7344c2.5938 0 4.582 0.57812 5.9688 1.7344 1.3945 1.1484 2.0938 2.7891 2.0938 4.9219 0 2.1367-0.69922 3.7812-2.0938 4.9375-1.3867 1.1562-3.375 1.7344-5.9688 1.7344h-3.4844v7.0781h-5.25zm5.25 3.8125v5.7031h2.9219c1.0195 0 1.8047-0.25 2.3594-0.75 0.5625-0.5 0.84375-1.2031 0.84375-2.1094 0-0.91406-0.28125-1.6172-0.84375-2.1094-0.55469-0.48828-1.3398-0.73438-2.3594-0.73438z"/>
  </symbol>
  <symbol id="o" overflow="visible">
   <path d="m2.3594-15.312h4.8906v15.031c0 2.0508-0.49609 3.6172-1.4844 4.7031-0.98047 1.082-2.4062 1.625-4.2812 1.625h-2.4219v-3.2188h0.85938c0.92578 0 1.5625-0.21094 1.9062-0.625 0.35156-0.41797 0.53125-1.2461 0.53125-2.4844zm0-5.9688h4.8906v4h-4.8906z"/>
  </symbol>
 </defs>
 <g>
  <path d="m182.5 198.8c-1.1328 0.011719-2.2227-0.42969-3.0234-1.2344l-13.832-13.832v-15.176c0-6.9258 5.6172-12.543 12.543-12.543h8.8477c6.9062 0.03125 12.488 5.6367 12.488 12.543v14.953l-1.2891 1.3984-12.656 12.656h0.003907c-0.8125 0.82422-1.9297 1.2695-3.082 1.2344zm-9.3516-18.312 9.3516 9.2969 9.2969-9.2969v-11.93c0-2.6992-2.1719-4.8945-4.8711-4.9258h-8.8516c-2.7188 0-4.9258 2.207-4.9258 4.9258z"/>
  <path d="m186.93 251.21h-8.8516c-6.9258 0-12.543-5.6133-12.543-12.543v-14.672l1.2305-1.3984 12.715-12.715c0.78906-0.80078 1.8672-1.2539 2.9961-1.2539 1.125 0 2.207 0.45313 2.9961 1.2539l13.832 13.832v15.176c-0.12109 6.7773-5.6016 12.23-12.375 12.32zm-13.777-24.473v11.93c0 1.3086 0.51953 2.5625 1.4414 3.4844 0.92578 0.92578 2.1797 1.4453 3.4844 1.4453h8.8516c2.6992-0.03125 4.8711-2.2305 4.8711-4.9297v-11.93l-9.2969-9.2969z"/>
  <path d="m217.5 220.59h-14.895l-1.3984-1.2891-12.715-12.656c-1.6211-1.6914-1.6211-4.3594 0-6.0469l13.832-13.832h15.176c6.9297 0 12.543 5.6133 12.543 12.543v8.8477c-0.058594 6.8828-5.6602 12.434-12.543 12.434zm-11.871-7.7852h11.871c1.3086 0 2.5586-0.51953 3.4844-1.4453 0.92578-0.92188 1.4453-2.1758 1.4453-3.4844v-8.6797c0-1.3047-0.51953-2.5586-1.4453-3.4844s-2.1758-1.4414-3.4844-1.4414h-11.871l-9.3516 9.3516z"/>
  <path d="m160.72 220.59h-13.27c-6.9297 0-12.547-5.6172-12.547-12.547v-8.8477c0-6.9258 5.6172-12.543 12.547-12.543h14.84l1.3984 1.2305 13.887 13.723v1.9023c-0.007813 1.1289-0.44922 2.2109-1.2305 3.0234l-13.832 13.777zm-13.273-26.32h0.003907c-2.7227 0-4.9297 2.2031-4.9297 4.9258v8.8477c0 1.3086 0.51953 2.5625 1.4453 3.4844 0.92188 0.92578 2.1758 1.4453 3.4844 1.4453h12.152l9.3516-9.3516-9.3516-9.3516z"/>
  <path d="m263.59 311.7c-8.9141 0-17.461-3.5391-23.762-9.8398s-9.8398-14.848-9.8398-23.758c0-8.9141 3.5391-17.461 9.8398-23.762 6.3008-6.3008 14.848-9.8398 23.762-9.8398 8.9102 0 17.457 3.5391 23.758 9.8398 6.3008 6.3008 9.8398 14.848 9.8398 23.762 0 8.9102-3.5391 17.457-9.8398 23.758-6.3008 6.3008-14.848 9.8398-23.758 9.8398zm0-59.641c-6.9102 0-13.539 2.7461-18.422 7.6367-4.8828 4.8867-7.625 11.516-7.6211 18.422 0.007813 6.9102 2.7578 13.535 7.6484 18.414 4.8906 4.8828 11.52 7.6172 18.43 7.6094 6.9102-0.011719 13.531-2.7656 18.41-7.6602 4.875-4.8945 7.6094-11.527 7.5938-18.438 0.015626-6.9102-2.7227-13.543-7.6094-18.43-4.8867-4.8867-11.52-7.625-18.43-7.6094z"/>
  <path d="m435.96 311.7c-8.9141 0-17.457-3.5391-23.758-9.8398-6.3047-6.3008-9.8438-14.848-9.8438-23.758 0-8.9141 3.5391-17.461 9.8438-23.762 6.3008-6.3008 14.844-9.8398 23.758-9.8398 8.9102 0 17.457 3.5391 23.758 9.8398 6.3008 6.3008 9.8398 14.848 9.8398 23.762 0 8.9102-3.5391 17.457-9.8398 23.758s-14.848 9.8398-23.758 9.8398zm0-59.641c-6.9102 0-13.535 2.7461-18.422 7.6367-4.8828 4.8867-7.625 11.516-7.6172 18.422 0.003906 6.9102 2.7539 13.535 7.6445 18.414 4.8906 4.8828 11.523 7.6172 18.43 7.6094 6.9102-0.011719 13.531-2.7656 18.41-7.6602 4.875-4.8945 7.6094-11.527 7.5938-18.438 0.015625-6.9102-2.7227-13.543-7.6094-18.43s-11.52-7.625-18.43-7.6094z"/>
  <path d="m353.36 238.34c0 4.4805-6.7188 4.4805-6.7188 0 0-4.4805 6.7188-4.4805 6.7188 0"/>
  <path d="m343.22 238.34c0 4.4805-6.7188 4.4805-6.7188 0 0-4.4805 6.7188-4.4805 6.7188 0"/>
  <path d="m363.5 238.34c0 4.4805-6.7188 4.4805-6.7188 0 0-4.4805 6.7188-4.4805 6.7188 0"/>
  <path d="m373.63 238.34c0 4.4805-6.7227 4.4805-6.7227 0 0-4.4805 6.7227-4.4805 6.7227 0"/>
  <path d="m333.09 238.34c0 4.4805-6.7227 4.4805-6.7227 0 0-4.4805 6.7227-4.4805 6.7227 0"/>
  <path d="m358.46 246.79c0 4.4805-6.7227 4.4805-6.7227 0s6.7227-4.4805 6.7227 0"/>
  <path d="m348.27 246.79c0 4.4805-6.7227 4.4805-6.7227 0s6.7227-4.4805 6.7227 0"/>
  <path d="m368.59 246.79c0 4.4805-6.7227 4.4805-6.7227 0s6.7227-4.4805 6.7227 0"/>
  <path d="m338.13 246.79c0 4.4805-6.7227 4.4805-6.7227 0s6.7227-4.4805 6.7227 0"/>
  <path d="m157.19 459.2-5.207-5.6016c25.258-23.742 31.977-53.367 36.902-74.984v0.003907c1.2656-9.0312 4.1094-17.77 8.4023-25.816l6.2148 4.4258v-0.003906c-3.5938 7.1914-6.0312 14.902-7.2227 22.848-5.0977 22.738-12.098 53.648-39.09 79.129z"/>
  <path d="m224.39 161.05c-2.2109-0.023438-4.3594-0.72656-6.1602-2.0156-2.293-1.6211-3.8281-4.1094-4.2539-6.8867l-1.7344-10.754h-0.003907c-0.44531-2.8008 0.25-5.668 1.9336-7.9531 1.6836-2.2852 4.2188-3.7969 7.0273-4.1992 2.7656-0.44922 5.5938 0.21875 7.8633 1.8555 2.2695 1.6406 3.793 4.1172 4.2344 6.8828l1.793 10.754v-0.003906c0.42578 2.8594-0.32422 5.7695-2.0742 8.0664-1.6367 2.2812-4.1172 3.8125-6.8867 4.2539-0.57812 0.054687-1.1602 0.054687-1.7383 0zm-1.7344-24.305h-0.44922v0.003906c-0.78906 0.13672-1.4922 0.58203-1.9609 1.2305-0.44531 0.63281-0.625 1.418-0.50391 2.1836l1.793 11.031c0.10938 0.78516 0.53516 1.4961 1.1758 1.9609 0.63672 0.44531 1.418 0.62891 2.1836 0.50391 0.76953-0.11719 1.457-0.54297 1.9062-1.1758 0.46875-0.64453 0.64844-1.457 0.50391-2.2422l-1.7344-10.754-0.003906 0.003906c-0.11328-1.5312-1.375-2.7188-2.9102-2.7422z"/>
  <path d="m579.94 458.25c-3.3867-0.19531-6.6406-1.3555-9.3906-3.3398-2.7461-1.9805-4.8711-4.707-6.1211-7.8594v-0.50391c-0.39062-1.1211-39.199-108.3-59.586-146.11v0.003906c-12.418-21.688-26.637-42.293-42.504-61.602-5.1758-5.9766-9.8047-12.402-13.832-19.207-3.4336-9.0898-4.3633-18.934-2.6875-28.504 1.1211-10.473 11.703-60.367 12.152-62.496 0.35547-3.6211-0.57812-7.25-2.6328-10.25-2.3242-2.7109-5.625-4.4023-9.1836-4.7031-52.863-4.7617-95.199-4.5938-95.93-4.5938-0.72656 0-43.121 0-95.984 4.6484-3.5234 0.32031-6.793 1.9844-9.125 4.6484-2.1562 3.0234-3.1484 6.7227-2.8008 10.418 0.39062 1.9023 11.199 51.801 12.098 62.273l-0.003906-0.003907c1.6758 9.5703 0.74609 19.418-2.6875 28.504-3.9844 6.8398-8.5742 13.309-13.719 19.32-15.867 19.309-30.086 39.914-42.504 61.602-20.441 37.801-59.191 144.98-59.586 146.11v0.50391c-7.6172 14-18.09 10.863-18.535 10.754-28.949-8.9062-42.84-42.73-41.773-100.47 1.9023-93.07 44.406-227.41 62.719-232.34 37.629-9.375 75.973-15.613 114.63-18.648h1.5117c52.809-4.7031 94.863-4.5352 95.535-4.5352s42.785 0 95.535 4.5352h1.5117c38.66 3.0391 77.004 9.2773 114.63 18.648 18.312 4.9297 60.816 139.27 62.719 232.34 1.1211 57.734-12.77 91.559-41.383 100.46-1 0.28516-2.0391 0.41797-3.0781 0.39062zm-341.94-342.89c-32.867 3.1836-65.457 8.8008-97.496 16.801-11.984 5.2656-61.938 148.46-56.672 245.73 2.0156 41.609 14.168 66.023 35.504 72.688 0.44922 0 5.0391 1.0078 9.4062-6.8867 2.8594-7.3359 39.539-109.14 59.922-146.89 12.625-22.066 27.086-43.027 43.23-62.664 4.6797-5.5391 8.9648-11.395 12.824-17.527 2.8945-7.8789 3.6289-16.387 2.1289-24.641-1.1211-10.078-11.93-61.266-12.039-61.602-0.60547-5.2148 0.51562-10.488 3.1914-15.008zm333.26 328.33c4.3672 7.8945 9.0156 7 9.5195 6.8867 21.336-6.6641 33.602-31.078 35.617-72.465 5.2656-97.273-44.801-240.46-56.785-245.73-32.059-8.1445-64.688-13.836-97.609-17.023 2.5312 4.4492 3.5898 9.5859 3.0234 14.672 0 0.72656-11.199 51.91-12.098 61.992h0.003907c-1.5039 8.2578-0.76953 16.766 2.125 24.641 3.8633 6.1328 8.1484 11.988 12.824 17.527 16.219 19.609 30.758 40.555 43.457 62.609 20.383 37.742 57.062 139.55 59.922 146.89z"/>
  <path d="m151.43 462.34h-0.33594c-3.1914 0-29.176-3.6953-32.09-4.0898l1.0078-7.5586c11.199 1.5117 28 3.7539 31.078 4.0312h0.003906c0.53516-0.68359 0.93359-1.4609 1.1758-2.293 0.28125-0.78516 17.137-43.848 23.52-58.855 11.199-26.656 22.848-44.801 35.113-56.336 12.266-11.535 25.312-9.9102 36.121-8.0625l-0.003906-0.003906c3.4492 0.71875 6.9531 1.1328 10.473 1.2305h184.8c3.5195-0.097657 7.0234-0.51172 10.473-1.2305 10.809-1.8477 23.016-3.9219 36.121 8.0625 12.266 11.199 23.742 29.68 35.113 56.336 6.3828 15.008 23.238 58.07 23.406 58.52l-0.003906 0.003906c0.26953 0.94531 0.70703 1.8359 1.2891 2.6289 3.3594 0 20.105-2.5195 31.078-4.0312l1.0078 7.5586c-2.9102 0.39062-28.895 3.9766-32.09 4.0898-4.5352 0-7.4492-4.0898-8.5117-7.8398 0 0-16.801-43.062-23.184-57.961-4.0312-9.4062-16.238-38.078-33.266-53.648-10.359-9.5195-19.711-7.8945-29.68-6.2148h0.003906c-3.8711 0.78906-7.8086 1.2383-11.758 1.3438h-184.8c-3.9531-0.10547-7.8867-0.55469-11.762-1.3438-9.9688-1.6797-19.32-3.3047-29.68 6.2148-16.801 15.566-29.23 44.238-33.266 53.648-6.3828 14.84-23.18 57.848-23.18 58.242-1.0664 3.3594-3.8086 7.5586-8.1758 7.5586z"/>
  <path d="m542.81 459.2c-26.992-25.367-33.992-56-39.199-78.793-1.1953-7.9453-3.6328-15.656-7.2266-22.848l6.3281-4.7578c4.2617 7.9609 7.1016 16.602 8.4023 25.535 4.9297 21.617 11.648 51.238 36.902 74.984z"/>
  <path d="m475.61 161.05c-0.57812 0.054687-1.1602 0.054687-1.7383 0-2.7695-0.44141-5.25-1.9727-6.8867-4.2539-1.6289-2.2891-2.293-5.125-1.8477-7.8984l1.793-10.754v0.003906c0.94141-5.7539 6.3711-9.6523 12.121-8.707 5.7539 0.94141 9.6523 6.3711 8.7109 12.121l-1.7344 10.754h-0.003906c-0.91406 5.0391-5.293 8.7109-10.414 8.7344zm1.7344-24.305v0.003906c-1.4414 0.003906-2.668 1.043-2.9102 2.4609l-1.7344 10.754h-0.003907c-0.14453 0.78516 0.035157 1.5938 0.50391 2.2383 0.44922 0.63672 1.1367 1.0586 1.9062 1.1758 0.77734 0.22266 1.6172 0.11328 2.3125-0.30078 0.69922-0.41016 1.1992-1.0938 1.3828-1.8828l1.457-11.199c0.12891-0.78125-0.058593-1.5781-0.52344-2.2227-0.46094-0.64062-1.1602-1.0703-1.9414-1.1914z"/>
  <path d="m414.12 225.62h-128.24c-9.6328 0-31.922 0-42.113-51.238l7.5039-1.5117c8.9609 45.078 26.266 45.137 34.609 45.137l128.18-0.003907c8.3984 0 25.703 0 34.664-45.137l7.5039 1.5117c-10.191 51.129-32.477 51.242-42.109 51.242z"/>
  <path d="m361.2 310.8h-22.398c-2.1055 0-3.8086-1.707-3.8086-3.8086 0-2.1016 1.7031-3.8086 3.8086-3.8086h22.398c2.1055 0 3.8086 1.707 3.8086 3.8086 0 2.1016-1.7031 3.8086-3.8086 3.8086z"/>
  <path d="m353.25 320.99c0 4.4805-6.7188 4.4805-6.7188 0 0-4.4805 6.7188-4.4805 6.7188 0"/>
  <path d="m518 185.98c-5.6875 0-11.145-2.2617-15.168-6.2812-4.0195-4.0234-6.2812-9.4805-6.2812-15.168s2.2617-11.145 6.2812-15.164c4.0234-4.0234 9.4805-6.2852 15.168-6.2852s11.145 2.2617 15.168 6.2852c4.0195 4.0195 6.2812 9.4766 6.2812 15.164-0.015625 5.6836-2.2812 11.133-6.3008 15.148-4.0195 4.0195-9.4648 6.2852-15.148 6.3008zm0-35.281c-5.5938 0-10.637 3.3711-12.777 8.5391-2.1445 5.168-0.96094 11.117 2.9961 15.074 3.957 3.957 9.9062 5.1406 15.074 3s8.5391-7.1875 8.5391-12.781c-0.03125-7.625-6.207-13.801-13.832-13.832z"/>
  <path d="m518 264.82c-5.6875 0-11.145-2.2617-15.168-6.2812-4.0195-4.0234-6.2812-9.4805-6.2812-15.168s2.2617-11.145 6.2812-15.164c4.0234-4.0234 9.4805-6.2812 15.168-6.2812s11.145 2.2578 15.168 6.2812c4.0195 4.0195 6.2812 9.4766 6.2812 15.164s-2.2617 11.145-6.2812 15.168c-4.0234 4.0195-9.4805 6.2812-15.168 6.2812zm0-35.223c-5.5977 0-10.648 3.375-12.785 8.5508-2.1367 5.1758-0.94141 11.129 3.0234 15.082 3.9688 3.9492 9.9258 5.1211 15.094 2.9609 5.168-2.1602 8.5234-7.2188 8.5-12.82-0.03125-7.6172-6.2148-13.773-13.832-13.773z"/>
  <path d="m557.65 225.62c-5.6875 0-11.145-2.2617-15.168-6.2812-4.0195-4.0234-6.2812-9.4805-6.2812-15.168s2.2617-11.145 6.2812-15.164c4.0234-4.0234 9.4805-6.2852 15.168-6.2852s11.145 2.2617 15.164 6.2852c4.0234 4.0195 6.2852 9.4766 6.2852 15.164-0.015625 5.6836-2.2812 11.129-6.3008 15.148s-9.4648 6.2852-15.148 6.3008zm0-35.281c-5.5938 0-10.637 3.3711-12.781 8.5391-2.1406 5.168-0.95703 11.117 3 15.074 3.957 3.957 9.9062 5.1406 15.074 3 5.168-2.1445 8.5391-7.1875 8.5391-12.781-0.0625-7.6055-6.2266-13.746-13.832-13.777z"/>
  <path d="m478.8 225.62c-5.6875 0-11.145-2.2617-15.168-6.2812-4.0195-4.0234-6.2812-9.4805-6.2812-15.168s2.2617-11.145 6.2812-15.164c4.0234-4.0234 9.4805-6.2852 15.168-6.2852s11.145 2.2617 15.164 6.2852c4.0234 4.0195 6.2812 9.4766 6.2812 15.164-0.011719 5.6836-2.2773 11.129-6.2969 15.148s-9.4648 6.2852-15.148 6.3008zm0-35.227c-5.5938 0-10.641 3.3711-12.781 8.5391s-0.95703 11.121 3 15.074c3.957 3.957 9.9062 5.1406 15.074 3s8.5391-7.1836 8.5391-12.781c0-7.6367-6.1953-13.832-13.832-13.832z"/>
  <path d="m150.7 126.79h-7.6172v-11.199l1.5117-1.1211h0.003906c10.207-7.2969 21.852-12.34 34.16-14.785 19.938-3.6406 34.047-1.7344 38.695 0.44922l2.2383 1.0078v12.992h-7.6172v-7.6719c-10.574-1.7695-21.395-1.4844-31.863 0.83984-10.527 2.1445-20.535 6.3281-29.453 12.32z"/>
  <path d="m556.25 126.79h-7.6133v-7.2266c-8.9219-5.9883-18.93-10.176-29.457-12.32-10.469-2.3242-21.289-2.6094-31.863-0.83984v7.6719h-7.6172v-12.992l2.2383-1.0078c4.5938-2.1836 18.762-4.0898 38.695-0.44922l0.003906 0.003906c12.305 2.4453 23.953 7.4844 34.16 14.781l1.5117 1.1211z"/>
  <use x="70" y="644" xlink:href="#k"/>
  <use x="90.550781" y="644" xlink:href="#b"/>
  <use x="104.359375" y="644" xlink:href="#a"/>
  <use x="123.347656" y="644" xlink:href="#f"/>
  <use x="142.242188" y="644" xlink:href="#d"/>
  <use x="155.628906" y="644" xlink:href="#a"/>
  <use x="174.617188" y="644" xlink:href="#e"/>
  <use x="204.410156" y="644" xlink:href="#n"/>
  <use x="224.453125" y="644" xlink:href="#m"/>
  <use x="252.453125" y="644" xlink:href="#l"/>
  <use x="274.121094" y="644" xlink:href="#v"/>
  <use x="283.71875" y="644" xlink:href="#a"/>
  <use x="302.710938" y="644" xlink:href="#j"/>
  <use x="319.375" y="644" xlink:href="#j"/>
  <use x="336.039062" y="644" xlink:href="#f"/>
  <use x="354.9375" y="644" xlink:href="#i"/>
  <use x="374.867188" y="644" xlink:href="#e"/>
  <use x="394.914062" y="644" xlink:href="#b"/>
  <use x="408.71875" y="644" xlink:href="#c"/>
  <use x="437.703125" y="644" xlink:href="#k"/>
  <use x="458.253906" y="644" xlink:href="#h"/>
  <use x="478.1875" y="644" xlink:href="#b"/>
  <use x="491.996094" y="644" xlink:href="#g"/>
  <use x="508.59375" y="644" xlink:href="#u"/>
  <use x="70" y="672" xlink:href="#t"/>
  <use x="82.183594" y="672" xlink:href="#b"/>
  <use x="95.992188" y="672" xlink:href="#c"/>
  <use x="115.226562" y="672" xlink:href="#s"/>
  <use x="154.152344" y="672" xlink:href="#d"/>
  <use x="167.535156" y="672" xlink:href="#r"/>
  <use x="187.46875" y="672" xlink:href="#a"/>
  <use x="216.207031" y="672" xlink:href="#q"/>
  <use x="239.640625" y="672" xlink:href="#c"/>
  <use x="258.878906" y="672" xlink:href="#h"/>
  <use x="278.8125" y="672" xlink:href="#i"/>
  <use x="308.492188" y="672" xlink:href="#p"/>
  <use x="329.015625" y="672" xlink:href="#b"/>
  <use x="342.820312" y="672" xlink:href="#c"/>
  <use x="362.058594" y="672" xlink:href="#o"/>
  <use x="371.65625" y="672" xlink:href="#a"/>
  <use x="390.648438" y="672" xlink:href="#g"/>
  <use x="407.242188" y="672" xlink:href="#d"/>
 </g>
</svg>
