<?xml version="1.0" encoding="UTF-8"?>
<svg width="700pt" height="700pt" version="1.1" viewBox="0 0 700 700" xmlns="http://www.w3.org/2000/svg" xmlns:xlink="http://www.w3.org/1999/xlink">
 <defs>
  <symbol id="v" overflow="visible">
   <path d="m18.766-1.125c-0.96875 0.5-1.9805 0.875-3.0312 1.125-1.043 0.25781-2.1367 0.39062-3.2812 0.39062-3.3984 0-6.0898-0.94531-8.0781-2.8438-1.9922-1.9062-2.9844-4.4844-2.9844-7.7344 0-3.2578 0.99219-5.8359 2.9844-7.7344 1.9883-1.9062 4.6797-2.8594 8.0781-2.8594 1.1445 0 2.2383 0.13281 3.2812 0.39062 1.0508 0.25 2.0625 0.625 3.0312 1.125v4.2188c-0.98047-0.65625-1.9453-1.1406-2.8906-1.4531-0.94922-0.3125-1.9492-0.46875-3-0.46875-1.875 0-3.3516 0.60547-4.4219 1.8125-1.0742 1.1992-1.6094 2.8555-1.6094 4.9688 0 2.1055 0.53516 3.7617 1.6094 4.9688 1.0703 1.1992 2.5469 1.7969 4.4219 1.7969 1.0508 0 2.0508-0.14844 3-0.45312 0.94531-0.3125 1.9102-0.80078 2.8906-1.4688z"/>
  </symbol>
  <symbol id="d" overflow="visible">
   <path d="m13.734-11.141c-0.4375-0.19531-0.87109-0.34375-1.2969-0.4375-0.41797-0.10156-0.83984-0.15625-1.2656-0.15625-1.2617 0-2.2305 0.40625-2.9062 1.2188-0.67969 0.80469-1.0156 1.9531-1.0156 3.4531v7.0625h-4.8906v-15.312h4.8906v2.5156c0.625-1 1.3438-1.7266 2.1562-2.1875 0.82031-0.46875 1.8008-0.70312 2.9375-0.70312 0.16406 0 0.34375 0.011719 0.53125 0.03125 0.19531 0.011719 0.47656 0.039062 0.84375 0.078125z"/>
  </symbol>
  <symbol id="a" overflow="visible">
   <path d="m17.641-7.7031v1.4062h-11.453c0.125 1.1484 0.53906 2.0078 1.25 2.5781 0.70703 0.57422 1.7031 0.85938 2.9844 0.85938 1.0312 0 2.082-0.14844 3.1562-0.45312 1.082-0.3125 2.1914-0.77344 3.3281-1.3906v3.7656c-1.1562 0.4375-2.3125 0.76562-3.4688 0.98438-1.1562 0.22656-2.3125 0.34375-3.4688 0.34375-2.7734 0-4.9297-0.70312-6.4688-2.1094-1.5312-1.4062-2.2969-3.3789-2.2969-5.9219 0-2.5 0.75391-4.4609 2.2656-5.8906 1.5078-1.4375 3.582-2.1562 6.2188-2.1562 2.4062 0 4.332 0.73047 5.7812 2.1875 1.4453 1.4492 2.1719 3.3828 2.1719 5.7969zm-5.0312-1.625c0-0.92578-0.27344-1.6719-0.8125-2.2344-0.54297-0.57031-1.25-0.85938-2.125-0.85938-0.94922 0-1.7188 0.26562-2.3125 0.79688s-0.96484 1.2969-1.1094 2.2969z"/>
  </symbol>
  <symbol id="h" overflow="visible">
   <path d="m9.2188-6.8906c-1.0234 0-1.793 0.17188-2.3125 0.51562-0.51172 0.34375-0.76562 0.85547-0.76562 1.5312 0 0.625 0.20703 1.1172 0.625 1.4688 0.41406 0.34375 0.98828 0.51562 1.7188 0.51562 0.92578 0 1.7031-0.32812 2.3281-0.98438 0.63281-0.66406 0.95312-1.4922 0.95312-2.4844v-0.5625zm7.4688-1.8438v8.7344h-4.9219v-2.2656c-0.65625 0.92969-1.3984 1.6055-2.2188 2.0312-0.82422 0.41406-1.8242 0.625-3 0.625-1.5859 0-2.8711-0.45703-3.8594-1.375-0.99219-0.92578-1.4844-2.1289-1.4844-3.6094 0-1.7891 0.61328-3.1016 1.8438-3.9375 1.2383-0.84375 3.1797-1.2656 5.8281-1.2656h2.8906v-0.39062c0-0.76953-0.30859-1.332-0.92188-1.6875-0.61719-0.36328-1.5703-0.54688-2.8594-0.54688-1.0547 0-2.0312 0.10547-2.9375 0.3125-0.89844 0.21094-1.7305 0.52344-2.5 0.9375v-3.7344c1.0391-0.25 2.0859-0.44141 3.1406-0.57812 1.0625-0.13281 2.125-0.20312 3.1875-0.20312 2.7578 0 4.75 0.54688 5.9688 1.6406 1.2266 1.0859 1.8438 2.8555 1.8438 5.3125z"/>
  </symbol>
  <symbol id="c" overflow="visible">
   <path d="m7.7031-19.656v4.3438h5.0469v3.5h-5.0469v6.5c0 0.71094 0.14062 1.1875 0.42188 1.4375s0.83594 0.375 1.6719 0.375h2.5156v3.5h-4.1875c-1.9375 0-3.3125-0.39844-4.125-1.2031-0.80469-0.8125-1.2031-2.1797-1.2031-4.1094v-6.5h-2.4219v-3.5h2.4219v-4.3438z"/>
  </symbol>
  <symbol id="n" overflow="visible">
   <path d="m12.766-13.078v-8.2031h4.9219v21.281h-4.9219v-2.2188c-0.66797 0.90625-1.4062 1.5703-2.2188 1.9844s-1.7578 0.625-2.8281 0.625c-1.8867 0-3.4336-0.75-4.6406-2.25-1.2109-1.5-1.8125-3.4258-1.8125-5.7812 0-2.3633 0.60156-4.2969 1.8125-5.7969 1.207-1.5 2.7539-2.25 4.6406-2.25 1.0625 0 2 0.21484 2.8125 0.64062 0.82031 0.42969 1.5664 1.0859 2.2344 1.9688zm-3.2188 9.9219c1.0391 0 1.8359-0.37891 2.3906-1.1406 0.55078-0.76953 0.82812-1.8828 0.82812-3.3438 0-1.457-0.27734-2.5664-0.82812-3.3281-0.55469-0.76953-1.3516-1.1562-2.3906-1.1562-1.043 0-1.8398 0.38672-2.3906 1.1562-0.55469 0.76172-0.82812 1.8711-0.82812 3.3281 0 1.4609 0.27344 2.5742 0.82812 3.3438 0.55078 0.76172 1.3477 1.1406 2.3906 1.1406z"/>
  </symbol>
  <symbol id="m" overflow="visible">
   <path d="m10.5-3.1562c1.0508 0 1.8516-0.37891 2.4062-1.1406 0.55078-0.76953 0.82812-1.8828 0.82812-3.3438 0-1.457-0.27734-2.5664-0.82812-3.3281-0.55469-0.76953-1.3555-1.1562-2.4062-1.1562-1.0547 0-1.8594 0.38672-2.4219 1.1562-0.55469 0.77344-0.82812 1.8828-0.82812 3.3281 0 1.4492 0.27344 2.5586 0.82812 3.3281 0.5625 0.77344 1.3672 1.1562 2.4219 1.1562zm-3.25-9.9219c0.67578-0.88281 1.4219-1.5391 2.2344-1.9688 0.82031-0.42578 1.7656-0.64062 2.8281-0.64062 1.8945 0 3.4453 0.75 4.6562 2.25 1.207 1.5 1.8125 3.4336 1.8125 5.7969 0 2.3555-0.60547 4.2812-1.8125 5.7812-1.2109 1.5-2.7617 2.25-4.6562 2.25-1.0625 0-2.0078-0.21094-2.8281-0.625-0.8125-0.42578-1.5586-1.0859-2.2344-1.9844v2.2188h-4.8906v-21.281h4.8906z"/>
  </symbol>
  <symbol id="l" overflow="visible">
   <path d="m0.34375-15.312h4.8906l4.125 10.391 3.5-10.391h4.8906l-6.4375 16.766c-0.64844 1.6953-1.4023 2.8828-2.2656 3.5625-0.86719 0.6875-2 1.0312-3.4062 1.0312h-2.8438v-3.2188h1.5312c0.83203 0 1.4375-0.13672 1.8125-0.40625 0.38281-0.26172 0.67969-0.73047 0.89062-1.4062l0.14062-0.42188z"/>
  </symbol>
  <symbol id="g" overflow="visible">
   <path d="m16.781-19.766v4.3125c-1.125-0.5-2.2266-0.875-3.2969-1.125-1.0625-0.25781-2.0703-0.39062-3.0156-0.39062-1.25 0-2.1797 0.17969-2.7812 0.53125-0.60547 0.34375-0.90625 0.88281-0.90625 1.6094 0 0.54297 0.20312 0.96875 0.60938 1.2812 0.40625 0.30469 1.1406 0.5625 2.2031 0.78125l2.25 0.45312c2.2695 0.44922 3.8789 1.1406 4.8281 2.0781 0.95703 0.92969 1.4375 2.2461 1.4375 3.9531 0 2.25-0.66797 3.9297-2 5.0312-1.3359 1.0938-3.3711 1.6406-6.1094 1.6406-1.3047 0-2.6055-0.125-3.9062-0.375-1.3047-0.23828-2.6055-0.59766-3.9062-1.0781v-4.4531c1.3008 0.69922 2.5625 1.2266 3.7812 1.5781 1.2188 0.34375 2.3906 0.51562 3.5156 0.51562 1.1562 0 2.0352-0.1875 2.6406-0.5625 0.61328-0.38281 0.92188-0.9375 0.92188-1.6562 0-0.63281-0.21094-1.125-0.625-1.4688-0.41797-0.34375-1.2461-0.65625-2.4844-0.9375l-2.0312-0.4375c-2.043-0.4375-3.5391-1.1328-4.4844-2.0938-0.9375-0.95703-1.4062-2.25-1.4062-3.875 0-2.0312 0.65625-3.5938 1.9688-4.6875s3.1953-1.6406 5.6562-1.6406c1.125 0 2.2734 0.085938 3.4531 0.25 1.1875 0.16797 2.4141 0.42188 3.6875 0.76562z"/>
  </symbol>
  <symbol id="f" overflow="visible">
   <path d="m2.3594-15.312h4.8906v15.312h-4.8906zm0-5.9688h4.8906v4h-4.8906z"/>
  </symbol>
  <symbol id="k" overflow="visible">
   <path d="m16.547-12.766c0.61328-0.94531 1.3477-1.6719 2.2031-2.1719 0.85156-0.5 1.7891-0.75 2.8125-0.75 1.7578 0 3.0977 0.54688 4.0156 1.6406 0.92578 1.0859 1.3906 2.6562 1.3906 4.7188v9.3281h-4.9219v-7.9844-0.35938c0.007813-0.13281 0.015625-0.32031 0.015625-0.5625 0-1.082-0.16406-1.8633-0.48438-2.3438-0.3125-0.48828-0.82422-0.73438-1.5312-0.73438-0.92969 0-1.6484 0.38672-2.1562 1.1562-0.51172 0.76172-0.77344 1.8672-0.78125 3.3125v7.5156h-4.9219v-7.9844c0-1.6953-0.14844-2.7852-0.4375-3.2656-0.29297-0.48828-0.8125-0.73438-1.5625-0.73438-0.9375 0-1.6641 0.38672-2.1719 1.1562-0.51172 0.76172-0.76562 1.8594-0.76562 3.2969v7.5312h-4.9219v-15.312h4.9219v2.2344c0.60156-0.86328 1.2891-1.5156 2.0625-1.9531 0.78125-0.4375 1.6406-0.65625 2.5781-0.65625 1.0625 0 2 0.25781 2.8125 0.76562 0.8125 0.51172 1.4258 1.2305 1.8438 2.1562z"/>
  </symbol>
  <symbol id="b" overflow="visible">
   <path d="m9.6406-12.188c-1.0859 0-1.9141 0.39062-2.4844 1.1719-0.57422 0.78125-0.85938 1.9062-0.85938 3.375s0.28516 2.5938 0.85938 3.375c0.57031 0.77344 1.3984 1.1562 2.4844 1.1562 1.0625 0 1.875-0.38281 2.4375-1.1562 0.57031-0.78125 0.85938-1.9062 0.85938-3.375s-0.28906-2.5938-0.85938-3.375c-0.5625-0.78125-1.375-1.1719-2.4375-1.1719zm0-3.5c2.6328 0 4.6914 0.71484 6.1719 2.1406 1.4766 1.418 2.2188 3.3867 2.2188 5.9062 0 2.5117-0.74219 4.4805-2.2188 5.9062-1.4805 1.418-3.5391 2.125-6.1719 2.125-2.6484 0-4.7148-0.70703-6.2031-2.125-1.4922-1.4258-2.2344-3.3945-2.2344-5.9062 0-2.5195 0.74219-4.4883 2.2344-5.9062 1.4883-1.4258 3.5547-2.1406 6.2031-2.1406z"/>
  </symbol>
  <symbol id="j" overflow="visible">
   <path d="m17.75-9.3281v9.3281h-4.9219v-7.1406c0-1.3203-0.03125-2.2344-0.09375-2.7344s-0.16797-0.86719-0.3125-1.1094c-0.1875-0.3125-0.44922-0.55469-0.78125-0.73438-0.32422-0.17578-0.69531-0.26562-1.1094-0.26562-1.0234 0-1.8242 0.39844-2.4062 1.1875-0.58594 0.78125-0.875 1.8711-0.875 3.2656v7.5312h-4.8906v-15.312h4.8906v2.2344c0.73828-0.88281 1.5195-1.5391 2.3438-1.9688 0.83203-0.42578 1.75-0.64062 2.75-0.64062 1.7695 0 3.1133 0.54688 4.0312 1.6406 0.91406 1.0859 1.375 2.6562 1.375 4.7188z"/>
  </symbol>
  <symbol id="e" overflow="visible">
   <path d="m14.719-14.828v3.9844c-0.65625-0.45703-1.3242-0.79688-2-1.0156-0.66797-0.21875-1.3594-0.32812-2.0781-0.32812-1.3672 0-2.4336 0.40234-3.2031 1.2031-0.76172 0.79297-1.1406 1.9062-1.1406 3.3438 0 1.4297 0.37891 2.543 1.1406 3.3438 0.76953 0.79297 1.8359 1.1875 3.2031 1.1875 0.75781 0 1.4844-0.10938 2.1719-0.32812 0.6875-0.22656 1.3203-0.56641 1.9062-1.0156v4c-0.76172 0.28125-1.5391 0.48828-2.3281 0.625-0.78125 0.14453-1.5742 0.21875-2.375 0.21875-2.7617 0-4.9219-0.70703-6.4844-2.125-1.5547-1.4141-2.3281-3.3828-2.3281-5.9062 0-2.5312 0.77344-4.5039 2.3281-5.9219 1.5625-1.4141 3.7227-2.125 6.4844-2.125 0.80078 0 1.5938 0.074219 2.375 0.21875 0.78125 0.13672 1.5547 0.35156 2.3281 0.64062z"/>
  </symbol>
  <symbol id="u" overflow="visible">
   <path d="m0.42188-15.312h4.8906l3.8281 10.578 3.7969-10.578h4.9062l-6.0312 15.312h-5.375z"/>
  </symbol>
  <symbol id="i" overflow="visible">
   <path d="m2.3594-21.281h4.8906v21.281h-4.8906z"/>
  </symbol>
  <symbol id="t" overflow="visible">
   <path d="m12.422-21.281v3.2188h-2.7031c-0.6875 0-1.1719 0.125-1.4531 0.375-0.27344 0.25-0.40625 0.6875-0.40625 1.3125v1.0625h4.1875v3.5h-4.1875v11.812h-4.8906v-11.812h-2.4375v-3.5h2.4375v-1.0625c0-1.6641 0.46094-2.8984 1.3906-3.7031 0.92578-0.80078 2.3672-1.2031 4.3281-1.2031z"/>
  </symbol>
  <symbol id="s" overflow="visible">
   <path d="m17.75-9.3281v9.3281h-4.9219v-7.1094c0-1.3438-0.03125-2.2656-0.09375-2.7656s-0.16797-0.86719-0.3125-1.1094c-0.1875-0.3125-0.44922-0.55469-0.78125-0.73438-0.32422-0.17578-0.69531-0.26562-1.1094-0.26562-1.0234 0-1.8242 0.39844-2.4062 1.1875-0.58594 0.78125-0.875 1.8711-0.875 3.2656v7.5312h-4.8906v-21.281h4.8906v8.2031c0.73828-0.88281 1.5195-1.5391 2.3438-1.9688 0.83203-0.42578 1.75-0.64062 2.75-0.64062 1.7695 0 3.1133 0.54688 4.0312 1.6406 0.91406 1.0859 1.375 2.6562 1.375 4.7188z"/>
  </symbol>
  <symbol id="r" overflow="visible">
   <path d="m2.5781-20.406h5.875l7.4219 14v-14h4.9844v20.406h-5.875l-7.4219-14v14h-4.9844z"/>
  </symbol>
  <symbol id="q" overflow="visible">
   <path d="m2.1875-5.9688v-9.3438h4.9219v1.5312c0 0.83594-0.007813 1.875-0.015625 3.125-0.011719 1.25-0.015625 2.0859-0.015625 2.5 0 1.2422 0.03125 2.1328 0.09375 2.6719 0.070313 0.54297 0.17969 0.93359 0.32812 1.1719 0.20703 0.32422 0.47266 0.57422 0.79688 0.75 0.32031 0.16797 0.69141 0.25 1.1094 0.25 1.0195 0 1.8203-0.39062 2.4062-1.1719 0.58203-0.78125 0.875-1.8672 0.875-3.2656v-7.5625h4.8906v15.312h-4.8906v-2.2188c-0.74219 0.89844-1.5234 1.5586-2.3438 1.9844-0.82422 0.41406-1.7344 0.625-2.7344 0.625-1.7617 0-3.1055-0.53906-4.0312-1.625-0.92969-1.082-1.3906-2.6602-1.3906-4.7344z"/>
  </symbol>
  <symbol id="p" overflow="visible">
   <path d="m2.5781-20.406h8.7344c2.5938 0 4.582 0.57812 5.9688 1.7344 1.3945 1.1484 2.0938 2.7891 2.0938 4.9219 0 2.1367-0.69922 3.7812-2.0938 4.9375-1.3867 1.1562-3.375 1.7344-5.9688 1.7344h-3.4844v7.0781h-5.25zm5.25 3.8125v5.7031h2.9219c1.0195 0 1.8047-0.25 2.3594-0.75 0.5625-0.5 0.84375-1.2031 0.84375-2.1094 0-0.91406-0.28125-1.6172-0.84375-2.1094-0.55469-0.48828-1.3398-0.73438-2.3594-0.73438z"/>
  </symbol>
  <symbol id="o" overflow="visible">
   <path d="m2.3594-15.312h4.8906v15.031c0 2.0508-0.49609 3.6172-1.4844 4.7031-0.98047 1.082-2.4062 1.625-4.2812 1.625h-2.4219v-3.2188h0.85938c0.92578 0 1.5625-0.21094 1.9062-0.625 0.35156-0.41797 0.53125-1.2461 0.53125-2.4844zm0-5.9688h4.8906v4h-4.8906z"/>
  </symbol>
 </defs>
 <g>
  <path d="m435.15 499.52-4.1836-16.801c-0.066406-2.6133-1.6289-6.293-33.777-8.7734-0.085938-2.9844-0.3125-5.9805-0.59766-8.9102-0.20703-2.1094-0.40234-4.1562-0.50391-6.0664-0.50391-9.5195-1.2891-19.164-2.043-28.488-1.0039-12.438-2.0508-25.305-2.4297-37.98-0.37891-12.078-0.55859-24.191-0.72266-36.293-0.089844-5.9961-0.17188-12-0.28516-17.992l-0.003907 0.003906c-1.6094-77.812 1.1328-155.65 8.2188-233.16 0.77734-8.6016 1.6797-17.141 2.6758-25.762 0.55859-4.793 1.1719-9.5898 1.8359-14.391 0.33984-2.4414 0.72266-4.8906 1.1211-7.332l0.078125-0.45312c0.38672-1.9492 1.2773-6.5117-2.2383-7.8047-3.9219-1.5586-6.2656 3.6172-7.2188 5.7227-1.4883 3.3867-3.543 6.4922-6.082 9.1836-1.8438 1.6133-3.9492 2.8984-6.2266 3.7969-0.53906-1.0469-1.625-1.6953-2.8008-1.6797h-59.93c-1.1797-0.023438-2.2656 0.62891-2.8008 1.6797-2.2852-0.91016-4.4023-2.1953-6.2656-3.7969-2.6328-2.832-4.75-6.1016-6.2578-9.6602-0.98047-2.0156-3.2695-6.7188-6.9961-5.2656-3.5352 1.3047-2.6211 5.8242-2.1406 8.2148l1.0703 7.3984c0.66406 4.793 1.2773 9.5898 1.8359 14.387 1.0039 8.6055 1.9023 17.152 2.7344 25.762h0.003906c7.0391 77.504 9.7734 155.34 8.1797 233.14-0.11719 6.0938-0.20313 12.188-0.29297 18.285-0.17188 12.008-0.33984 24.02-0.72266 36.012-0.35156 12.762-1.418 25.715-2.4375 38.254-0.75781 9.2227-1.5391 18.766-2.0312 28.203-0.10547 1.9023-0.30078 3.9492-0.50781 6.0547-0.28125 2.9336-0.50781 5.9375-0.59375 8.9219-32.156 2.4805-33.719 6.1602-33.785 8.7734l-4.1797 16.809c-0.058594 0.22266-0.085937 0.44922-0.085937 0.67969 0 9.3516 53.402 10.754 85.238 10.754s85.23-1.3984 85.23-10.754c0-0.23047-0.027344-0.45703-0.082031-0.67969m-12.453-16.387c-0.45312 0.125-0.94531 0.25391-1.5117 0.38672l-0.22266 0.042969c-0.51953 0.125-1.1211 0.24609-1.7188 0.37109l-0.55859 0.11328c-0.62891 0.125-1.2891 0.24219-2 0.36328l-0.42578 0.074219c-0.90234 0.15234-1.8711 0.30078-2.918 0.44922l-0.29297 0.042968c-0.98047 0.13281-2.0234 0.27344-3.1289 0.41016l-0.55859 0.066406c-2.5195 0.30078-5.3555 0.59766-8.5742 0.87891h-0.35156c-1.5312 0.12891-3.1367 0.25781-4.8203 0.37891h-0.30078c0.027344-0.0625 0.039062-0.11719 0.066406-0.17969l-0.007812 0.003906c0.34766-0.72266 0.63281-1.4727 0.85156-2.2422 0.37891-1.4453 0.64453-2.9141 0.80078-4.4023 0-0.15234 0.0625-0.28516 0.074218-0.44141 8.6758 0.41406 17.297 1.6094 25.758 3.5742l-0.16406 0.050781m-29.84-414.75c2.1523-2.1133 3.9688-4.543 5.3828-7.207-0.15234 1.0117-0.30078 2.0273-0.44141 3.0391-0.67578 4.8398-1.2891 9.6758-1.8594 14.516-1.0078 8.6445-1.9102 17.238-2.6875 25.879h-0.003906c-7.1016 77.707-9.8555 155.75-8.2422 233.77 0.11328 5.9805 0.19531 11.973 0.28516 17.965 0.16797 12.137 0.33984 24.277 0.72266 36.398 0.38672 12.812 1.4375 25.762 2.4453 38.266 0.75781 9.2773 1.5352 18.871 2.0312 28.324 0.10547 1.9805 0.30859 4.1094 0.51953 6.3125h0.003906c0.42578 3.6172 0.64063 7.2578 0.65234 10.898-0.015625 2.1641-0.30078 4.3203-0.84766 6.418-0.24219 0.87109-0.62109 1.6953-1.1211 2.4531-0.17188 0.27344-0.46094 0.55859-0.67188 0.82422v-0.003906c-0.42578 0.59375-0.89453 1.1562-1.4062 1.6797-0.066406 0.054688-0.14062 0.10547-0.20312 0.16797l0.003906 0.003906c-1.0234 1.0234-2.1523 1.9414-3.3594 2.7383-2.1914 1.5039-4.4883 2.8594-6.8672 4.0469-5.2031 2.7227-8.0195 3.6055-9.9336 1.3711-0.98438-1.3008-1.5859-2.8516-1.7344-4.4805-0.058593-0.21875-0.085937-0.44922-0.085937-0.67578 0-0.26562-0.039063-0.53125-0.11719-0.78516-0.10156-1.4492-0.042968-2.9336 0-4.3672v-3.3047c0-2.3867 0-4.8281 0.054688-7.2812 0-6.3125 0.0625-12.684 0.17188-19.039 0.042969-5.3555 0.14453-10.641 0.24219-16.012l0.035156-1.7656c0-1.1992 0-2.3867 0.054688-3.6836 0.28125-11.859 0.61719-23.66 1.0703-35.539 0.39063-12.086 0.89453-24.109 1.4492-36.23 0.22266-4.9609 0.44141-9.9219 0.72266-14.906l0.0625-1.1914c0.37109-7.8906 0.75-15.824 1.1719-23.699l2.9688-56.559c0.60938-11.504 1.1641-23.016 1.7305-34.531 1.4844-30.613 3.0312-62.266 5.4336-93.301l0.25781-3.0703c0.066406-0.77344 0.14453-1.6445 0.22266-2.6055 0-0.34766 0.0625-0.73828 0.09375-1.1211 0.054687-0.69922 0.11719-1.3984 0.17969-2.1719 0.039063-0.46094 0.078125-0.96484 0.11719-1.4492 0.054687-0.66797 0.10547-1.3164 0.16797-2.0273 0.0625-0.71094 0.11719-1.4375 0.16797-2.1719 0.050782-0.59766 0.10156-1.1797 0.15234-1.8047 0.0625-0.89453 0.13281-1.8203 0.21094-2.7539 0.035156-0.44922 0.0625-0.88672 0.09375-1.3398 0.078124-0.99219 0.15625-2.0039 0.23047-3.0352 0.035156-0.49219 0.074219-0.98047 0.11328-1.4844 0.074218-1.0352 0.14453-2.0781 0.21875-3.1367l0.10156-1.3906c0.074219-1.1211 0.15234-2.2383 0.22266-3.3594l0.078125-1.2109c0.078125-1.2109 0.15234-2.4062 0.22266-3.6172 0-0.30078 0.035156-0.60938 0.054687-0.91797 0.074219-1.2617 0.14062-2.5039 0.20703-3.7422 0-0.25781 0.027344-0.51562 0.039063-0.77344 0.074219-1.2773 0.12891-2.543 0.18359-3.7812v-0.55859c0.0625-1.3086 0.11328-2.5781 0.15234-3.8203v-0.24219c0.042969-1.3047 0.082032-2.5625 0.10547-3.7734v-0.12891c0.078125-3.7852 0.0625-7.0938-0.09375-9.5938l0.003906 0.011718c3.2695-1.2266 6.2773-3.0625 8.8555-5.418m-14.609 3.8516v0.003906c0.26172 2.6211 0.37109 5.2539 0.32422 7.8867-0.050782 7.9297-0.69922 20.301-1.9609 37.012-0.41406 5.5742-0.89844 11.625-1.457 18.148l-0.25781 3.1016c-2.4141 31.121-3.9609 62.816-5.4492 93.469-0.55859 11.508-1.1367 23.008-1.7266 34.5l-2.9688 56.559c-0.42188 7.9023-0.80078 15.848-1.1758 23.75l-0.054688 1.1641c-0.28125 4.9766-0.50391 9.9688-0.72656 14.98-0.55859 12.105-1.0625 24.16-1.457 36.254-0.45312 11.883-0.78906 23.715-1.0703 35.547-0.054687 1.3281-0.054687 2.5977-0.054687 3.8203l-0.035157 1.7148c-0.09375 5.3633-0.19531 10.691-0.24219 16.039-0.11328 6.3438-0.17188 12.746-0.17188 19.039-0.054688 2.4297-0.054688 4.918-0.054688 7.3477v3.207c-0.027343 1.0312-0.039062 2.1289-0.027343 3.2305v0.51953c-3.1719-0.023438-6.3945-0.050781-9.668-0.074219s-6.4922 0-9.6562 0.074219v-0.55859-3.1133-3.3047c0-2.4297 0-4.918-0.054688-7.2812-0.17969-54.66-2.625-107.68-4.9961-152.36-0.22266-3.9648-0.44922-7.9805-0.60938-11.977l-2.3516-44.574c-0.61719-11.672-1.1758-23.352-1.7422-35.039-1.4688-30.48-2.9922-61.996-5.4336-92.934l-0.23438-2.8516c-0.34766-4.1328-0.66406-8.0742-0.95312-11.82v-0.17969c-0.29297-3.7344-0.55469-7.2812-0.79688-10.641v-0.14453c-0.23047-3.2305-0.42969-6.2617-0.60938-9.1406 0-0.20703-0.027344-0.42578-0.042969-0.63281-0.16797-2.75-0.3125-5.3125-0.4375-7.7266 0-0.24609 0-0.5-0.039062-0.74609-0.11719-2.3281-0.21094-4.4805-0.29297-6.4844 0-0.25391 0-0.50781-0.027344-0.75781-0.058594-1.9258-0.10156-3.6992-0.12891-5.3125v-0.67578-4.2383-0.49219c0.027344-1.2148 0.085938-2.2891 0.15234-3.1875v-0.16406l1.3594-1.2383h55.137l0.027343 0.23438m-69.285 393.41c0.21094-2.1914 0.41406-4.3164 0.51953-6.3008 0.49219-9.3594 1.2695-18.855 2.0234-28.043 1.0312-12.605 2.1016-25.641 2.457-38.543 0.375-12.02 0.55859-24.078 0.72266-36.098 0.089844-6.0859 0.17188-12.176 0.29297-18.258 1.5938-78.02-1.1406-156.07-8.1914-233.79-0.83984-8.6406-1.7344-17.227-2.7422-25.867-0.55859-4.8398-1.1797-9.6758-1.8594-14.508l-0.45312-3.1367h-0.003906c1.4102 2.707 3.2383 5.1797 5.4141 7.3203 2.6016 2.3359 5.6172 4.1641 8.8906 5.3906v0.039063c-0.027344 0.55859-0.042969 1.1875-0.066407 1.8086 0 0.36328-0.027343 0.69531-0.039062 1.0742v2.1211 1.2383c0 0.77734 0 1.6133 0.027343 2.4414v1.3164c0 0.88672 0.042969 1.8047 0.078126 2.7344 0 0.44922 0 0.89062 0.035156 1.3477 0.035156 0.94141 0.074218 1.9102 0.11719 2.8828l0.066407 1.5234c0.039062 0.98438 0.089843 1.9805 0.14062 2.9961 0 0.5 0.050782 0.99219 0.078126 1.4961 0.054687 1.0742 0.11328 2.1523 0.17969 3.2383l0.085937 1.3711c0.054688 1.1211 0.12891 2.1953 0.19531 3.293 0.035156 0.48828 0.0625 0.97266 0.09375 1.4688 0.066406 1.0703 0.14062 2.1328 0.20703 3.1992 0.039063 0.50781 0.074219 1.0117 0.10547 1.5234 0.078125 1.0547 0.14453 2.0938 0.22266 3.1289 0.027344 0.42969 0.0625 0.85156 0.09375 1.2695 0.078125 1.1211 0.16406 2.2383 0.24219 3.3594l0.050781 0.69922c0.09375 1.2031 0.18359 2.3867 0.27344 3.5352 0 0.15625 0 0.30078 0.039062 0.46094 0.09375 1.1992 0.18359 2.3633 0.27344 3.4766v0.10156c0.29297 3.6445 0.55859 6.7969 0.75 9.1016l0.23437 2.8008c2.4297 30.852 3.9492 62.324 5.4141 92.758 0.55859 11.691 1.1211 23.387 1.7461 35.066l2.3477 44.543c0.16797 3.9922 0.39062 8.043 0.61719 12.02 2.3633 44.594 4.8047 97.531 4.9844 152.12 0.054687 2.3906 0.054687 4.832 0.054687 7.2188v3.3945l0.003906-0.003906c0.082031 1.582 0.070313 3.1719-0.039062 4.7539-0.03125 0.33203-0.085938 0.66016-0.16406 0.98438 0 0.10156-0.027344 0.17188-0.050781 0.28516-0.17188 1.5156-0.75 2.9531-1.6797 4.1602-1.9336 2.2695-4.7539 1.3828-10.398-1.5625-2.2656-1.1328-4.4453-2.4297-6.5234-3.875-1.1953-0.80078-2.3086-1.7188-3.3281-2.7383-1.5547-1.3398-2.7188-3.0859-3.3594-5.0391-0.55078-2.0977-0.83984-4.2578-0.85156-6.4297 0.007812-3.6445 0.22266-7.2852 0.65234-10.906m-4.9883 21.168c-1.3555-0.10156-2.6602-0.20312-3.9219-0.30859l-1.0859-0.089843c-1.5-0.13281-2.9297-0.26953-4.2656-0.40234l-0.71094-0.078125c-1.0742-0.11328-2.0977-0.22656-3.0625-0.33984l-1.1211-0.14062-2.4453-0.32031-0.8125-0.11328c-0.95703-0.14063-1.8477-0.27344-2.6836-0.41406l-0.80469-0.14062c-0.55859-0.09375-1.1211-0.19531-1.6133-0.29297l-0.77344-0.15234c-0.55859-0.11328-1.0703-0.21875-1.5469-0.33203l-0.34766-0.074218c-0.55859-0.13281-1.0625-0.26172-1.5195-0.39063l-0.14453-0.039062v0.003906c8.4609-1.9609 17.082-3.1562 25.758-3.5703 0 0.16406 0.066406 0.29297 0.078125 0.44922v-0.003906c0.15625 1.4883 0.42578 2.9648 0.80078 4.4141 0.21875 0.75781 0.50391 1.4961 0.85156 2.207 0.027343 0.0625 0.039062 0.11719 0.066406 0.17969l-0.71094-0.050782m46.039 18.676c-44.832 0-73.734-3.3164-79.359-5.9375l2.8906-11.633 0.34766 0.11719c0.32031 0.11328 0.68359 0.23047 1.0547 0.34766 0.37109 0.11719 0.69531 0.21875 1.082 0.32422 0.38672 0.10547 0.88672 0.23437 1.3477 0.34766l1.3398 0.32422c0.51562 0.11328 1.1211 0.22266 1.6797 0.33984l1.6172 0.30859c0.64453 0.11328 1.3555 0.21875 2.0625 0.33203s1.2383 0.20312 1.9219 0.30078c0.77344 0.10547 1.625 0.21094 2.4648 0.32031l2.2383 0.28125c0.91406 0.10547 1.9336 0.20703 2.9297 0.30859l2.5977 0.26172c1.0742 0.10156 2.2383 0.19141 3.4102 0.28516 0.99219 0.085937 1.9414 0.16797 2.9961 0.24609 1.2227 0.089843 2.5664 0.17187 3.8711 0.25781 0.99219 0.066406 1.8867 0.13281 2.9336 0.19531l-0.003906 0.003907c1.0117 0.9375 2.0977 1.793 3.2422 2.5586 2.4141 1.6758 4.9414 3.1719 7.5703 4.4805 0.59375 0.30078 1.2383 0.63672 1.9141 0.96875 0.20703 0.10547 0.41406 0.19141 0.63281 0.29297 0.51953 0.24609 1.0586 0.48047 1.625 0.71094 0.26953 0.10547 0.55859 0.20312 0.81641 0.30078 0.55859 0.19531 1.082 0.35938 1.6406 0.50391 0.29688 0.074219 0.55859 0.15234 0.88672 0.20703 0.57812 0.10938 1.1641 0.17969 1.7539 0.20703 0.21094 0 0.42188 0.074218 0.62891 0.074218h0.24219c0.22266 0 0.44922-0.042968 0.67188-0.0625h-0.003906c0.48047-0.042968 0.95703-0.125 1.4219-0.24609 0.24219-0.066406 0.47656-0.14062 0.71875-0.23047 0.48828-0.17969 0.95703-0.40625 1.3984-0.67578 0.20703-0.125 0.41406-0.22266 0.61719-0.36328 0.69531-0.48828 1.3281-1.0625 1.8828-1.7109 0.67578-0.84766 1.2383-1.7773 1.6797-2.7695 0.14453-0.3125 0.25781-0.62109 0.37891-0.94531 0.125-0.32422 0.25391-0.55859 0.34766-0.875 6.8984-0.078125 14.105-0.078125 21.023 0 0.09375 0.32422 0.25391 0.60547 0.36328 0.91406 0.11328 0.30859 0.21875 0.55859 0.34766 0.85156v-0.003906c0.43359 1.0273 0.99609 1.9883 1.6797 2.8672 0.54688 0.64062 1.1719 1.2031 1.8633 1.6797 0.19531 0.13281 0.39844 0.25391 0.60547 0.36719 0.44531 0.26562 0.91797 0.49219 1.4062 0.67188 0.23047 0.085938 0.46094 0.16406 0.69531 0.22266 0.48828 0.12109 0.98438 0.20313 1.4844 0.24219 0.20312 0 0.40234 0.054688 0.60938 0.0625h0.19531c0.20703 0 0.41406-0.0625 0.62109-0.074219 0.62109-0.027343 1.2344-0.10547 1.8438-0.22656 0.30078-0.0625 0.59766-0.13281 0.90625-0.21875 0.55859-0.15234 1.1211-0.32422 1.6797-0.53125 0.28516-0.10547 0.55859-0.20312 0.85156-0.32031 0.59766-0.24219 1.1875-0.5 1.7578-0.77344 0.20703-0.10156 0.41406-0.18359 0.62109-0.28516 0.73438-0.36328 1.4453-0.72656 2.1055-1.0742h0.003906c2.4336-1.2188 4.7812-2.6172 7.0156-4.1758 1.1758-0.78516 2.2891-1.6562 3.332-2.6172 0.95312-0.054687 1.7656-0.125 2.6641-0.17969 1.4297-0.09375 2.8789-0.18359 4.1992-0.28125l2.8438-0.23438c1.1992-0.09375 2.4258-0.19531 3.5352-0.29687 0.90625-0.085938 1.6797-0.17188 2.5547-0.25781 1.0039-0.10156 2.0391-0.20703 2.9609-0.3125 0.79688-0.089844 1.5078-0.18359 2.2383-0.28125 0.84375-0.10547 1.6797-0.21094 2.4688-0.32031 0.6875-0.10156 1.3008-0.20312 1.9336-0.30078 0.63281-0.10156 1.4062-0.21875 2.043-0.33203 0.63672-0.11328 1.1211-0.20703 1.6172-0.30859 0.5-0.10156 1.1641-0.23047 1.6797-0.34766s0.91406-0.21094 1.3438-0.32031c0.42969-0.10547 0.92969-0.23047 1.3438-0.34766 0.41406-0.11719 0.72656-0.21875 1.0703-0.32422 0.33984-0.10547 0.73828-0.23437 1.0703-0.35156 0.10156-0.039062 0.24219-0.074219 0.33203-0.11328l2.8945 11.633c-5.6289 2.6211-34.523 5.9375-79.352 5.9375"/>
  <path d="m350 293.65c0.74219 0 1.4531-0.29297 1.9805-0.82031 0.52344-0.52344 0.82031-1.2383 0.82031-1.9805v-14.832c0-1.5469-1.2539-2.8008-2.8008-2.8008s-2.8008 1.2539-2.8008 2.8008v14.836-0.003907c0 0.74219 0.29688 1.457 0.82031 1.9805 0.52734 0.52734 1.2383 0.82031 1.9805 0.82031"/>
  <path d="m350 320.52c0.74219 0 1.4531-0.29297 1.9805-0.82031 0.52344-0.52344 0.82031-1.2383 0.82031-1.9805v-10.902c0-1.5469-1.2539-2.8008-2.8008-2.8008s-2.8008 1.2539-2.8008 2.8008v10.902c0 0.74219 0.29688 1.457 0.82031 1.9805 0.52734 0.52734 1.2383 0.82031 1.9805 0.82031"/>
  <path d="m350 457.42c0.74219 0 1.4531-0.29297 1.9805-0.82031 0.52344-0.52344 0.82031-1.2344 0.82031-1.9766v-10.906c0-1.5469-1.2539-2.8008-2.8008-2.8008s-2.8008 1.2539-2.8008 2.8008v10.906c0 0.74219 0.29688 1.4531 0.82031 1.9766 0.52734 0.52734 1.2383 0.82031 1.9805 0.82031"/>
  <use x="70" y="644" xlink:href="#v"/>
  <use x="90.550781" y="644" xlink:href="#d"/>
  <use x="104.359375" y="644" xlink:href="#a"/>
  <use x="123.347656" y="644" xlink:href="#h"/>
  <use x="142.242188" y="644" xlink:href="#c"/>
  <use x="155.628906" y="644" xlink:href="#a"/>
  <use x="174.617188" y="644" xlink:href="#n"/>
  <use x="204.410156" y="644" xlink:href="#m"/>
  <use x="224.453125" y="644" xlink:href="#l"/>
  <use x="252.453125" y="644" xlink:href="#g"/>
  <use x="272.617188" y="644" xlink:href="#f"/>
  <use x="282.214844" y="644" xlink:href="#k"/>
  <use x="311.390625" y="644" xlink:href="#b"/>
  <use x="330.625" y="644" xlink:href="#j"/>
  <use x="350.5625" y="644" xlink:href="#a"/>
  <use x="379.296875" y="644" xlink:href="#g"/>
  <use x="399.464844" y="644" xlink:href="#e"/>
  <use x="416.0625" y="644" xlink:href="#f"/>
  <use x="425.660156" y="644" xlink:href="#h"/>
  <use x="444.554688" y="644" xlink:href="#e"/>
  <use x="461.152344" y="644" xlink:href="#b"/>
  <use x="480.390625" y="644" xlink:href="#u"/>
  <use x="498.640625" y="644" xlink:href="#a"/>
  <use x="517.632812" y="644" xlink:href="#i"/>
  <use x="527.226562" y="644" xlink:href="#i"/>
  <use x="536.828125" y="644" xlink:href="#f"/>
  <use x="70" y="672" xlink:href="#t"/>
  <use x="82.183594" y="672" xlink:href="#d"/>
  <use x="95.992188" y="672" xlink:href="#b"/>
  <use x="115.226562" y="672" xlink:href="#k"/>
  <use x="154.152344" y="672" xlink:href="#c"/>
  <use x="167.535156" y="672" xlink:href="#s"/>
  <use x="187.46875" y="672" xlink:href="#a"/>
  <use x="216.207031" y="672" xlink:href="#r"/>
  <use x="239.640625" y="672" xlink:href="#b"/>
  <use x="258.878906" y="672" xlink:href="#q"/>
  <use x="278.8125" y="672" xlink:href="#j"/>
  <use x="308.492188" y="672" xlink:href="#p"/>
  <use x="329.015625" y="672" xlink:href="#d"/>
  <use x="342.820312" y="672" xlink:href="#b"/>
  <use x="362.058594" y="672" xlink:href="#o"/>
  <use x="371.65625" y="672" xlink:href="#a"/>
  <use x="390.648438" y="672" xlink:href="#e"/>
  <use x="407.242188" y="672" xlink:href="#c"/>
 </g>
</svg>
