<?xml version="1.0" encoding="UTF-8"?>
<svg width="700pt" height="700pt" version="1.1" viewBox="0 0 700 700" xmlns="http://www.w3.org/2000/svg" xmlns:xlink="http://www.w3.org/1999/xlink">
 <g>
  <path d="m490.66 73.746c0 0.39062 0.054688 0.78516 0.054688 1.2305v-1.2305z"/>
  <path d="m422.57 490.67c-0.55859-0.39062-1.1211-0.78516-1.6797-1.2305v-0.003906c0.53125 0.46484 1.0898 0.89453 1.6797 1.2891 0.50391 0.39062 1.0586 0.72656 1.5664 1.0625-0.55859-0.39062-1.0625-0.72656-1.5664-1.1211-0.55859-0.39062-1.1211-0.78516-1.6797-1.2305 0.53125 0.46484 1.0898 0.89453 1.6797 1.2891 0.50391 0.39062 1.0586 0.72656 1.5664 1.0625-0.55859-0.39062-1.0625-0.72656-1.5664-1.1211"/>
  <path d="m411.2 486.41c0.054688 0.11328 0.11719 0.28125 0.16797 0.39062h0.058594c-0.082031-0.125-0.15625-0.25391-0.22656-0.39062"/>
  <path d="m426.93 499.73c-1.3984-0.67188-2.6875-1.3984-3.9766-2.1211 1.2305 0.77734 2.5742 1.4492 3.9766 2.1797l1.0078 0.50781v-0.003906c-0.32422-0.20312-0.66406-0.39062-1.0078-0.55859-1.3984-0.67188-2.6875-1.3984-3.9766-2.1211 1.2305 0.77734 2.5742 1.4492 3.9766 2.1797l1.0078 0.50781c-0.32422-0.20703-0.66406-0.39453-1.0078-0.5625-1.3984-0.67188-2.6875-1.3984-3.9766-2.1211 1.2305 0.77734 2.5742 1.4492 3.9766 2.1797l1.0078 0.50781c-0.32422-0.20312-0.66406-0.39062-1.0078-0.55859-1.3984-0.67188-2.6875-1.3984-3.9766-2.1211 1.2305 0.77734 2.5742 1.4492 3.9766 2.1797l1.0078 0.50781c-0.32422-0.20703-0.66406-0.39453-1.0078-0.5625"/>
  <path d="m481.6 495.93c-1.1211 0.58984-2.3047 1.0391-3.5312 1.3438 1.2109-0.35547 2.3906-0.80469 3.5312-1.3438"/>
  <path d="m472.46 493.07c-0.10156-0.25391-0.17969-0.51562-0.22266-0.78516v-0.16797c0.039063 0.32422 0.11328 0.64453 0.22266 0.95312"/>
  <path d="m516.25 485.46c-1.9023 0.28125-4.082 0.50391-6.4922 0.67188 2.4062-0.22266 4.5312-0.44922 6.4922-0.67188"/>
  <path d="m533.12 487.81v0.054687c-0.78906 0.28125-1.7422 0.55859-2.8008 0.89453 1.0586-0.33594 2.0117-0.67187 2.8008-0.95312"/>
  <path d="m502.14 486.36c0 0.16797-0.11719 0.28125-0.16797 0.44922h-0.054687v-0.003907c0.10547-0.12891 0.17969-0.28125 0.22266-0.44531"/>
  <path d="m541.84 499.57-4.1992-16.742v-0.054687c-0.054687-2.5742-1.3438-6.2734-33.77-8.8477-0.054688-2.9688-0.33594-5.9922-0.61719-8.8477-0.22266-2.1289-0.39062-4.1992-0.50391-6.1055-0.50391-9.5195-1.2891-19.152-2.0703-28.449-0.95312-12.434-2.0156-25.312-2.4062-38.023-0.39062-12.039-0.55859-24.191-0.72656-36.289-0.054687-5.9922-0.16406-11.984-0.28125-17.977-1.6211-77.82 1.125-155.67 8.2305-233.18 0.78516-8.5859 1.6797-17.156 2.6875-25.703 0.55859-4.8164 1.1758-9.5742 1.7969-14.391 0.38672-2.4648 0.72266-4.8711 1.1211-7.3359l-2.6875-0.44922h2.8008c0.39844-1.9609 1.2891-6.4961-2.2383-7.8398-3.9219-1.5117-6.2734 3.6406-7.2227 5.7695l-0.003906-0.003906c-1.4766 3.3867-3.5195 6.4922-6.0469 9.1836-1.8164 1.6055-3.875 2.9102-6.1055 3.8633-0.54297-1.1094-1.6758-1.8086-2.9102-1.7891h-59.973c-1.2227-0.019531-2.3398 0.67969-2.8555 1.7891-2.2812-0.91016-4.3867-2.2188-6.2148-3.8633-2.6211-2.8438-4.7227-6.1211-6.2148-9.6875-1.0078-2.0156-3.3047-6.7188-7-5.2656-3.5273 1.2891-2.6328 5.8242-2.1836 8.2305l1.1211 7.3906c0.61719 4.8164 1.2305 9.5742 1.793 14.391 1.0078 8.5664 1.9023 17.137 2.7422 25.762l-0.003906 0.003907c7.0586 77.5 9.7891 155.33 8.1758 233.13-0.11328 6.1055-0.22266 12.207-0.28125 18.312-0.16797 11.984-0.33594 23.969-0.72656 36.008-0.33594 12.711-1.3984 25.703-2.4648 38.246-0.72656 9.1836-1.5117 18.762-2.0117 28.168-0.11719 1.9023-0.28516 3.9766-0.50781 6.1055-0.28125 2.8555-0.55859 5.8789-0.61719 8.8477-3.5273 0.28125-6.7188 0.55859-9.5742 0.89453v0.003907c1.0312-14.289 0.20312-28.652-2.4609-42.727-2.3359-13.672-5.6875-27.148-10.027-40.32-3.1484-9.2812-6.9258-18.34-11.309-27.105-0.77344-1.5039-2.0977-2.6484-3.6992-3.1914l-3.3594-0.95312c-0.14062-0.0625-0.28906-0.10156-0.44141-0.11328v-0.72656c-0.007812-0.45312-0.24219-0.87109-0.62109-1.1211-4.1016-2.707-8.6523-4.6602-13.441-5.7656-5.2422-0.89453-10.602-0.89453-15.848 0-0.58984 0.10156-1.0469 0.57812-1.1211 1.1758l-0.16797 1.1211c-3.7539-0.39062-4.7617 0.11328-5.3203 0.39062-4.3125-0.89453-9.5742-1.6797-15.793-2.3516h0.003906c-0.27734-0.066407-0.55859-0.10156-0.83984-0.11328-0.13281 0.003906-0.26562-0.011719-0.39453-0.054688-17.191-1.7344-35.504-1.9609-35.953-1.9609-0.16797 0-18.48 0.22266-35.672 1.9609l-1.2305 0.16797c-6.2148 0.67188-11.535 1.457-15.848 2.3516-0.50391-0.28125-1.5664-0.78516-5.2656-0.39062l-0.16797-1.1211h0.003906c-0.074219-0.59766-0.52734-1.0781-1.1211-1.1758-5.2266-0.89453-10.566-0.89453-15.793 0-4.8086 1.0977-9.3789 3.0508-13.496 5.7656-0.37891 0.25-0.60938 0.66797-0.61719 1.1211v0.72656c-0.16797 0.054688-0.33594 0.054688-0.5 0.11328-1.5195 0.39062-2.5742 0.72656-3.3594 1.0078h0.003906c-1.6016 0.48828-2.9219 1.625-3.6367 3.1367-4.3711 8.7734-8.1523 17.828-11.316 27.105-4.3516 13.164-7.6836 26.645-9.9688 40.32-3.7227 18.289-3.9688 37.113-0.72656 55.496 1.0273 8.2305 5.6641 15.578 12.656 20.047 1.4648 0.83594 3.082 1.3711 4.7578 1.5664 0.03125 0.03125 0.070312 0.050781 0.11328 0.058594l10.754 1.6797h-0.003906c0.41016 0.046876 0.82031 0.0625 1.2344 0.054688 3.0977-0.023438 5.9531-1.6875 7.5039-4.3672 4.5547-8.0703 8.4844-16.477 11.758-25.145 1.793-4.3672 3.5273-8.6797 5.6602-13.273h0.003906c1.2305-3.5117 3.3047-6.6641 6.043-9.1836 3.4414-2.4414 7.5977-3.6602 11.816-3.4727 2.7266 1.0039 5.6094 1.5156 8.5156 1.5117h76.16c2.8867 0.003907 5.75-0.50781 8.457-1.5117 4.2148-0.18359 8.3711 1.0391 11.816 3.4727 2.8047 2.6289 4.9375 5.8945 6.2148 9.5195 1.9609 4.3125 3.7578 8.6797 5.543 13.047v0.003906c3.2812 8.6172 7.1914 16.984 11.703 25.031 1.5547 2.6836 4.4102 4.3438 7.5117 4.3672 0.41016 0.019531 0.82422-0.015625 1.2266-0.11328l10.809-1.625h0.11328l-0.003906 0.003906c1.6602-0.23047 3.2578-0.78125 4.707-1.625 0.28125-0.16797 0.55859-0.33594 0.78516-0.50391h-0.003906c23.359 2.9922 46.902 4.2852 70.449 3.8633 31.863 0 85.23-1.3984 85.23-10.754 0.011719-0.22266-0.007813-0.44922-0.054687-0.67188m-39.703-13.215c0.15625-0.21875 0.26953-0.46484 0.33594-0.72656 0.15625-0.40234 0.28516-0.8125 0.39062-1.2344 0.16797-0.67188 0.33984-1.2891 0.50391-1.9609 0.16797-0.89453 0.28125-1.8477 0.39062-2.8555l0.003906 0.003907c8.6758 0.39062 17.301 1.5898 25.758 3.582-0.50391 0.16797-1.0625 0.28125-1.7344 0.44922-0.33594 0.054687-0.72656 0.16797-1.1758 0.22266-1.0625 0.22266-2.2383 0.44922-3.5859 0.67188-0.11328 0-0.28125 0.054687-0.44141 0.054687-0.84375 0.16797-1.7422 0.28125-2.6953 0.44922-0.55859 0.054687-1.1211 0.16797-1.7344 0.22266-0.61719 0.054688-1.2305 0.16797-1.9023 0.22266-1.9023 0.28125-4.0898 0.50391-6.4961 0.67187-2.3477 0.28125-4.9844 0.44922-7.7852 0.67188h-0.054688l-0.003906 0.003906c0.10938-0.13281 0.1875-0.28516 0.22656-0.44922m-30.184-0.50391v-3.3047c0-2.4062 0-4.8164 0.054687-7.2812 0-6.3281 0.054688-12.656 0.17188-19.039 0.050781-5.3203 0.16406-10.641 0.22266-15.961l0.050781-1.793c0-1.1758 0-2.4062 0.054687-3.6953 0.28125-11.871 0.61719-23.633 1.0703-35.504 0.38672-12.098 0.89062-24.137 1.4492-36.23 0.22266-4.9844 0.44922-9.9102 0.72656-14.953l0.054688-1.1758c0.39062-7.8945 0.72656-15.793 1.1758-23.688l2.9688-56.559c0.62109-11.535 1.1758-23.016 1.7344-34.551 1.457-30.633 3.0234-62.273 5.4336-93.297l0.22266-3.0781c1.0078-11.594 3.8086-44.297 3.4141-59.359l0.011719-0.003907c0.007813-0.46484-0.011719-0.93359-0.058594-1.3984 0-0.44922-0.054687-0.83984-0.054687-1.2305h0.054687c3.2695-1.1992 6.2617-3.0469 8.793-5.4336 2.1641-2.0859 3.9805-4.5039 5.375-7.168-0.11328 1.0078-0.27344 2.0156-0.44922 3.0234-0.67188 4.8164-1.2891 9.6875-1.8477 14.504-1.0039 8.6797-1.9023 17.246-2.6875 25.871-7.0742 77.723-9.8242 155.78-8.2305 233.8 0.11719 5.9922 0.22266 11.984 0.28125 17.977 0.16797 12.098 0.33594 24.246 0.72656 36.398 0.39062 12.77 1.457 25.703 2.4648 38.246 0.72656 9.2969 1.5117 18.871 2.0156 28.336 0.11328 1.9609 0.33594 4.0898 0.50391 6.2734v0.003907c0.44141 3.6211 0.66797 7.2695 0.67188 10.918-0.027344 2.1719-0.30859 4.332-0.83984 6.4414-0.25781 0.83203-0.63281 1.625-1.1211 2.3516-0.24219 0.41797-0.52344 0.80859-0.83984 1.1758-0.4375 0.53125-0.90234 1.0352-1.3984 1.5117l-0.054688 0.054687h-0.003906c-1.043 1.0039-2.168 1.9219-3.3594 2.7461-0.87891 0.62891-1.7969 1.2109-2.7422 1.7344-1.3984 0.83984-2.8008 1.5664-4.1445 2.2969-0.83984 0.44922-1.5664 0.78516-2.2383 1.1211h-0.003906c-1.1172 0.58594-2.3008 1.0352-3.5273 1.3438-1.4805 0.51172-3.1211 0.066406-4.1445-1.1211-0.70312-0.90625-1.1992-1.9609-1.4531-3.082-0.10156-0.25-0.17578-0.51562-0.22656-0.78125v-0.16797c-0.039062-0.046875-0.054687-0.10938-0.050781-0.16797v-0.28125c-0.066406-0.21875-0.10547-0.44531-0.11719-0.67188-0.003906-0.26562-0.042969-0.52734-0.10938-0.78516-0.085938-1.4531-0.085938-2.9102 0-4.3672m-18.113-209.78c0-1.543 1.2539-2.7969 2.8008-2.7969 0.74219 0 1.457 0.29297 1.9805 0.82031 0.52344 0.52344 0.82031 1.2344 0.82031 1.9766v14.785c0 0.74219-0.29688 1.457-0.82031 1.9805-0.52344 0.52344-1.2383 0.82031-1.9805 0.82031-1.5469 0-2.8008-1.2539-2.8008-2.8008zm0 30.801c0-1.5469 1.2539-2.8008 2.8008-2.8008 0.74219 0 1.457 0.29688 1.9805 0.82031 0.52344 0.52734 0.82031 1.2383 0.82031 1.9805v10.863c0 0.74609-0.29688 1.457-0.82031 1.9805-0.52344 0.52734-1.2383 0.82031-1.9805 0.82031-1.5469 0-2.8008-1.2539-2.8008-2.8008zm0 136.86c0.027343-1.5352 1.2656-2.7734 2.8008-2.7969 0.74219 0 1.457 0.29297 1.9805 0.82031 0.52344 0.52344 0.82031 1.2344 0.82031 1.9766v10.922c0 0.74219-0.29688 1.4531-0.82031 1.9805-0.52344 0.52344-1.2383 0.82031-1.9805 0.82031-1.5469 0-2.8008-1.2539-2.8008-2.8008zm-38.191 21.84c0.16797-2.1836 0.39062-4.3125 0.50781-6.2734 0.5-9.3516 1.2812-18.871 2.0117-28.055 1.0117-12.602 2.1289-25.648 2.4648-38.527 0.39062-12.039 0.55859-24.078 0.72656-36.121 0.054687-6.1055 0.16797-12.152 0.28125-18.258v0.003906c1.6094-78.023-1.1211-156.08-8.1758-233.8-0.83984-8.625-1.7344-17.191-2.7422-25.871-0.55859-4.8164-1.1758-9.6875-1.8477-14.504l-0.44922-3.1367c1.3906 2.7148 3.207 5.1914 5.375 7.3359 2.6016 2.3398 5.625 4.1641 8.9062 5.3789-0.83984 13.551 2.1836 49.84 3.2539 62.273l0.22266 2.8008c2.457 30.855 3.9766 62.328 5.4258 92.734 0.55859 11.703 1.1367 23.406 1.7344 35.113l2.3516 44.52c0.16797 3.9766 0.39062 8.0625 0.61719 12.039 2.3516 44.574 4.8164 97.496 4.9844 152.1 0.0625 2.4062 0.0625 4.8164 0.0625 7.2227v3.4141c0.085937 1.5859 0.066406 3.1758-0.0625 4.7578 0.007812 0.17188-0.011719 0.33984-0.054688 0.50391-0.015625 0.21094-0.054687 0.41797-0.11328 0.61719v0.11328c0 0.11328-0.054688 0.22266-0.054688 0.33594-0.21875 1.3984-0.77734 2.7266-1.625 3.8633-1.9023 2.2383-4.7617 1.3438-10.414-1.5664-1.6797-0.89453-3.3047-1.7344-4.9297-2.8008-0.50391-0.33594-1.0625-0.67188-1.5664-1.0625v-0.003907c-0.58594-0.39453-1.1484-0.82422-1.6797-1.2852-0.58203-0.42188-1.125-0.89062-1.625-1.4023l-0.050781-0.054687c-1.5312-1.3672-2.6914-3.1016-3.3594-5.0391-0.53906-2.1055-0.81641-4.2695-0.83594-6.4414 0-3.6484 0.22266-7.2969 0.66797-10.918m-16.406 14.953c2.918-0.33594 6.3281-0.67187 10.305-0.95312h-0.003906c-0.007813 0.09375 0.011719 0.19141 0.054687 0.27734 0.054688 0.61719 0.11328 1.2305 0.22266 1.8477h0.003906c0.14453 0.92969 0.35156 1.8438 0.61328 2.7461 0.19531 0.66797 0.4375 1.3242 0.73047 1.957 0.066406 0.13672 0.14062 0.26953 0.22266 0.39453h-0.054687c-1.9023-0.16797-3.6953-0.28125-5.375-0.44922-1.0625-0.054687-2.0703-0.16797-3.0234-0.28125s-1.9023-0.16797-2.8008-0.28125l-1.7344-0.16797c0.33594-1.6797 0.61719-3.3594 0.83984-5.0977m-160.61-120.34c0.33594-0.50391 1.3984-1.1758 4.3125-1.5117h0.054687v0.003907c0.29297-0.066407 0.59375-0.10547 0.89453-0.11328 16.969-1.7344 35.062-1.9609 35.391-1.9609 0.16797 0 18.258 0.22266 35.281 1.9609 0.28516 0.011719 0.56641 0.050782 0.83984 0.11328h0.054688c2.918 0.33594 3.9219 1.0078 4.3164 1.5117h0.003906c0.39844 1.0586 0.45312 2.2148 0.16016 3.3047l-0.89453 4.3672c-0.44922 2.2383-0.89062 4.4805-1.3438 6.7188l-1.3984 6.3281c-0.67188 3.1367-1.3984 6.2734-2.0156 9.4062-0.95312 4.7031-1.793 8.7344-5.543 10.586h-0.003906c-2.1445 0.94531-4.4961 1.332-6.832 1.1211h-45.414c-2.3555 0.20703-4.7227-0.17969-6.8906-1.1211-3.4727-1.7344-4.4258-5.3203-5.4883-10.586-0.61719-3.0781-1.2891-6.1055-1.9609-9.1289l-1.3984-6.6094c-0.77734-3.6953-1.5117-7.3906-2.2383-11.145v0.007812c-0.33594-1.0664-0.29688-2.2109 0.11328-3.25m-19.438 58.129c-0.44141 0.61719-0.83984 1.1758-1.2305 1.7344h-0.003906c-10.066 14.934-18.371 30.984-24.75 47.824-4.0898 9.9688-7.3906 20.383-10.527 30.465l-0.33203 1.1211c-0.55859 1.7344-1.5195 3.8086-2.918 4.1445-0.36328 0.10547-0.74609 0.125-1.1211 0.054687-0.90625-0.12891-1.7812-0.43359-2.5742-0.89453-5.4727-3.7773-9.0781-9.7031-9.9141-16.297-3.0977-17.699-2.8516-35.82 0.73047-53.426 2.2539-13.391 5.5352-26.594 9.8086-39.484 3.0664-9.2031 6.8867-18.137 11.426-26.711 1.0078-0.37891 2.0352-0.69922 3.0781-0.95312 9.418-2.3008 18.977-3.9648 28.617-4.9844l1.8477-0.22266c0.76172-0.10938 1.5273-0.16406 2.2969-0.16797h0.16797l0.28125 0.16797c1.7148 1.543 2.8789 3.6094 3.3086 5.8789 0.72266 2.5742 1.2266 5.1523 1.7852 7.7266l0.33594 1.9023c0.89453 4.3125 1.793 8.5664 2.6875 12.879l0.054687 0.28125v0.054687l0.003906 0.003907c1.3203 4.6953 0.96484 9.707-1.0078 14.168-1.5117 1.9023-3.0781 3.7539-4.6484 5.6562l-1.9023 2.2383c-1.9023 2.2383-3.7539 4.4805-5.4883 6.832m21.957 33.152c-2.4688-0.003906-4.9141-0.4375-7.2305-1.2852-3.8164-1.4766-7.0977-4.0742-9.4102-7.4492-4.0273-5.7969-4.7109-13.285-1.7891-19.711 0.33594-0.44922 0.61719-0.89453 0.95312-1.3438 1.625-2.1836 3.3594-4.2578 5.1016-6.3281h-0.003907c3.5273-2.7773 7.8906-4.2812 12.379-4.2578 7.2109 0 13.875 3.8477 17.48 10.094 3.6094 6.2461 3.6094 13.941 0 20.188-3.6055 6.2461-10.27 10.094-17.48 10.094m42.441-6.3828h-8.6797c-1.5469 0-2.8008-1.2539-2.8008-2.8008s1.2539-2.8008 2.8008-2.8008h8.6797c1.5469 0 2.8008 1.2539 2.8008 2.8008s-1.2539 2.8008-2.8008 2.8008m40.879 5.0977h-0.054687c-2.2969 0.84766-4.7227 1.2812-7.168 1.2852-5.3555-0.007813-10.492-2.1445-14.273-5.9336-3.8281-3.7656-5.9688-8.9141-5.9453-14.281 0.019531-5.3516 2.1602-10.477 5.9492-14.254 3.7852-3.7773 8.918-5.9023 14.27-5.9062 4.4805-0.03125 8.8398 1.4492 12.375 4.1992 1.7344 2.0703 3.4727 4.1992 5.1523 6.4414l0.83984 1.1758c1.2266 2.6094 1.8555 5.4609 1.8477 8.3438-0.007813 4.0977-1.2539 8.0938-3.5703 11.473-2.3203 3.375-5.6016 5.9766-9.4219 7.457m60.258 51.129v-0.003906c-0.64062 0.55469-1.3359 1.043-2.0742 1.457-0.84766 0.48047-1.7773 0.80469-2.7422 0.95312-0.30078 0.007812-0.60156-0.011719-0.89844-0.054688-1.5117-0.39062-2.4648-2.5195-2.9688-4.1992l-0.22266-0.61719c-0.72656-2.4648-1.5117-4.9844-2.2969-7.4492-2.4648-7.8945-5.1523-15.848-8.3438-23.52-2.8555-6.9453-5.9375-14-9.2969-21-0.55859-1.1758-1.0625-2.3516-1.625-3.5273-1.0625-2.0703-2.1836-4.0312-3.3047-6.0469s-2.0117-3.9766-3.1367-5.8789-2.2969-3.5273-3.4727-5.3203c-1.2305-1.9609-2.4648-3.9766-3.8008-5.8789-0.0625-0.11328-0.11719-0.22266-0.17188-0.33594l-1.1758-1.5117c-1.7344-2.4062-3.6406-4.7031-5.4883-6.8867l-2.0703-2.5195c-1.5117-1.7344-3.0234-3.5273-4.4805-5.375v-0.007812c-1.9883-4.5-2.3242-9.5547-0.94922-14.281 0.83984-4.3672 1.7344-8.7344 2.6875-13.105l0.45313-2.1836c0.5-2.4648 1.0039-4.9844 1.6797-7.4492v0.003906c0.42578-2.2695 1.5859-4.3359 3.3047-5.8789l0.28125-0.16797h-0.003906c0.82422 0.011718 1.6484 0.066406 2.4648 0.16797l1.793 0.22266 0.61719 0.054688c9.5312 0.98828 18.98 2.6562 28.277 4.9844l2.9102 0.89453 0.003906 0.003906c0.17578 0.039063 0.32422 0.16406 0.39063 0.33594 4.2617 8.5273 7.9258 17.34 10.977 26.375 4.2578 12.895 7.5312 26.09 9.8008 39.48 1.8398 10.09 2.8125 20.32 2.9102 30.574 0.015624 3.9648-0.17188 7.9297-0.55859 11.875-0.16797 1.9609-0.39062 3.8633-0.72656 5.7695-0.16797 1.2305-0.39062 2.4648-0.61719 3.6406-0.054688 0.50391-0.16797 1.0625-0.27344 1.5664v-0.003906c-0.25391 1.3477-0.59375 2.6758-1.0156 3.9766-1.1523 4.2188-3.5273 8-6.832 10.863m71.902 4.0898c-2.8008 0-5.543 0-8.2305-0.054687-3.9766 0-7.8398-0.054688-11.594-0.16797-11.426-0.28125-21.449-0.78516-29.902-1.3984-2.1836-0.16797-4.2578-0.33594-6.2148-0.50391-1.9609-0.16797-3.8047-0.33594-5.5391-0.50391-1.2383-0.16797-2.4141-0.33594-3.5352-0.44922v-0.003906c2.6133-3.2812 4.5039-7.0781 5.5469-11.141 1.0625 0.11328 2.2383 0.22266 3.4141 0.33594 0.89453 0.11328 1.8477 0.22266 2.8555 0.28125 3.6953 0.33594 7.8945 0.67188 12.656 0.95313h0.0625v-0.003907c0.98047 0.95312 2.0469 1.8164 3.1875 2.5742 1.1445 0.83984 2.3438 1.6055 3.582 2.2969 1.2891 0.72656 2.5742 1.457 3.9766 2.1289 0.34766 0.16406 0.68359 0.35156 1.0078 0.55859 4.4258 2.2383 10.977 5.0977 15.848-0.55859 0.47656-0.57031 0.88672-1.1914 1.2344-1.8477 0.16406-0.28125 0.29297-0.58203 0.39063-0.89453 0.31641-0.58594 0.55859-1.207 0.72656-1.8516 6.8867-0.11328 14.168-0.11328 21.055 0h0.003906c0.11719 0.48438 0.28516 0.95312 0.50391 1.4023 0.23438 0.57812 0.51562 1.1406 0.83984 1.6797 0.33594 0.50391 0.67188 1.0078 1.0703 1.5117v0.054688c0.21094 0.30469 0.47656 0.57031 0.77734 0.78516 0.5 0.47656 1.0469 0.90625 1.625 1.2891 4.8711 2.8555 10.754-0.22266 14.84-2.3516 0.61719-0.33594 1.1758-0.61719 1.793-0.95312 1.793-1.0078 3.5859-2.0156 5.2656-3.1914 0.67578-0.50391 1.3438-0.95312 1.9609-1.457l1.3438-1.1758c1.5117-0.11328 2.9102-0.16797 4.3125-0.28125 1.0625-0.054687 2.0703-0.11328 3.0234-0.22266 1.9023-0.11328 3.6953-0.28125 5.375-0.44922 1.0078-0.054687 1.9609-0.16797 2.8633-0.28125 0.90234-0.11328 1.8438-0.16797 2.6836-0.28125 0.83984-0.11328 1.6797-0.16797 2.4648-0.28125 1.9609-0.22266 3.7539-0.50391 5.375-0.78516 1.2891-0.22266 2.4648-0.44922 3.5859-0.67188l1.5195-0.33594-0.011719 0.007812c0.19141-0.007812 0.38281-0.042969 0.5625-0.11328 0.44141-0.12109 0.89062-0.21484 1.3438-0.28125 1.0625-0.33594 2.0156-0.67188 2.8008-0.95312v0.054687l2.9102 11.594c-5.6016 2.6328-34.496 5.9375-79.352 5.9375"/>
  <path d="m241.17 419.75c-4.0039 0-7.6172 2.4141-9.1523 6.1133-1.5312 3.7031-0.68359 7.9648 2.1484 10.797 2.832 2.8359 7.0938 3.6797 10.797 2.1484 3.7031-1.5352 6.1133-5.1445 6.1133-9.1523 0.003906-2.6289-1.0391-5.1484-2.8984-7.0078-1.8594-1.8555-4.3789-2.8984-7.0078-2.8984"/>
  <path d="m207.99 379.12-0.51562-0.085938c-1.2109-0.15625-2.4375-0.15625-3.6484 0l-0.51562 0.085938c-0.71094 0.10156-1.3633 0.45703-1.8359 1-0.45703 0.53516-0.70703 1.2148-0.70703 1.918v0.21875l0.27344 3.8398c0.035157 0.69141 0.32031 1.3438 0.80859 1.8359l2.8711 3v0.003906c0.24609 0.24609 0.58203 0.38672 0.93359 0.38672 0.34766 0 0.68359-0.14062 0.93359-0.38672l2.8945-3v-0.003906c0.46484-0.50391 0.75-1.1523 0.80469-1.8359l0.24609-3.8398c0.0625-0.77734-0.19141-1.5469-0.70312-2.1367-0.47266-0.54297-1.125-0.89844-1.8398-1"/>
  <path d="m209.47 406.66-2.8945-2.9727v-0.003906c-0.24219-0.25781-0.57812-0.40625-0.93359-0.40625-0.35156 0-0.69141 0.14844-0.92969 0.40625l-2.8672 2.9727v0.003906c-0.48438 0.49609-0.77344 1.1484-0.8125 1.8398l-0.27344 3.8398v0.003906c-0.054688 0.77734 0.19922 1.543 0.70312 2.1328 0.46484 0.55078 1.1211 0.91016 1.8359 1.0039l0.51562 0.078126c1.2148 0.16016 2.4453 0.16016 3.6562 0l0.50781-0.078126h0.003906c0.71484-0.09375 1.3711-0.44922 1.8359-1.0039 0.45703-0.53516 0.71094-1.2148 0.70703-1.9219v-0.21094l-0.24219-3.8398v-0.003906c-0.0625-0.68359-0.34766-1.332-0.8125-1.8398"/>
  <path d="m222.84 393.12c-0.53516-0.46094-1.2188-0.71094-1.9219-0.70703h-0.21094l-3.8398 0.26953h-0.003906c-0.69141 0.039062-1.3438 0.32812-1.8398 0.8125l-2.9727 2.8711h-0.003906c-0.25391 0.24219-0.40234 0.58203-0.40234 0.93359 0 0.35156 0.14844 0.69141 0.40234 0.93359l2.9727 2.8945h0.003906c0.50781 0.46094 1.1562 0.74609 1.8398 0.80469l3.8398 0.24609h0.003906c0.77344 0.058593 1.543-0.19531 2.1328-0.70313 0.55078-0.46484 0.91016-1.1211 1-1.8398l0.078124-0.51562v0.003906c0.17188-1.2148 0.17188-2.4414 0-3.6523l-0.078124-0.51562c-0.089844-0.71484-0.44922-1.3711-1-1.8359"/>
  <path d="m196.27 393.48c-0.48828-0.48828-1.1445-0.77734-1.8359-0.8125l-3.8398-0.26953c-0.78125-0.058594-1.5508 0.19531-2.1406 0.70703-0.53906 0.47266-0.89453 1.125-0.99609 1.8359l-0.085938 0.51563c-0.15625 1.2109-0.15625 2.4375 0 3.6523l0.085938 0.51562c0.10547 0.71094 0.45703 1.3594 0.99609 1.8359 0.53516 0.45312 1.2188 0.69922 1.9219 0.69922h0.21875l3.8398-0.24219c0.6875-0.054687 1.332-0.33984 1.8359-0.8125l3-2.8945h0.003906c0.24609-0.24609 0.38672-0.58203 0.38672-0.92969 0-0.35156-0.14062-0.6875-0.38672-0.93359z"/>
  <path d="m317.26 419.75c-4.0078 0.003906-7.6172 2.418-9.1484 6.1172-1.5312 3.7031-0.68359 7.9648 2.1484 10.797 2.8359 2.832 7.0977 3.6758 10.797 2.1445 3.6992-1.5352 6.1133-5.1445 6.1133-9.1523 0-2.6289-1.043-5.1484-2.9023-7.0078-1.8594-1.8555-4.3789-2.8984-7.0078-2.8984"/>
  <path d="m359.4 382.53c-0.023438 2.6445-1.6367 5.0156-4.0859 6.0117-2.4492 0.99609-5.2578 0.42188-7.1211-1.457-1.8594-1.875-2.4102-4.6914-1.3945-7.1328s3.4023-4.0312 6.0469-4.0312c1.7461 0.003906 3.4219 0.69922 4.6523 1.9414 1.2305 1.2383 1.9141 2.9219 1.9023 4.668"/>
  <path d="m359.4 412.1c0.019531 2.6562-1.5625 5.0625-4.0078 6.0938s-5.2734 0.48438-7.1602-1.3828c-1.8828-1.8711-2.4531-4.6914-1.4453-7.1484 1.0117-2.457 3.4062-4.0586 6.0586-4.0586 3.6016-0.007812 6.5312 2.8945 6.5547 6.4961"/>
  <path d="m374.24 397.31c0.015625 2.6641-1.5781 5.0781-4.0312 6.1094-2.457 1.0352-5.293 0.48438-7.1875-1.3906s-2.4727-4.7031-1.4648-7.1719c1.0078-2.4648 3.4023-4.082 6.0703-4.0938 3.625 0.003906 6.5703 2.9219 6.6133 6.5469"/>
  <path d="m344.61 397.31c0.050781 1.7812-0.61719 3.5039-1.8594 4.7812-1.2383 1.2773-2.9453 1.9961-4.7227 1.9961-1.7812 0-3.4844-0.71875-4.7266-1.9961-1.2383-1.2773-1.9102-3-1.8594-4.7812 0.10547-3.5625 3.0234-6.3945 6.5859-6.3945s6.4766 2.832 6.582 6.3945"/>
 </g>
</svg>
